<svg width="24" height="24" viewBox="0 0 24 24" fill="none" xmlns="http://www.w3.org/2000/svg">
<g clip-path="url(#clip0_671_691)">
<path d="M11.28 3.1216C11.3127 3.02231 11.3291 2.97296 11.3559 2.96391C11.3677 2.95995 11.3804 2.95995 11.3921 2.96391C11.419 2.97296 11.4354 3.02231 11.4681 3.1216C11.6041 3.53626 11.6725 3.74359 11.801 3.9077C11.8602 3.98333 11.9286 4.05166 12.0042 4.11094C12.1683 4.23943 12.3756 4.30776 12.7903 4.44384C12.8896 4.47654 12.9389 4.4929 12.948 4.51976C12.9519 4.53151 12.9519 4.54422 12.948 4.55597C12.9389 4.58284 12.8896 4.59919 12.7903 4.6319C12.3756 4.76798 12.1683 4.83631 12.0042 4.96479C11.9283 5.02407 11.8602 5.0924 11.801 5.16804C11.6725 5.33244 11.6041 5.53977 11.4681 5.95414C11.4354 6.05342 11.419 6.10278 11.3921 6.11183C11.3804 6.11577 11.3677 6.11577 11.3559 6.11183C11.3291 6.10278 11.3127 6.05342 11.28 5.95414C11.1439 5.53948 11.0756 5.33215 10.9471 5.16804C10.8878 5.09243 10.8196 5.02428 10.7439 4.96509C10.5795 4.83631 10.3721 4.76798 9.95747 4.6316C9.85848 4.59919 9.80913 4.58284 9.79978 4.55568C9.79591 4.54402 9.79591 4.53142 9.79978 4.51976C9.80913 4.4929 9.85848 4.47654 9.95747 4.44384C10.3721 4.30776 10.5795 4.23943 10.7439 4.11094C10.8195 4.05166 10.8875 3.98333 10.9468 3.9077C11.0753 3.7433 11.1439 3.53626 11.28 3.1216Z" fill="white"/>
<path d="M9.33159 5.18637C9.35303 5.12129 9.36375 5.08894 9.38136 5.083C9.38906 5.08041 9.3974 5.08041 9.4051 5.083C9.42271 5.08894 9.43343 5.12129 9.45487 5.18637C9.54407 5.45819 9.58886 5.5941 9.67309 5.70167C9.71194 5.75125 9.75674 5.79604 9.80631 5.8349C9.91389 5.91913 10.0498 5.96392 10.3216 6.05312C10.3867 6.07456 10.4191 6.08528 10.425 6.10289C10.4276 6.11059 10.4276 6.11893 10.425 6.12663C10.4191 6.14424 10.3867 6.15496 10.3216 6.1764C10.0498 6.2656 9.91389 6.31039 9.80631 6.39462C9.75655 6.43347 9.71194 6.47827 9.67309 6.52785C9.58886 6.63561 9.54407 6.77152 9.45487 7.04315C9.43343 7.10823 9.42271 7.14058 9.4051 7.14652C9.3974 7.1491 9.38906 7.1491 9.38136 7.14652C9.36375 7.14058 9.35303 7.10823 9.33159 7.04315C9.24239 6.77133 9.1976 6.63542 9.11337 6.52785C9.0745 6.47828 9.02976 6.43361 8.98014 6.39481C8.87237 6.31039 8.73646 6.2656 8.46465 6.17621C8.39976 6.15496 8.36741 6.14424 8.36128 6.12644C8.35874 6.11879 8.35874 6.11053 8.36128 6.10289C8.36741 6.08528 8.39976 6.07456 8.46465 6.05312C8.73646 5.96392 8.87237 5.91913 8.98014 5.8349C9.02972 5.79604 9.07432 5.75125 9.11318 5.70167C9.19741 5.5939 9.24239 5.45819 9.33159 5.18637Z" fill="white"/>
<path d="M7.90212 3.07326C7.92499 3.00385 7.93642 2.96934 7.9552 2.96301C7.96341 2.96025 7.9723 2.96025 7.98052 2.96301C7.9993 2.96934 8.01073 3.00385 8.0336 3.07326C8.12873 3.36316 8.1765 3.5081 8.26633 3.62284C8.30777 3.67572 8.35555 3.72349 8.40842 3.76493C8.52316 3.85476 8.66811 3.90253 8.958 3.99767C9.02742 4.02053 9.06192 4.03196 9.06825 4.05075C9.071 4.05896 9.071 4.06785 9.06825 4.07606C9.06192 4.09484 9.02742 4.10628 8.958 4.12914C8.66811 4.22428 8.52316 4.27205 8.40842 4.36188C8.35534 4.40332 8.30777 4.45109 8.26633 4.50397C8.1765 4.6189 8.12873 4.76385 8.0336 5.05355C8.01073 5.12296 7.9993 5.15746 7.98052 5.16379C7.9723 5.16655 7.96341 5.16655 7.9552 5.16379C7.93642 5.15746 7.92499 5.12296 7.90212 5.05355C7.80699 4.76365 7.75921 4.6187 7.66939 4.50397C7.62792 4.45111 7.58021 4.40346 7.52729 4.36208C7.41236 4.27205 7.26741 4.22428 6.97751 4.12894C6.9083 4.10627 6.8738 4.09484 6.86727 4.07586C6.86456 4.06771 6.86456 4.0589 6.86727 4.05075C6.8738 4.03196 6.9083 4.02053 6.97751 3.99767C7.26741 3.90253 7.41236 3.85476 7.52729 3.76493C7.58017 3.72349 7.62774 3.67572 7.66918 3.62284C7.75901 3.5079 7.80699 3.36316 7.90212 3.07326Z" fill="white"/>
<path d="M14.5053 3.66108C14.318 3.67288 14.1443 3.75876 14.0225 3.90159C13.9007 4.04432 13.8408 4.2323 13.8559 4.42243C13.871 4.61255 13.9598 4.78874 14.1025 4.91048C14.2453 5.03232 14.4304 5.08973 14.6172 5.07184C14.6172 5.07184 14.6172 5.07184 14.6172 5.07184C15.302 5.00576 15.9904 5.00611 16.6595 5.09275C18.1432 5.27607 19.573 5.9478 20.2996 7.17245C22.2514 10.8672 18.6077 15.3241 15.0349 17.4271C11.4982 19.5586 5.83787 20.9041 3.14638 17.114C1.97125 15.1799 2.63757 12.658 3.82497 10.7872C4.00721 10.4952 4.20361 10.2113 4.41165 9.93617C4.85324 9.35243 5.34731 8.80759 5.87998 8.30269C5.33136 8.79023 4.81869 9.32004 4.3559 9.89259C4.13788 10.1624 3.93091 10.4419 3.73754 10.7307C2.48725 12.5765 1.67416 15.137 2.86658 17.2762C5.69567 21.4704 11.6437 20.172 15.4136 18.0805C19.1372 15.9431 23.5583 11.6418 21.3265 6.57732C20.4082 4.91181 18.575 4.02779 16.8557 3.76271C16.0729 3.63563 15.2836 3.61139 14.5053 3.66108Z" fill="white"/>
<path d="M10.4117 15.4447C9.97625 15.6924 9.43555 15.3779 9.43555 14.877V9.12306C9.43555 8.62209 9.97626 8.30762 10.4117 8.55533L15.4688 11.4324C15.9091 11.6828 15.9091 12.3174 15.4688 12.5678L10.4117 15.4447Z" fill="white"/>
</g>
<defs>
<clipPath id="clip0_671_691">
<rect width="24" height="24" fill="white"/>
</clipPath>
</defs>
</svg>
