<svg width="24" height="24" viewBox="0 0 24 24" fill="none" xmlns="http://www.w3.org/2000/svg">
<path d="M12.3717 3.62604C12.3851 3.58534 12.3918 3.56511 12.4028 3.5614C12.4076 3.55977 12.4128 3.55977 12.4176 3.5614C12.4286 3.56511 12.4353 3.58534 12.4488 3.62604C12.5045 3.79603 12.5325 3.88102 12.5852 3.94829C12.6095 3.9793 12.6375 4.00731 12.6685 4.03161C12.7358 4.08428 12.8208 4.11229 12.9908 4.16808C13.0315 4.18148 13.0517 4.18819 13.0554 4.1992C13.057 4.20402 13.057 4.20923 13.0554 4.21404C13.0517 4.22506 13.0315 4.23176 12.9908 4.24517C12.8208 4.30095 12.7358 4.32896 12.6685 4.38163C12.6374 4.40593 12.6095 4.43395 12.5852 4.46495C12.5325 4.53235 12.5045 4.61734 12.4488 4.7872C12.4353 4.8279 12.4286 4.84813 12.4176 4.85184C12.4128 4.85346 12.4076 4.85346 12.4028 4.85184C12.3918 4.84813 12.3851 4.8279 12.3717 4.7872C12.3159 4.61722 12.2879 4.53223 12.2352 4.46495C12.2109 4.43396 12.1829 4.40602 12.1519 4.38175C12.0845 4.32896 11.9995 4.30095 11.8295 4.24505C11.7889 4.23176 11.7687 4.22506 11.7649 4.21392C11.7633 4.20914 11.7633 4.20398 11.7649 4.1992C11.7687 4.18819 11.7889 4.18148 11.8295 4.16808C11.9995 4.11229 12.0845 4.08428 12.1519 4.03161C12.1829 4.00731 12.2108 3.9793 12.2351 3.94829C12.2877 3.8809 12.3159 3.79603 12.3717 3.62604Z" fill="white"/>
<path d="M13.3973 5.05669C13.4232 4.97805 13.4362 4.93897 13.4574 4.9318C13.4667 4.92866 13.4768 4.92866 13.4861 4.9318C13.5074 4.93897 13.5203 4.97805 13.5462 5.05669C13.654 5.3851 13.7081 5.54931 13.8099 5.67929C13.8569 5.73919 13.911 5.79331 13.9709 5.84025C14.1009 5.94202 14.2651 5.99614 14.5935 6.10391C14.6721 6.12981 14.7112 6.14277 14.7184 6.16404C14.7215 6.17335 14.7215 6.18342 14.7184 6.19272C14.7112 6.214 14.6721 6.22695 14.5935 6.25285C14.2651 6.36063 14.1009 6.41475 13.9709 6.51651C13.9107 6.56346 13.8569 6.61758 13.8099 6.67748C13.7081 6.80769 13.654 6.9719 13.5462 7.30008C13.5203 7.37871 13.5074 7.4178 13.4861 7.42497C13.4768 7.42809 13.4667 7.42809 13.4574 7.42497C13.4362 7.4178 13.4232 7.37871 13.3973 7.30008C13.2895 6.97167 13.2354 6.80746 13.1336 6.67748C13.0867 6.6176 13.0326 6.56363 12.9727 6.51674C12.8425 6.41475 12.6783 6.36063 12.3498 6.25262C12.2714 6.22695 12.2324 6.214 12.225 6.19249C12.2219 6.18326 12.2219 6.17328 12.225 6.16404C12.2324 6.14277 12.2714 6.12981 12.3498 6.10391C12.6783 5.99614 12.8425 5.94202 12.9727 5.84025C13.0326 5.79331 13.0865 5.73919 13.1334 5.67929C13.2352 5.54908 13.2895 5.3851 13.3973 5.05669Z" fill="white"/>
<path d="M15.6294 4.91296C15.4359 4.95572 15.2688 5.07355 15.1655 5.24262C15.0621 5.41157 15.0309 5.61793 15.0782 5.81419C15.1255 6.01045 15.2473 6.17992 15.4163 6.28322C15.5853 6.38665 15.7877 6.41543 15.9794 6.36535C15.9794 6.36535 15.9794 6.36535 15.9794 6.36535C16.5925 6.20502 17.2115 6.08232 17.8261 6.02067C19.0045 5.89285 20.3592 6.0417 20.7901 6.77017C21.4881 8.03832 20.012 10.1431 18.707 11.5193C17.3142 12.9873 15.6667 14.236 13.9131 15.301C12.1556 16.3608 10.2807 17.2455 8.30769 17.8072C6.43902 18.2833 3.91894 18.8526 2.68731 17.2621C1.87771 15.6162 3.30168 13.7433 4.4447 12.3858C4.72994 12.0607 5.02964 11.747 5.33958 11.4439C5.8141 10.9801 6.31294 10.5407 6.82978 10.1225C6.82978 10.1225 6.82978 10.1225 6.82978 10.1225C6.29764 10.521 5.78187 10.9421 5.28837 11.3895C4.96602 11.6819 4.65303 11.9859 4.35339 12.3027C3.17437 13.65 1.55078 15.3888 2.39711 17.4303C3.87809 19.3925 6.4973 18.7442 8.45156 18.3581C10.5114 17.854 12.4669 17.0185 14.316 15.9962C16.1617 14.9668 17.9111 13.7471 19.4478 12.2458C20.2096 11.4925 20.9248 10.6718 21.4888 9.69747C22.0076 8.75424 22.5869 7.47005 21.8903 6.13254C20.8408 4.51209 19.0497 4.5672 17.7137 4.60583C17.0015 4.65052 16.3089 4.76244 15.6294 4.91296Z" fill="white"/>
<path fill-rule="evenodd" clip-rule="evenodd" d="M16.6239 16.7415C16.738 16.9391 16.8092 17.1591 16.8319 17.3861L17.0429 19.4984C17.1413 20.483 16.0329 21.1236 15.2294 20.5462L13.5048 19.307C13.3195 19.1738 13.1638 19.0026 13.0497 18.805L12.2821 17.4759C12.5498 17.3781 12.8436 17.2645 13.1513 17.14L13.8466 18.3451C13.8954 18.4297 13.9616 18.5038 14.0409 18.5609L15.7655 19.8001C15.9262 19.9154 16.1485 19.787 16.1288 19.5902L15.9169 17.4779C15.9072 17.3806 15.8769 17.2852 15.828 17.2005L15.2372 16.1771C15.5176 16.0259 15.7841 15.8684 16.0282 15.7093L16.6239 16.7415ZM7.42567 4.0267C8.1951 3.58267 9.17963 3.84628 9.62392 4.61556L14.9179 13.7865C14.6887 13.9409 14.4293 14.1133 14.1493 14.2933L8.82802 5.07552C8.63766 4.74582 8.21539 4.63339 7.88564 4.82357L7.09853 5.27767C6.76879 5.46805 6.65631 5.88931 6.84657 6.21908L12.1884 15.472C11.9126 15.625 11.6397 15.7719 11.3749 15.9036L6.0497 6.67904C5.60563 5.90955 5.86913 4.92503 6.63857 4.4808L7.42567 4.0267Z" fill="white"/>
</svg>
