<svg width="26" height="26" viewBox="0 0 26 26" fill="none" xmlns="http://www.w3.org/2000/svg">
<path d="M12.7408 2.25282C12.7695 2.16583 12.7838 2.12259 12.8073 2.11466C12.8176 2.11119 12.8288 2.11119 12.839 2.11466C12.8626 2.12259 12.8769 2.16583 12.9056 2.25282C13.0248 2.61611 13.0847 2.79776 13.1972 2.94154C13.2492 3.0078 13.309 3.06767 13.3753 3.1196C13.5191 3.23217 13.7007 3.29204 14.064 3.41126C14.151 3.43991 14.1942 3.45424 14.2022 3.47778C14.2056 3.48807 14.2056 3.49921 14.2022 3.5095C14.1942 3.53304 14.151 3.54737 14.064 3.57602C13.7007 3.69524 13.5191 3.75511 13.3753 3.86768C13.3088 3.91961 13.2492 3.97948 13.1972 4.04574C13.0847 4.18978 13.0248 4.37143 12.9056 4.73447C12.8769 4.82145 12.8626 4.86469 12.839 4.87262C12.8288 4.87607 12.8176 4.87607 12.8073 4.87262C12.7838 4.86469 12.7695 4.82145 12.7408 4.73447C12.6216 4.37117 12.5617 4.18953 12.4491 4.04574C12.3972 3.9795 12.3374 3.9198 12.2711 3.86794C12.127 3.75511 11.9454 3.69524 11.5821 3.57577C11.4954 3.54737 11.4521 3.53304 11.444 3.50925C11.4406 3.49903 11.4406 3.48799 11.444 3.47778C11.4521 3.45424 11.4954 3.43991 11.5821 3.41126C11.9454 3.29204 12.127 3.23217 12.2711 3.1196C12.3373 3.06767 12.397 3.0078 12.4489 2.94154C12.5615 2.7975 12.6216 2.61611 12.7408 2.25282Z" fill="white"/>
<path d="M5.18178 7.85851C5.2041 7.79077 5.21525 7.7571 5.23358 7.75093C5.24159 7.74823 5.25027 7.74823 5.25828 7.75093C5.27661 7.7571 5.28777 7.79077 5.31008 7.85851C5.40292 8.14141 5.44954 8.28286 5.5372 8.39483C5.57764 8.44643 5.62426 8.49305 5.67586 8.53349C5.78783 8.62115 5.92928 8.66777 6.21218 8.76061C6.27992 8.78292 6.31359 8.79408 6.31976 8.8124C6.32245 8.82042 6.32245 8.82909 6.31976 8.83711C6.31359 8.85544 6.27992 8.86659 6.21218 8.88891C5.92928 8.98175 5.78783 9.02837 5.67586 9.11603C5.62406 9.15647 5.57764 9.20309 5.5372 9.25469C5.44954 9.36685 5.40292 9.5083 5.31008 9.791C5.28777 9.85874 5.27661 9.89241 5.25828 9.89859C5.25027 9.90127 5.2416 9.90127 5.23358 9.89859C5.21525 9.89241 5.2041 9.85874 5.18178 9.791C5.08894 9.5081 5.04232 9.36665 4.95466 9.25469C4.9142 9.2031 4.86764 9.15661 4.816 9.11622C4.70384 9.02837 4.56239 8.98175 4.27949 8.88871C4.21195 8.86659 4.17828 8.85544 4.1719 8.83691C4.16926 8.82896 4.16926 8.82036 4.1719 8.8124C4.17828 8.79408 4.21195 8.78292 4.27949 8.76061C4.56239 8.66777 4.70384 8.62115 4.816 8.53349C4.8676 8.49305 4.91402 8.44643 4.95446 8.39483C5.04212 8.28266 5.08894 8.14141 5.18178 7.85851Z" fill="white"/>
<path d="M14.5658 5.55447C14.6094 5.42206 14.6312 5.35624 14.6671 5.34417C14.6827 5.33889 14.6997 5.33889 14.7153 5.34417C14.7512 5.35624 14.773 5.42206 14.8166 5.55447C14.9981 6.10746 15.0892 6.38396 15.2605 6.60282C15.3396 6.70368 15.4307 6.79481 15.5316 6.87386C15.7505 7.04521 16.0269 7.13634 16.5799 7.31782C16.7124 7.36143 16.7782 7.38324 16.7902 7.41907C16.7955 7.43474 16.7955 7.45169 16.7902 7.46736C16.7782 7.50319 16.7124 7.52499 16.5799 7.56861C16.0269 7.75009 15.7505 7.84121 15.5316 8.01256C15.4303 8.09162 15.3396 8.18274 15.2605 8.28361C15.0892 8.50286 14.9981 8.77936 14.8166 9.33196C14.773 9.46437 14.7512 9.53018 14.7153 9.54225C14.6997 9.54751 14.6827 9.54751 14.6671 9.54225C14.6312 9.53018 14.6094 9.46437 14.5658 9.33196C14.3843 8.77897 14.2932 8.50247 14.1218 8.28361C14.0428 8.18278 13.9517 8.0919 13.8508 8.01295C13.6316 7.84121 13.3551 7.75008 12.8021 7.56822C12.67 7.52499 12.6042 7.50319 12.5918 7.46697C12.5866 7.45142 12.5866 7.43462 12.5918 7.41907C12.6042 7.38324 12.67 7.36143 12.8021 7.31782C13.3551 7.13634 13.6316 7.04521 13.8508 6.87386C13.9517 6.79481 14.0424 6.70368 14.1215 6.60282C14.2928 6.38357 14.3843 6.10746 14.5658 5.55447Z" fill="white"/>
<path d="M17.1217 6.1091C20.0437 5.40481 22.345 5.65376 23.1188 6.98899C24.4191 9.23255 20.9145 13.6934 15.291 16.9527C9.66748 20.2119 4.05462 21.0353 2.75432 18.7917C2.00673 17.5018 2.84741 15.479 4.76589 13.373C5.05905 13.0511 5.37738 12.7274 5.71905 12.404" stroke="white" stroke-width="1.08333" stroke-linecap="round"/>
<path fill-rule="evenodd" clip-rule="evenodd" d="M18.01 18.1366C18.1336 18.3507 18.21 18.589 18.2346 18.8349L18.4641 21.1239C18.5704 22.1904 17.3686 22.8841 16.4983 22.2587L14.6301 20.9159C14.4295 20.7717 14.2615 20.586 14.1379 20.372L13.7824 19.7568C14.3726 19.488 15.0405 19.1434 15.6916 18.7724C16.3673 18.3874 17.059 17.9558 17.6584 17.5282L18.01 18.1366ZM8.04514 4.36321C8.87878 3.88202 9.94472 4.1673 10.426 5.0009L15.6233 14.0029C14.6121 14.6832 13.0648 15.6589 11.7785 16.2851L6.55393 7.23625C6.07264 6.4026 6.35896 5.3367 7.1926 4.85539L8.04514 4.36321Z" fill="white"/>
</svg>
