<svg width="26" height="26" viewBox="0 0 26 26" fill="none" xmlns="http://www.w3.org/2000/svg">
<g clip-path="url(#clip0_800_1011)">
<path d="M11.3631 4.1097C11.3362 3.96041 11.323 3.88614 11.3511 3.85603C11.3633 3.84287 11.3796 3.83409 11.3973 3.83103C11.4378 3.82403 11.4928 3.87572 11.6031 3.97984C12.0631 4.41506 12.2934 4.63246 12.5707 4.75318C12.6986 4.80876 12.833 4.84878 12.9705 4.8722C13.2686 4.92285 13.5804 4.86688 14.2035 4.7542C14.3528 4.72738 14.4271 4.71417 14.4572 4.74221C14.4704 4.75448 14.4791 4.7707 14.4822 4.78842C14.4892 4.82895 14.4375 4.8839 14.3334 4.9942C13.8982 5.4542 13.6808 5.68458 13.5601 5.96187C13.5041 6.08995 13.4645 6.22414 13.441 6.3616C13.3906 6.66013 13.4466 6.97191 13.559 7.59469C13.5859 7.74398 13.5991 7.81825 13.571 7.84836C13.5588 7.8615 13.5425 7.87028 13.5248 7.87336C13.4843 7.88036 13.4293 7.82867 13.3191 7.72455C12.859 7.28933 12.6287 7.07193 12.3514 6.95122C12.2235 6.89568 12.0893 6.85584 11.9519 6.83256C11.6531 6.78174 11.3413 6.83771 10.718 6.95002C10.5693 6.97701 10.495 6.99022 10.4643 6.96201C10.4513 6.94981 10.4426 6.93373 10.4395 6.91618C10.4329 6.87544 10.4846 6.82049 10.5883 6.71039C11.0235 6.25039 11.2409 6.02002 11.362 5.74252C11.4176 5.61464 11.4573 5.48045 11.4807 5.343C11.5311 5.04446 11.4757 4.73285 11.3631 4.1097Z" fill="white"/>
<path d="M7.85598 2.13863C7.88937 2.03727 7.90606 1.98688 7.93349 1.97764C7.94548 1.9736 7.95847 1.9736 7.97046 1.97764C7.99788 1.98688 8.01458 2.03727 8.04797 2.13863C8.1869 2.56197 8.25666 2.77364 8.38784 2.94119C8.44836 3.01841 8.51812 3.08817 8.59533 3.14869C8.76288 3.27987 8.97455 3.34963 9.39789 3.48856C9.49926 3.52195 9.54964 3.53864 9.55888 3.56607C9.56291 3.57806 9.56291 3.59104 9.55888 3.60304C9.54964 3.63046 9.49926 3.64716 9.39789 3.68055C8.97455 3.81948 8.76288 3.88924 8.59533 4.02042C8.51782 4.08094 8.44836 4.1507 8.38784 4.22791C8.25666 4.39576 8.1869 4.60743 8.04797 5.03047C8.01458 5.13184 7.99788 5.18222 7.97046 5.19146C7.95846 5.19549 7.94548 5.19549 7.93349 5.19146C7.90606 5.18222 7.88937 5.13184 7.85598 5.03047C7.71705 4.60713 7.64729 4.39546 7.51611 4.22791C7.45556 4.15072 7.38589 4.08115 7.30861 4.02071C7.14077 3.88924 6.92909 3.81948 6.50575 3.68025C6.40469 3.64716 6.3543 3.63047 6.34476 3.60274C6.34081 3.59084 6.34081 3.57797 6.34476 3.56607C6.3543 3.53864 6.40469 3.52195 6.50575 3.48856C6.92909 3.34963 7.14077 3.27987 7.30861 3.14869C7.38583 3.08817 7.45529 3.01841 7.51581 2.94119C7.64699 2.77335 7.71705 2.56197 7.85598 2.13863Z" fill="white"/>
<path d="M6.71252 6.04478C6.75171 5.92583 6.7713 5.8667 6.80349 5.85585C6.81756 5.85111 6.8328 5.85111 6.84687 5.85585C6.87906 5.8667 6.89865 5.92583 6.93784 6.04478C7.10088 6.5416 7.18275 6.79001 7.33669 6.98663C7.40771 7.07725 7.48958 7.15912 7.5802 7.23014C7.77682 7.38409 8.02523 7.46596 8.52205 7.629C8.641 7.66818 8.70013 7.68777 8.71098 7.71996C8.7157 7.73404 8.7157 7.74927 8.71098 7.76335C8.70013 7.79553 8.641 7.81513 8.52205 7.85431C8.02523 8.01735 7.77682 8.09922 7.5802 8.25316C7.48923 8.32419 7.40771 8.40606 7.33669 8.49667C7.18275 8.69365 7.10088 8.94206 6.93784 9.43852C6.89865 9.55748 6.87906 9.61661 6.84687 9.62745C6.83279 9.63217 6.81756 9.63217 6.80349 9.62745C6.7713 9.61661 6.75171 9.55748 6.71252 9.43852C6.54948 8.94171 6.46761 8.6933 6.31367 8.49667C6.24261 8.40609 6.16085 8.32444 6.07016 8.25351C5.87318 8.09922 5.62477 8.01735 5.12796 7.85396C5.00935 7.81513 4.95022 7.79553 4.93903 7.763C4.93439 7.74903 4.93439 7.73393 4.93903 7.71996C4.95022 7.68777 5.00935 7.66818 5.12796 7.629C5.62477 7.46596 5.87318 7.38409 6.07016 7.23014C6.16078 7.15912 6.24229 7.07725 6.31332 6.98663C6.46726 6.78966 6.54948 6.5416 6.71252 6.04478Z" fill="white"/>
<path d="M15.8065 6.24491C18.865 6.07932 21.5101 7.11763 22.7673 9.28683C24.8798 12.9317 22.274 18.3892 16.947 21.4766C11.6201 24.5639 5.58931 24.1119 3.47684 20.4671C2.26231 18.3715 2.60741 15.6768 4.13257 13.1778C4.37789 12.7758 4.65374 12.3789 4.95854 11.9904" stroke="white" stroke-width="1.08333" stroke-linecap="round"/>
<path d="M10.618 18.4678C10.1463 18.7361 9.56055 18.3954 9.56055 17.8527V9.4863C9.56055 8.94359 10.1463 8.6029 10.618 8.87127L17.9713 13.0546C18.4482 13.3259 18.4482 14.0133 17.9713 14.2847L10.618 18.4678Z" fill="white"/>
</g>
<defs>
<clipPath id="clip0_800_1011">
<rect width="26" height="26" fill="white"/>
</clipPath>
</defs>
</svg>
