<svg width="29" height="33" viewBox="0 0 29 33" fill="none" xmlns="http://www.w3.org/2000/svg">
<path d="M9.17678 6.83768C10.7907 7.17847 12.0863 7.83754 13.0636 8.81488C14.0395 9.79072 14.7 11.0878 15.0408 12.7017C15.4912 11.1959 16.2043 9.95436 17.1817 8.97852C18.159 8.00118 19.4006 7.28807 20.9049 6.83768C19.4636 6.43984 18.2566 5.75375 17.2792 4.7764C16.3019 3.79906 15.6143 2.53047 15.218 0.973633C14.7586 2.46892 14.041 3.70598 13.0636 4.68182C12.0863 5.65916 10.7907 6.37828 9.17678 6.83768ZM1.9856 12.5396C3.23317 12.8038 4.23753 13.3142 4.99268 14.0709C5.74933 14.826 6.25827 15.8274 6.524 17.078C6.8708 15.913 7.42327 14.9537 8.17992 14.1955C8.93507 13.4404 9.8959 12.8894 11.0609 12.5396C9.85536 12.2333 8.87352 11.7019 8.11837 10.9452C7.36172 10.1886 6.83026 9.20822 6.5225 8.00268C6.16669 9.15867 5.61121 10.1165 4.85606 10.8716C4.09941 11.6283 3.14159 12.1838 1.9856 12.5396ZM6.46395 10.5008L6.59306 10.699C7.0756 11.3884 7.67517 11.988 8.36458 12.4705L8.54774 12.5906L8.52672 12.6056C8.273 12.7828 8.0313 12.9735 7.8031 13.1761L7.46831 13.4914C7.25213 13.7076 7.04795 13.9373 6.85879 14.179L6.62308 14.4943L6.45644 14.2405C6.30809 14.0293 6.14768 13.8268 5.97603 13.634L5.7103 13.3533C5.43672 13.0793 5.13985 12.8297 4.82304 12.6071L4.55581 12.4315L4.87558 12.1913C4.99568 12.0982 5.11279 11.9991 5.22688 11.8985L5.56017 11.5833C5.88543 11.2583 6.1818 10.9057 6.44593 10.5294L6.46395 10.5008Z" fill="url(#paint0_linear_15_334)"/>
<path d="M21.4339 12.4324L20.7643 11.7629C20.4857 11.4842 20.1086 11.3263 19.7145 11.3232C19.3205 11.3201 18.941 11.4721 18.658 11.7464L1.00432 28.8311C0.861163 28.9697 0.747032 29.1354 0.668585 29.3186C0.590138 29.5018 0.548945 29.6987 0.547408 29.898C0.545871 30.0973 0.58402 30.2949 0.659632 30.4792C0.735244 30.6636 0.846804 30.8311 0.98781 30.9719L1.94263 31.9267C2.22416 32.2082 2.60596 32.3663 3.00404 32.3663C3.40213 32.3663 3.78392 32.2082 4.06546 31.9267L21.4339 14.5568C21.5735 14.4173 21.6842 14.2518 21.7598 14.0695C21.8353 13.8873 21.8742 13.6919 21.8742 13.4946C21.8742 13.2973 21.8353 13.102 21.7598 12.9197C21.6842 12.7375 21.5735 12.5719 21.4339 12.4324ZM28.4194 24.4097C26.5908 24.1035 25.1421 23.4159 24.0747 22.3485C23.0238 21.2976 22.3407 19.8233 22.0269 17.9272H22.0314C22.0257 17.8923 22.0078 17.8606 21.981 17.8376C21.9542 17.8146 21.9201 17.8018 21.8848 17.8014C21.8495 17.8011 21.8151 17.8132 21.7879 17.8356C21.7606 17.8581 21.7421 17.8894 21.7357 17.9242C21.4024 19.7903 20.7073 21.2465 19.6594 22.2959C18.6085 23.3468 17.2003 24.0419 15.4377 24.3797V24.3782C15.4039 24.3858 15.3737 24.4048 15.3524 24.4321C15.331 24.4593 15.3197 24.4932 15.3204 24.5278C15.3211 24.5625 15.3337 24.5958 15.3562 24.6222C15.3787 24.6485 15.4096 24.6663 15.4437 24.6725C17.2198 24.9983 18.6325 25.6873 19.6834 26.7383C20.7313 27.7862 21.4204 29.1418 21.7477 30.8052H21.7462C21.7521 30.8394 21.7698 30.8704 21.796 30.8931C21.8223 30.9157 21.8556 30.9286 21.8902 30.9295C21.9249 30.9303 21.9588 30.9192 21.9862 30.8979C22.0135 30.8767 22.0327 30.8466 22.0404 30.8128C22.3557 29.2514 23.0358 27.9543 24.0747 26.9154C25.1451 25.845 26.5968 25.1063 28.4329 24.6995V24.701C28.4659 24.6922 28.4948 24.6724 28.5151 24.6449C28.5353 24.6174 28.5455 24.5839 28.5441 24.5498C28.5427 24.5157 28.5298 24.4831 28.5074 24.4574C28.485 24.4317 28.4545 24.4143 28.4209 24.4082L28.4194 24.4097Z" fill="url(#paint1_linear_15_334)"/>
<defs>
<linearGradient id="paint0_linear_15_334" x1="2.74232" y1="-0.402201" x2="17.656" y2="19.3994" gradientUnits="userSpaceOnUse">
<stop offset="0.0373024" stop-color="#E34C9B"/>
<stop offset="0.311162" stop-color="#AC4FFF"/>
<stop offset="0.498332" stop-color="#7254FF"/>
<stop offset="0.730229" stop-color="#497CFF"/>
<stop offset="0.958877" stop-color="#3EDEFB"/>
</linearGradient>
<linearGradient id="paint1_linear_15_334" x1="1.66717" y1="9.52542" x2="20.3654" y2="37.6416" gradientUnits="userSpaceOnUse">
<stop offset="0.0373024" stop-color="#E34C9B"/>
<stop offset="0.311162" stop-color="#AC4FFF"/>
<stop offset="0.498332" stop-color="#7254FF"/>
<stop offset="0.730229" stop-color="#497CFF"/>
<stop offset="0.958877" stop-color="#3EDEFB"/>
</linearGradient>
</defs>
</svg>
