<svg width="18" height="20" viewBox="0 0 18 20" fill="none" xmlns="http://www.w3.org/2000/svg">
<path d="M8.20542 11.6371C8.1646 11.5185 8.09819 11.5187 8.05788 11.6375L7.83023 12.3081C7.78991 12.4268 7.65975 12.5571 7.54097 12.5975L6.87536 12.8238C6.7566 12.8642 6.75636 12.931 6.87483 12.9723L7.53643 13.2026C7.6549 13.2438 7.78522 13.3746 7.82604 13.4933L8.05694 14.1645C8.09773 14.2831 8.16395 14.2829 8.20405 14.164L8.42948 13.4957C8.46955 13.3769 8.59946 13.2463 8.71815 13.2057L9.39418 12.9742C9.51286 12.9335 9.51273 12.8674 9.39389 12.8272L8.72855 12.6022C8.60971 12.562 8.47907 12.432 8.43825 12.3134L8.20542 11.6371Z" fill="#DD93FF"/>
<path d="M8.20542 11.6371C8.1646 11.5185 8.09819 11.5187 8.05788 11.6375L7.83023 12.3081C7.78991 12.4268 7.65975 12.5571 7.54097 12.5975L6.87536 12.8238C6.7566 12.8642 6.75636 12.931 6.87483 12.9723L7.53643 13.2026C7.6549 13.2438 7.78522 13.3746 7.82604 13.4933L8.05694 14.1645C8.09773 14.2831 8.16395 14.2829 8.20405 14.164L8.42948 13.4957C8.46955 13.3769 8.59946 13.2463 8.71815 13.2057L9.39418 12.9742C9.51286 12.9335 9.51273 12.8674 9.39389 12.8272L8.72855 12.6022C8.60971 12.562 8.47907 12.432 8.43825 12.3134L8.20542 11.6371Z" fill="#CFCBFF"/>
<path d="M12.0302 11.7922C11.9182 11.4667 11.7359 11.467 11.6253 11.7931L11.0004 13.6336C10.8898 13.9596 10.5326 14.3171 10.2065 14.428L8.37967 15.0493C8.05371 15.1601 8.05305 15.3434 8.3782 15.4566L10.1941 16.0888C10.5192 16.202 10.8769 16.561 10.989 16.8866L11.6227 18.7288C11.7347 19.0544 11.9164 19.0538 12.0265 18.7276L12.6452 16.8933C12.7552 16.5671 13.1117 16.2089 13.4375 16.0974L15.293 15.4619C15.6187 15.3503 15.6183 15.1688 15.2922 15.0585L13.466 14.4408C13.1399 14.3305 12.7813 13.9739 12.6693 13.6484L12.0302 11.7922Z" fill="#DD93FF"/>
<path d="M12.0302 11.7922C11.9182 11.4667 11.7359 11.467 11.6253 11.7931L11.0004 13.6336C10.8898 13.9596 10.5326 14.3171 10.2065 14.428L8.37967 15.0493C8.05371 15.1601 8.05305 15.3434 8.3782 15.4566L10.1941 16.0888C10.5192 16.202 10.8769 16.561 10.989 16.8866L11.6227 18.7288C11.7347 19.0544 11.9164 19.0538 12.0265 18.7276L12.6452 16.8933C12.7552 16.5671 13.1117 16.2089 13.4375 16.0974L15.293 15.4619C15.6187 15.3503 15.6183 15.1688 15.2922 15.0585L13.466 14.4408C13.1399 14.3305 12.7813 13.9739 12.6693 13.6484L12.0302 11.7922Z" fill="#CFCBFF"/>
<path d="M14.938 16.6774C14.9069 16.587 14.8563 16.5871 14.8256 16.6776L14.6521 17.1886C14.6214 17.2792 14.5222 17.3784 14.4317 17.4092L13.9244 17.5817C13.8339 17.6125 13.8338 17.6634 13.924 17.6948L14.4282 17.8703C14.5185 17.9017 14.6178 18.0014 14.6489 18.0918L14.8249 18.6033C14.8559 18.6937 14.9064 18.6935 14.937 18.6029L15.1087 18.0937C15.1393 18.0031 15.2383 17.9036 15.3287 17.8727L15.8439 17.6962C15.9343 17.6653 15.9342 17.6149 15.8437 17.5843L15.3367 17.4128C15.2461 17.3821 15.1465 17.2831 15.1154 17.1927L14.938 16.6774Z" fill="#DD93FF"/>
<path d="M14.938 16.6774C14.9069 16.587 14.8563 16.5871 14.8256 16.6776L14.6521 17.1886C14.6214 17.2792 14.5222 17.3784 14.4317 17.4092L13.9244 17.5817C13.8339 17.6125 13.8338 17.6634 13.924 17.6948L14.4282 17.8703C14.5185 17.9017 14.6178 18.0014 14.6489 18.0918L14.8249 18.6033C14.8559 18.6937 14.9064 18.6935 14.937 18.6029L15.1087 18.0937C15.1393 18.0031 15.2383 17.9036 15.3287 17.8727L15.8439 17.6962C15.9343 17.6653 15.9342 17.6149 15.8437 17.5843L15.3367 17.4128C15.2461 17.3821 15.1465 17.2831 15.1154 17.1927L14.938 16.6774Z" fill="#CFCBFF"/>
<path fill-rule="evenodd" clip-rule="evenodd" d="M1.5 15.1172C1.50021 17.0413 3.58352 18.2437 5.25 17.2822L7.21387 16.1475L8.9082 16.7373C8.96269 16.7563 9.01717 16.7803 9.07227 16.8066L6 18.5811C3.41677 20.072 0.207815 18.313 0.00976562 15.4024L0 15.1172V4.00587L0.00976562 3.72071C0.20141 0.904027 3.21281 -0.834553 5.74805 0.407234L6 0.541999L15.623 6.09766C18.2896 7.63726 18.2895 11.4857 15.623 13.0254L14.4844 13.6816C14.047 13.4467 13.6175 13.0117 13.4023 12.5752L14.873 11.7266C16.5396 10.7643 16.5397 8.35873 14.873 7.39649L5.25 1.84083C3.58345 0.87912 1.50007 2.08161 1.5 4.00587V15.1172Z" fill="#DD93FF"/>
<path fill-rule="evenodd" clip-rule="evenodd" d="M1.5 15.1172C1.50021 17.0413 3.58352 18.2437 5.25 17.2822L7.21387 16.1475L8.9082 16.7373C8.96269 16.7563 9.01717 16.7803 9.07227 16.8066L6 18.5811C3.41677 20.072 0.207815 18.313 0.00976562 15.4024L0 15.1172V4.00587L0.00976562 3.72071C0.20141 0.904027 3.21281 -0.834553 5.74805 0.407234L6 0.541999L15.623 6.09766C18.2896 7.63726 18.2895 11.4857 15.623 13.0254L14.4844 13.6816C14.047 13.4467 13.6175 13.0117 13.4023 12.5752L14.873 11.7266C16.5396 10.7643 16.5397 8.35873 14.873 7.39649L5.25 1.84083C3.58345 0.87912 1.50007 2.08161 1.5 4.00587V15.1172Z" fill="#CFCBFF"/>
</svg>
