<svg width="252" height="80" viewBox="0 0 252 80" fill="none" xmlns="http://www.w3.org/2000/svg">
<path d="M55.6655 17.3875C56.057 16.9818 56.7462 17.3813 56.5626 17.9144C55.9409 19.7196 54.9854 22.373 53.8247 25.2048C53.0833 27.0134 52.2646 28.7957 51.4274 30.5645C51.4133 30.5943 51.4001 30.6244 51.3867 30.6543C51.3715 30.6851 51.3562 30.7161 51.3418 30.7475C50.4198 32.6463 51.1092 34.9096 52.8734 35.9886C53.053 36.1123 53.2445 36.2235 53.4469 36.3216L65.5057 42.1608C67.3017 43.0305 67.0794 45.6977 65.1889 46.3362C55.1204 49.7357 45.5815 54.7106 38.1597 62.4053C37.7683 62.8109 37.0795 62.4121 37.2626 61.8792C37.8844 60.0743 38.8399 57.4212 40.0005 54.5897C40.7419 52.7811 41.5607 50.9988 42.3979 49.23C42.5129 48.9869 42.6018 48.7379 42.669 48.4871C43.2679 46.6363 42.4644 44.5866 40.713 43.6542C40.605 43.5898 40.4937 43.5288 40.3783 43.473L29.9088 38.4038L28.2721 37.6083C26.5278 36.7147 26.7625 34.0901 28.6364 33.4574C38.7049 30.0578 48.2437 25.0823 55.6655 17.3875Z" fill="url(#paint0_linear_7399_564)"/>
<mask id="mask0_7399_564" style="mask-type:alpha" maskUnits="userSpaceOnUse" x="27" y="17" width="40" height="46">
<path d="M55.6655 17.3875C56.057 16.9818 56.7462 17.3813 56.5626 17.9144C55.9409 19.7196 54.9854 22.373 53.8247 25.2048C53.0833 27.0134 52.2646 28.7957 51.4274 30.5645C51.4133 30.5943 51.4001 30.6244 51.3867 30.6543C51.3715 30.6851 51.3562 30.7161 51.3418 30.7475C50.4198 32.6463 51.1092 34.9096 52.8734 35.9886C53.053 36.1123 53.2445 36.2235 53.4469 36.3216L65.5057 42.1608C67.3017 43.0305 67.0794 45.6977 65.1889 46.3362C55.1204 49.7357 45.5815 54.7106 38.1597 62.4053C37.7683 62.8109 37.0795 62.4121 37.2626 61.8792C37.8844 60.0743 38.8399 57.4212 40.0005 54.5897C40.7419 52.7811 41.5607 50.9988 42.3979 49.23C42.5129 48.9869 42.6018 48.7379 42.669 48.4871C43.2679 46.6363 42.4644 44.5866 40.713 43.6542C40.605 43.5898 40.4937 43.5288 40.3783 43.473L29.9088 38.4038L28.2721 37.6083C26.5278 36.7147 26.7625 34.0901 28.6364 33.4574C38.7049 30.0578 48.2437 25.0823 55.6655 17.3875Z" fill="url(#paint1_linear_7399_564)"/>
</mask>
<g mask="url(#mask0_7399_564)">
<g filter="url(#filter0_f_7399_564)">
<path d="M54.109 34.8988C55.3906 33.6241 57.2807 33.0812 58.8901 33.904C63.1868 36.101 70.1435 40.5292 73.6083 43.1458L72.7778 44.0971C73.1876 45.4171 73.0193 47.0709 72.7192 48.3086C69.7705 48.7933 63.0005 50.2719 59.5105 52.3077C55.1479 54.8525 40.6074 64.5462 39.7585 65.2737C39.0798 65.8554 35.921 63.254 34.4264 61.8807C34.5265 61.7806 35.2879 61.0207 36.586 59.8469C37.5608 56.4447 40.0528 49.0686 41.7425 48.4309C43.8387 47.6397 46.2889 49.3595 43.9917 51.9512C43.1828 52.8638 42.0668 54.4319 40.9221 56.1592C45.854 52.2063 53.1452 47.1327 61.2251 44.0769C56.8245 42.5019 52.908 40.6101 52.7757 38.9378C52.5927 36.6237 53.13 35.8726 54.109 34.8988Z" fill="white" fill-opacity="0.15"/>
<path d="M55.2928 13.2721C55.962 12.6797 59.1625 15.2294 60.6792 16.5782C60.5458 16.716 59.2273 18.0761 57.0191 20.0469C56.5172 23.6895 55.1809 30.9003 53.6544 31.753C51.6982 32.8456 49.0208 31.5072 50.9094 28.6042C51.7235 27.3529 52.8479 25.0618 53.911 22.7069C48.4216 27.2114 40.1362 33.0273 31.0874 35.9234C34.7816 37.4314 38.9151 39.2995 41.6547 40.7817C43.2445 41.6418 43.8681 43.507 43.5436 45.2852C43.2957 46.6436 42.981 47.5119 40.9702 48.672C38.4497 50.1261 28.9329 42.5726 24.4896 38.614L24.8853 37.0703C22.054 36.5078 22.1142 32.9839 22.6124 30.7719C25.5528 30.2393 32.2979 28.6508 35.7543 26.5585C40.0748 23.943 54.4565 14.0129 55.2928 13.2721Z" fill="white" fill-opacity="0.15"/>
</g>
</g>
<path d="M95.4122 49.7245L103.416 31.3686H107.838L97.4632 55.1802H93.1086L82.7002 31.3686H87.4957L95.4122 49.7245Z" fill="white"/>
<path d="M119.698 55.1802H115.65V35.4505H119.698V55.1802Z" fill="white"/>
<path d="M147.641 55.1802H132.13C131.291 55.1802 130.52 54.9763 129.817 54.5682C129.137 54.1373 128.593 53.5814 128.184 52.9012C127.776 52.221 127.573 51.4611 127.572 50.6222V40.0084C127.572 39.1694 127.776 38.4097 128.184 37.7294C128.593 37.0491 129.137 36.5049 129.817 36.0967C130.52 35.6658 131.291 35.4505 132.13 35.4505H140.776V39.498H132.301C132.119 39.498 131.96 39.5664 131.824 39.7024C131.711 39.8157 131.654 39.963 131.654 40.1443V50.4853C131.654 50.6666 131.711 50.8254 131.824 50.9614C131.96 51.0748 132.119 51.1315 132.301 51.1315H142.948C143.129 51.1315 143.276 51.0748 143.389 50.9614C143.525 50.8253 143.594 50.6666 143.594 50.4853V43.2343H143.598V31.7773H143.594V28.9869H147.641V55.1802Z" fill="white"/>
<path d="M179.039 34.8042H160.67V55.1802H156.554V30.6881H179.039V34.8042Z" fill="white"/>
<path d="M201.512 35.4505C202.373 35.4505 203.145 35.6659 203.825 36.0967C204.505 36.5049 205.05 37.0492 205.458 37.7294C205.866 38.4097 206.071 39.1694 206.071 40.0084V55.1802H190.593C189.754 55.1802 188.983 54.9762 188.28 54.5682C187.6 54.1374 187.055 53.5813 186.647 52.9012C186.239 52.221 186.034 51.4611 186.034 50.6222V43.2739H199.198V46.9823H190.083V50.4853C190.083 50.6666 190.14 50.8254 190.253 50.9614C190.389 51.0748 190.548 51.1315 190.729 51.1315H202.022V40.1443C202.022 39.963 201.954 39.8157 201.818 39.7024C201.704 39.5665 201.557 39.498 201.376 39.498H186.034V35.4505H201.512Z" fill="white"/>
<path d="M217.942 35.4505H217.947V40.0897C217.946 40.1076 217.942 40.1257 217.942 40.1443V50.4853C217.942 50.6666 218.01 50.8254 218.146 50.9614C218.282 51.0747 218.429 51.1315 218.588 51.1315H229.269C229.428 51.1315 229.565 51.0748 229.678 50.9614C229.814 50.8254 229.881 50.6665 229.881 50.4853V40.1443C229.881 39.9631 229.814 39.8157 229.678 39.7024C229.565 39.5663 229.428 39.498 229.269 39.498H220.77V35.4505H229.405C230.222 35.4505 230.971 35.6658 231.651 36.0967C232.354 36.5048 232.909 37.0493 233.317 37.7294C233.725 38.4097 233.93 39.1694 233.93 40.0084V50.6222C233.93 51.4611 233.725 52.221 233.317 52.9012C232.909 53.5813 232.354 54.1374 231.651 54.5682C230.971 54.9764 230.222 55.1802 229.405 55.1802H213.894V28.9869H217.942V35.4505Z" fill="white"/>
<path d="M175.467 45.0093H163.494V40.859H175.467V45.0093Z" fill="white"/>
<path d="M121.132 29.8396C119.471 29.6664 117.924 28.2239 117.666 26.3723C117.407 28.2239 115.86 29.6664 114.199 29.8396C115.86 30.0129 117.407 31.4553 117.666 33.3069C117.924 31.4552 119.471 30.0128 121.132 29.8396Z" fill="#50DFFF"/>
<defs>
<filter id="filter0_f_7399_564" x="18.3726" y="9.20852" width="59.2116" height="60.1245" filterUnits="userSpaceOnUse" color-interpolation-filters="sRGB">
<feFlood flood-opacity="0" result="BackgroundImageFix"/>
<feBlend mode="normal" in="SourceGraphic" in2="BackgroundImageFix" result="shape"/>
<feGaussianBlur stdDeviation="1.9879" result="effect1_foregroundBlur_7399_564"/>
</filter>
<linearGradient id="paint0_linear_7399_564" x1="40.3615" y1="23.2874" x2="45.081" y2="61.9885" gradientUnits="userSpaceOnUse">
<stop offset="0.0373024" stop-color="#E34C9B"/>
<stop offset="0.311162" stop-color="#AC4FFF"/>
<stop offset="0.498332" stop-color="#7254FF"/>
<stop offset="0.730229" stop-color="#497CFF"/>
<stop offset="0.958877" stop-color="#3EDEFB"/>
</linearGradient>
<linearGradient id="paint1_linear_7399_564" x1="40.3615" y1="23.2874" x2="45.081" y2="61.9885" gradientUnits="userSpaceOnUse">
<stop offset="0.0373024" stop-color="#E34C9B"/>
<stop offset="0.311162" stop-color="#AC4FFF"/>
<stop offset="0.498332" stop-color="#7254FF"/>
<stop offset="0.730229" stop-color="#497CFF"/>
<stop offset="0.958877" stop-color="#3EDEFB"/>
</linearGradient>
</defs>
</svg>
