<svg width="252" height="81" viewBox="0 0 252 81" fill="none" xmlns="http://www.w3.org/2000/svg">
<rect x="0.474074" y="1.21443" width="251.199" height="79.3372" rx="11.772" fill="white" stroke="#B6B6B6" stroke-width="0.455961"/>
<rect x="16.7095" y="11.695" width="58.3759" height="58.3759" rx="9.34014" fill="white"/>
<path d="M54.6501 18.374C55.0416 17.9683 55.7308 18.3678 55.5472 18.9009C54.9255 20.7061 53.9701 23.3595 52.8093 26.1913C52.068 27.9999 51.2492 29.7822 50.412 31.551C50.3979 31.5808 50.3847 31.6109 50.3713 31.6408C50.3562 31.6716 50.3409 31.7026 50.3264 31.734C49.4044 33.6328 50.0938 35.8961 51.858 36.9751C52.0376 37.0988 52.2291 37.2101 52.4315 37.3081L64.4903 43.1473C66.2863 44.017 66.064 46.6842 64.1735 47.3227C54.105 50.7222 44.5661 55.6971 37.1443 63.3918C36.753 63.7974 36.0641 63.3987 36.2472 62.8657C36.869 61.0608 37.8245 58.4077 38.9851 55.5763C39.7265 53.7677 40.5453 51.9853 41.3825 50.2165C41.4976 49.9734 41.5864 49.7244 41.6536 49.4736C42.2525 47.6228 41.449 45.5731 39.6976 44.6408C39.5896 44.5764 39.4783 44.5153 39.363 44.4595L28.8934 39.3903L27.2567 38.5948C25.5124 37.7013 25.7471 35.0767 27.621 34.4439C37.6895 31.0443 47.2283 26.0688 54.6501 18.374Z" fill="url(#paint0_linear_7372_1239)"/>
<mask id="mask0_7372_1239" style="mask-type:alpha" maskUnits="userSpaceOnUse" x="26" y="18" width="40" height="46">
<path d="M54.6501 18.374C55.0416 17.9683 55.7308 18.3678 55.5472 18.9009C54.9255 20.7061 53.9701 23.3595 52.8093 26.1913C52.068 27.9999 51.2492 29.7822 50.412 31.551C50.3979 31.5808 50.3847 31.6109 50.3713 31.6408C50.3562 31.6716 50.3409 31.7026 50.3264 31.734C49.4044 33.6328 50.0938 35.8961 51.858 36.9751C52.0376 37.0988 52.2291 37.2101 52.4315 37.3081L64.4903 43.1473C66.2863 44.017 66.064 46.6842 64.1735 47.3227C54.105 50.7222 44.5661 55.6971 37.1443 63.3918C36.753 63.7974 36.0641 63.3987 36.2472 62.8657C36.869 61.0608 37.8245 58.4077 38.9851 55.5763C39.7265 53.7677 40.5453 51.9853 41.3825 50.2165C41.4976 49.9734 41.5864 49.7244 41.6536 49.4736C42.2525 47.6228 41.449 45.5731 39.6976 44.6408C39.5896 44.5764 39.4783 44.5153 39.363 44.4595L28.8934 39.3903L27.2567 38.5948C25.5124 37.7013 25.7471 35.0767 27.621 34.4439C37.6895 31.0443 47.2283 26.0688 54.6501 18.374Z" fill="url(#paint1_linear_7372_1239)"/>
</mask>
<g mask="url(#mask0_7372_1239)">
<g filter="url(#filter0_f_7372_1239)">
<path d="M53.0936 35.8853C54.3752 34.6106 56.2653 34.0677 57.8747 34.8906C62.1714 37.0875 69.1281 41.5157 72.593 44.1324L71.7625 45.0837C72.1722 46.4037 72.0039 48.0575 71.7038 49.2951C68.7551 49.7799 61.9851 51.2584 58.4952 53.2942C54.1326 55.8391 39.592 65.5328 38.7431 66.2603C38.0645 66.8419 34.9056 64.2406 33.4111 62.8672C33.5111 62.7672 34.2725 62.0073 35.5706 60.8335C36.5454 57.4312 39.0375 50.0552 40.7271 49.4174C42.8234 48.6262 45.2735 50.3461 42.9763 52.9378C42.1674 53.8503 41.0514 55.4185 39.9067 57.1458C44.8386 53.1929 52.1299 48.1193 60.2097 45.0635C55.8091 43.4885 51.8926 41.5967 51.7603 39.9244C51.5773 37.6103 52.1146 36.8591 53.0936 35.8853Z" fill="white" fill-opacity="0.15"/>
<path d="M54.2775 14.2587C54.9467 13.6663 58.1472 16.2159 59.6638 17.5648C59.5304 17.7026 58.2119 19.0627 56.0037 21.0335C55.5019 24.6761 54.1655 31.8868 52.639 32.7396C50.6828 33.8321 48.0054 32.4937 49.894 29.5908C50.7081 28.3395 51.8326 26.0484 52.8956 23.6935C47.4062 28.1979 39.1208 34.0139 30.072 36.9099C33.7662 38.4179 37.8997 40.2861 40.6393 41.7683C42.2291 42.6284 42.8527 44.4936 42.5282 46.2717C42.2803 47.6302 41.9656 48.4985 39.9548 49.6585C37.4343 51.1127 27.9175 43.5591 23.4743 39.6006L23.8699 38.0569C21.0387 37.4943 21.0988 33.9704 21.597 31.7585C24.5374 31.2258 31.2825 29.6374 34.7389 27.5451C39.0594 24.9296 53.4411 14.9995 54.2775 14.2587Z" fill="white" fill-opacity="0.15"/>
</g>
</g>
<path d="M94.3973 50.711L102.402 32.3551H106.824L96.4483 56.1667H92.0937L81.6853 32.3551H86.4808L94.3973 50.711Z" fill="black"/>
<path d="M118.683 56.1667H114.635V36.437H118.683V56.1667Z" fill="black"/>
<path d="M146.626 56.1667H131.116C130.277 56.1667 129.505 55.9628 128.802 55.5547C128.122 55.1239 127.578 54.5679 127.17 53.8877C126.761 53.2075 126.558 52.4476 126.558 51.6087V40.9949C126.558 40.1559 126.761 39.3962 127.17 38.7159C127.578 38.0356 128.122 37.4914 128.802 37.0832C129.505 36.6523 130.276 36.437 131.116 36.437H139.761V40.4846H131.286C131.104 40.4846 130.946 40.5529 130.81 40.6889C130.696 40.8022 130.639 40.9495 130.639 41.1308V51.4718C130.639 51.6531 130.696 51.8119 130.81 51.9479C130.946 52.0613 131.104 52.118 131.286 52.118H141.933C142.114 52.118 142.261 52.0613 142.374 51.9479C142.511 51.8118 142.579 51.6532 142.579 51.4718V44.2208H142.583V32.7639H142.579V29.9734H146.626V56.1667Z" fill="black"/>
<path d="M178.024 35.7907H159.655V56.1667H155.539V31.6747H178.024V35.7907Z" fill="black"/>
<path d="M200.497 36.437C201.359 36.437 202.13 36.6524 202.81 37.0832C203.49 37.4914 204.035 38.0357 204.443 38.7159C204.851 39.3962 205.056 40.1559 205.056 40.9949V56.1667H189.578C188.739 56.1667 187.968 55.9627 187.265 55.5547C186.585 55.1239 186.04 54.5679 185.632 53.8877C185.224 53.2075 185.019 52.4476 185.019 51.6087V44.2604H198.183V47.9688H189.068V51.4718C189.068 51.6531 189.125 51.8119 189.238 51.9479C189.374 52.0613 189.533 52.118 189.714 52.118H201.007V41.1308C201.007 40.9495 200.939 40.8022 200.803 40.6889C200.69 40.553 200.542 40.4846 200.361 40.4846H185.019V36.437H200.497Z" fill="black"/>
<path d="M216.927 36.437H216.932V41.0762C216.931 41.0941 216.927 41.1122 216.927 41.1308V51.4718C216.927 51.6531 216.995 51.8119 217.131 51.9479C217.267 52.0613 217.414 52.118 217.573 52.118H228.254C228.413 52.118 228.55 52.0613 228.663 51.9479C228.799 51.8119 228.866 51.653 228.866 51.4718V41.1308C228.866 40.9496 228.799 40.8022 228.663 40.6889C228.55 40.5528 228.413 40.4846 228.254 40.4846H219.755V36.437H228.39C229.207 36.437 229.956 36.6523 230.636 37.0832C231.339 37.4913 231.894 38.0358 232.302 38.7159C232.71 39.3962 232.915 40.1559 232.915 40.9949V51.6087C232.915 52.4476 232.71 53.2075 232.302 53.8877C231.894 54.5678 231.339 55.1239 230.636 55.5547C229.956 55.9629 229.207 56.1667 228.39 56.1667H212.879V29.9734H216.927V36.437Z" fill="black"/>
<path d="M174.452 45.9958H162.479V41.8455H174.452V45.9958Z" fill="black"/>
<path d="M120.116 30.8261C118.456 30.6529 116.909 29.2104 116.65 27.3588C116.392 29.2104 114.845 30.6529 113.184 30.8261C114.845 30.9994 116.392 32.4418 116.65 34.2934C116.909 32.4418 118.456 30.9993 120.116 30.8261Z" fill="#50DFFF"/>
<defs>
<filter id="filter0_f_7372_1239" x="17.3572" y="10.1951" width="59.2116" height="60.1244" filterUnits="userSpaceOnUse" color-interpolation-filters="sRGB">
<feFlood flood-opacity="0" result="BackgroundImageFix"/>
<feBlend mode="normal" in="SourceGraphic" in2="BackgroundImageFix" result="shape"/>
<feGaussianBlur stdDeviation="1.9879" result="effect1_foregroundBlur_7372_1239"/>
</filter>
<linearGradient id="paint0_linear_7372_1239" x1="39.3462" y1="24.274" x2="44.0656" y2="62.975" gradientUnits="userSpaceOnUse">
<stop offset="0.0373024" stop-color="#E34C9B"/>
<stop offset="0.311162" stop-color="#AC4FFF"/>
<stop offset="0.498332" stop-color="#7254FF"/>
<stop offset="0.730229" stop-color="#497CFF"/>
<stop offset="0.958877" stop-color="#3EDEFB"/>
</linearGradient>
<linearGradient id="paint1_linear_7372_1239" x1="39.3462" y1="24.274" x2="44.0656" y2="62.975" gradientUnits="userSpaceOnUse">
<stop offset="0.0373024" stop-color="#E34C9B"/>
<stop offset="0.311162" stop-color="#AC4FFF"/>
<stop offset="0.498332" stop-color="#7254FF"/>
<stop offset="0.730229" stop-color="#497CFF"/>
<stop offset="0.958877" stop-color="#3EDEFB"/>
</linearGradient>
</defs>
</svg>
