<svg width="253" height="80" viewBox="0 0 253 80" fill="none" xmlns="http://www.w3.org/2000/svg">
<rect x="0.854004" y="0.193359" width="251.655" height="79.7931" rx="12" fill="black"/>
<rect x="18.5786" y="10.9019" width="58.3759" height="58.3759" rx="9.34014" fill="black"/>
<path d="M56.5195 17.5809C56.911 17.1753 57.6002 17.5747 57.4166 18.1079C56.7949 19.913 55.8394 22.5664 54.6787 25.3982C53.9373 27.2068 53.1186 28.9891 52.2814 30.7579C52.2673 30.7877 52.2541 30.8178 52.2407 30.8477C52.2255 30.8785 52.2103 30.9095 52.1958 30.9409C51.2738 32.8397 51.9632 35.103 53.7274 36.1821C53.907 36.3057 54.0985 36.417 54.3009 36.515L66.3597 42.3542C68.1557 43.224 67.9334 45.8911 66.0429 46.5297C55.9744 49.9291 46.4355 54.904 39.0137 62.5987C38.6223 63.0043 37.9335 62.6056 38.1166 62.0726C38.7384 60.2677 39.6939 57.6146 40.8545 54.7832C41.5959 52.9746 42.4147 51.1922 43.2519 49.4234C43.3669 49.1803 43.4558 48.9313 43.523 48.6805C44.1219 46.8298 43.3184 44.78 41.567 43.8477C41.459 43.7833 41.3477 43.7222 41.2323 43.6664L30.7628 38.5972L29.1261 37.8017C27.3818 36.9082 27.6165 34.2836 29.4904 33.6509C39.5589 30.2512 49.0977 25.2757 56.5195 17.5809Z" fill="url(#paint0_linear_7372_1227)"/>
<mask id="mask0_7372_1227" style="mask-type:alpha" maskUnits="userSpaceOnUse" x="27" y="17" width="41" height="46">
<path d="M56.5195 17.5809C56.911 17.1753 57.6002 17.5747 57.4166 18.1079C56.7949 19.913 55.8394 22.5664 54.6787 25.3982C53.9373 27.2068 53.1186 28.9891 52.2814 30.7579C52.2673 30.7877 52.2541 30.8178 52.2407 30.8477C52.2255 30.8785 52.2103 30.9095 52.1958 30.9409C51.2738 32.8397 51.9632 35.103 53.7274 36.1821C53.907 36.3057 54.0985 36.417 54.3009 36.515L66.3597 42.3542C68.1557 43.224 67.9334 45.8911 66.0429 46.5297C55.9744 49.9291 46.4355 54.904 39.0137 62.5987C38.6223 63.0043 37.9335 62.6056 38.1166 62.0726C38.7384 60.2677 39.6939 57.6146 40.8545 54.7832C41.5959 52.9746 42.4147 51.1922 43.2519 49.4234C43.3669 49.1803 43.4558 48.9313 43.523 48.6805C44.1219 46.8298 43.3184 44.78 41.567 43.8477C41.459 43.7833 41.3477 43.7222 41.2323 43.6664L30.7628 38.5972L29.1261 37.8017C27.3818 36.9082 27.6165 34.2836 29.4904 33.6509C39.5589 30.2512 49.0977 25.2757 56.5195 17.5809Z" fill="url(#paint1_linear_7372_1227)"/>
</mask>
<g mask="url(#mask0_7372_1227)">
<g filter="url(#filter0_f_7372_1227)">
<path d="M54.963 35.0922C56.2446 33.8175 58.1347 33.2747 59.7441 34.0975C64.0408 36.2945 70.9975 40.7227 74.4623 43.3393L73.6319 44.2906C74.0416 45.6106 73.8733 47.2644 73.5732 48.502C70.6245 48.9868 63.8545 50.4653 60.3645 52.5011C56.002 55.046 41.4614 64.7397 40.6125 65.4672C39.9339 66.0488 36.775 63.4475 35.2805 62.0741C35.3805 61.9741 36.1419 61.2142 37.44 60.0404C38.4148 56.6381 40.9068 49.2621 42.5965 48.6243C44.6927 47.8331 47.1429 49.553 44.8457 52.1447C44.0368 53.0573 42.9208 54.6254 41.7761 56.3527C46.708 52.3998 53.9992 47.3262 62.0791 44.2704C57.6785 42.6954 53.762 40.8036 53.6297 39.1313C53.4467 36.8172 53.984 36.0661 54.963 35.0922Z" fill="white" fill-opacity="0.15"/>
<path d="M56.1468 13.4656C56.816 12.8732 60.0165 15.4229 61.5332 16.7717C61.3998 16.9095 60.0813 18.2696 57.8731 20.2404C57.3712 23.883 56.0349 31.0937 54.5084 31.9465C52.5522 33.0391 49.8748 31.7006 51.7634 28.7977C52.5775 27.5464 53.7019 25.2553 54.765 22.9004C49.2756 27.4049 40.9902 33.2208 31.9414 36.1169C35.6356 37.6248 39.7691 39.493 42.5087 40.9752C44.0985 41.8353 44.7221 43.7005 44.3976 45.4786C44.1497 46.8371 43.835 47.7054 41.8242 48.8655C39.3037 50.3196 29.7869 42.7661 25.3436 38.8075L25.7393 37.2638C22.908 36.7012 22.9682 33.1773 23.4664 30.9654C26.4068 30.4327 33.1519 28.8443 36.6083 26.752C40.9288 24.1365 55.3105 14.2064 56.1468 13.4656Z" fill="white" fill-opacity="0.15"/>
</g>
</g>
<path d="M96.2662 49.918L104.27 31.5621H108.692L98.3172 55.3736H93.9626L83.5542 31.5621H88.3497L96.2662 49.918Z" fill="white"/>
<path d="M120.552 55.3736H116.504V35.6439H120.552V55.3736Z" fill="white"/>
<path d="M148.495 55.3736H132.984C132.145 55.3736 131.374 55.1697 130.671 54.7616C129.991 54.3308 129.447 53.7749 129.038 53.0947C128.63 52.4145 128.427 51.6546 128.426 50.8157V40.2019C128.426 39.3629 128.63 38.6032 129.038 37.9229C129.447 37.2426 129.991 36.6984 130.671 36.2902C131.374 35.8593 132.145 35.6439 132.984 35.6439H141.63V39.6915H133.155C132.973 39.6915 132.814 39.7599 132.678 39.8959C132.565 40.0092 132.508 40.1565 132.508 40.3378V50.6787C132.508 50.8601 132.565 51.0188 132.678 51.1549C132.814 51.2683 132.973 51.325 133.155 51.325H143.802C143.983 51.325 144.13 51.2683 144.243 51.1549C144.379 51.0188 144.448 50.8601 144.448 50.6787V43.4278H144.452V31.9708H144.448V29.1804H148.495V55.3736Z" fill="white"/>
<path d="M179.893 34.9977H161.524V55.3736H157.408V30.8816H179.893V34.9977Z" fill="white"/>
<path d="M202.366 35.6439C203.227 35.6439 203.999 35.8594 204.679 36.2902C205.359 36.6984 205.904 37.2426 206.312 37.9229C206.72 38.6032 206.925 39.3629 206.925 40.2019V55.3736H191.447C190.608 55.3736 189.837 55.1697 189.134 54.7616C188.454 54.3308 187.909 53.7748 187.501 53.0947C187.093 52.4145 186.888 51.6546 186.888 50.8157V43.4673H200.052V47.1758H190.937V50.6787C190.937 50.8601 190.994 51.0188 191.107 51.1549C191.243 51.2683 191.402 51.325 191.583 51.325H202.876V40.3378C202.876 40.1565 202.808 40.0092 202.672 39.8959C202.558 39.76 202.411 39.6915 202.23 39.6915H186.888V35.6439H202.366Z" fill="white"/>
<path d="M218.796 35.6439H218.801V40.2832C218.8 40.3011 218.796 40.3191 218.796 40.3378V50.6787C218.796 50.8601 218.864 51.0188 219 51.1549C219.136 51.2682 219.283 51.325 219.442 51.325H230.123C230.282 51.325 230.419 51.2683 230.532 51.1549C230.668 51.0189 230.735 50.86 230.735 50.6787V40.3378C230.735 40.1566 230.668 40.0092 230.532 39.8959C230.419 39.7598 230.282 39.6915 230.123 39.6915H221.624V35.6439H230.259C231.076 35.6439 231.825 35.8593 232.505 36.2902C233.208 36.6983 233.763 37.2428 234.171 37.9229C234.579 38.6032 234.784 39.3629 234.784 40.2019V50.8157C234.784 51.6546 234.579 52.4145 234.171 53.0947C233.763 53.7748 233.208 54.3309 232.505 54.7616C231.825 55.1698 231.076 55.3736 230.259 55.3736H214.748V29.1804H218.796V35.6439Z" fill="white"/>
<path d="M176.321 45.2028H164.348V41.0525H176.321V45.2028Z" fill="white"/>
<path d="M121.986 30.0331C120.325 29.8599 118.778 28.4174 118.52 26.5658C118.261 28.4174 116.714 29.8598 115.053 30.0331C116.714 30.2063 118.261 31.6488 118.52 33.5004C118.778 31.6487 120.325 30.2063 121.986 30.0331Z" fill="#50DFFF"/>
<defs>
<filter id="filter0_f_7372_1227" x="19.2266" y="9.402" width="59.2116" height="60.1244" filterUnits="userSpaceOnUse" color-interpolation-filters="sRGB">
<feFlood flood-opacity="0" result="BackgroundImageFix"/>
<feBlend mode="normal" in="SourceGraphic" in2="BackgroundImageFix" result="shape"/>
<feGaussianBlur stdDeviation="1.9879" result="effect1_foregroundBlur_7372_1227"/>
</filter>
<linearGradient id="paint0_linear_7372_1227" x1="41.2155" y1="23.4809" x2="45.935" y2="62.1819" gradientUnits="userSpaceOnUse">
<stop offset="0.0373024" stop-color="#E34C9B"/>
<stop offset="0.311162" stop-color="#AC4FFF"/>
<stop offset="0.498332" stop-color="#7254FF"/>
<stop offset="0.730229" stop-color="#497CFF"/>
<stop offset="0.958877" stop-color="#3EDEFB"/>
</linearGradient>
<linearGradient id="paint1_linear_7372_1227" x1="41.2155" y1="23.4809" x2="45.935" y2="62.1819" gradientUnits="userSpaceOnUse">
<stop offset="0.0373024" stop-color="#E34C9B"/>
<stop offset="0.311162" stop-color="#AC4FFF"/>
<stop offset="0.498332" stop-color="#7254FF"/>
<stop offset="0.730229" stop-color="#497CFF"/>
<stop offset="0.958877" stop-color="#3EDEFB"/>
</linearGradient>
</defs>
</svg>
