<svg width="48" height="48" viewBox="0 0 48 48" fill="none" xmlns="http://www.w3.org/2000/svg">
<path d="M18.8227 6.6815C19.6784 6.45222 20.9704 6.27776 22.0257 6.16223C22.4749 6.11306 22.6994 6.08847 23.1804 6.07457C23.4791 6.06593 24.1637 6.08273 24.4617 6.10601C24.9414 6.14348 25.159 6.17819 25.5944 6.2476C27.5277 6.55584 30.536 7.14474 31.9991 7.99997M31.0795 21.5146L29.8617 24.9167C29.3291 26.4045 29.0628 27.1485 28.6357 27.7781C28.2572 28.3362 27.7873 28.8264 27.2458 29.2283C26.6348 29.6817 25.9029 29.9793 24.4389 30.5744L19.8626 32.435C18.9966 32.7871 18.5635 32.9632 18.2443 32.8816C17.966 32.8104 17.7318 32.623 17.6013 32.3671C17.4516 32.0737 17.5283 31.6125 17.6817 30.6903L18.4033 26.3522C18.6935 24.6077 18.8386 23.7354 19.2011 22.9735C19.5223 22.2988 19.9666 21.69 20.5113 21.1785C21.1263 20.6009 21.9129 20.1968 23.486 19.3886L36.0715 12.9222C36.8095 12.543 37.1786 12.3534 37.5966 12.3276C37.9335 12.3067 38.3609 12.3994 38.659 12.5578C39.0288 12.7545 39.2508 13.0351 39.6948 13.5964C41.3357 15.6707 42.5896 18.1065 43.3176 20.8236C46.1765 31.493 39.8448 42.4597 29.1755 45.3185C18.5062 48.1774 7.53942 41.8457 4.68059 31.1764C3.9427 28.4226 3.81708 25.6489 4.22028 23" stroke="#E5E5E5" stroke-width="3" stroke-linecap="round"/>
<path d="M9.94124 6.29009C9.95443 6.22557 10.0466 6.22557 10.0598 6.29009C10.7443 9.63906 13.3615 12.2562 16.7105 12.9408C16.775 12.9539 16.775 13.0461 16.7105 13.0593C13.3615 13.7438 10.7443 16.361 10.0598 19.71C10.0466 19.7745 9.95443 19.7745 9.94124 19.71C9.25674 16.361 6.63955 13.7438 3.29058 13.0593C3.22606 13.0461 3.22606 12.9539 3.29058 12.9408C6.63955 12.2562 9.25674 9.63906 9.94124 6.29009Z" stroke="#E5E5E5" stroke-width="3"/>
</svg>
