<svg width="21" height="21" viewBox="0 0 21 21" fill="none" xmlns="http://www.w3.org/2000/svg">
<path d="M20.2376 6.24463C19.8826 6.24463 19.5902 6.53703 19.5902 6.89207V10.3485C19.444 10.547 19.2874 10.7663 19.1307 10.9855C18.1178 12.4057 16.8647 14.1705 14.7031 14.1705C13.4604 14.1705 12.4579 13.9617 11.4032 13.7319C10.2024 13.4813 8.95969 13.2098 7.21579 13.1994H7.17402C4.8871 13.1994 2.6524 14.6613 1.30532 16.0397V2.66285C1.30532 1.91098 1.92143 1.29487 2.67329 1.29487H13.993C14.348 1.29487 14.6404 1.00248 14.6404 0.647437C14.6404 0.292391 14.348 0 13.993 0H2.66285C1.19045 0 0 1.19045 0 2.66285V18.2327C0 19.6946 1.19045 20.8955 2.66285 20.8955H18.2327C19.6946 20.8955 20.8955 19.7051 20.8955 18.2327V6.89207C20.8851 6.53703 20.5927 6.24463 20.2376 6.24463ZM18.2222 19.5902H2.66285C1.91098 19.5902 1.29487 18.9741 1.29487 18.2222V18.1178L1.3262 18.1282C1.817 17.0735 4.4694 14.5047 7.16358 14.5047H7.1949C8.8135 14.5151 9.98306 14.7657 11.1317 15.0059C12.2595 15.2461 13.3142 15.4654 14.7031 15.4654C17.0735 15.4654 18.5251 13.9617 19.5902 12.5519V18.2222C19.5902 18.9741 18.9741 19.5902 18.2222 19.5902ZM3.76975 7.18446C3.76975 9.1581 5.3779 10.7663 7.35154 10.7663C9.32518 10.7663 10.9333 9.1581 10.9333 7.18446C10.9333 5.21082 9.33562 3.59223 7.35154 3.59223C5.3779 3.59223 3.76975 5.20038 3.76975 7.18446ZM9.63846 7.18446C9.63846 8.44801 8.61509 9.47138 7.35154 9.47138C6.088 9.47138 5.06463 8.44801 5.06463 7.18446C5.06463 5.92092 6.088 4.89755 7.35154 4.89755C8.61509 4.89755 9.63846 5.92092 9.63846 7.18446ZM16.4052 3.09099V0.647437C16.4052 0.292391 16.6976 0 17.0527 0C17.4077 0 17.7001 0.292391 17.7001 0.647437V3.09099H20.1436C20.4987 3.09099 20.7911 3.38338 20.7911 3.73843C20.7911 4.09347 20.4987 4.38586 20.1436 4.38586H17.7001V6.82942C17.7001 7.18446 17.4077 7.47685 17.0527 7.47685C16.6976 7.47685 16.4052 7.18446 16.4052 6.82942V4.38586H13.9617C13.6066 4.38586 13.3142 4.09347 13.3142 3.73843C13.3142 3.38338 13.6066 3.09099 13.9617 3.09099H16.4052Z" fill="#CFCBFF"/>
</svg>
