<svg width="48" height="48" viewBox="0 0 48 48" fill="none" xmlns="http://www.w3.org/2000/svg">
<path d="M24 6H18.8C14.3196 6 12.0794 6 10.3681 6.87195C8.86278 7.63893 7.63893 8.86278 6.87195 10.3681C6 12.0794 6 14.3196 6 18.8V29.2C6 33.6804 6 35.9206 6.87195 37.6319C7.63893 39.1372 8.86278 40.3611 10.3681 41.1281C12.0794 42 14.3196 42 18.8 42H30.6675C33.7695 42 35.3205 42 36.5709 41.5756C38.9265 40.7762 40.7762 38.9265 41.5756 36.5709C42 35.3205 42 33.7695 42 30.6675C42 28.7134 42 27.7363 41.7097 27.1254C41.1588 25.9657 39.9309 25.2852 38.6555 25.4326C37.9836 25.5103 37.1551 26.0281 35.498 27.0638L29.7778 30.6389C27.5181 32.0512 24.6106 31.8711 22.5424 30.1907C19.9887 28.1158 16.262 28.3828 14.0302 30.8006L12 33" stroke="#E5E5E5" stroke-width="3" stroke-linecap="round"/>
<path d="M18 18V18.1" stroke="#E5E5E5" stroke-width="4" stroke-linecap="round"/>
<path d="M35.1815 6.04839C35.1947 5.98387 35.2869 5.98387 35.3 6.04839C35.9845 9.39736 38.6017 12.0145 41.9507 12.6991C42.0152 12.7122 42.0152 12.8044 41.9507 12.8176C38.6017 13.5021 35.9845 16.1193 35.3 19.4683C35.2869 19.5328 35.1947 19.5328 35.1815 19.4683C34.497 16.1193 31.8798 13.5021 28.5308 12.8176C28.4663 12.8044 28.4663 12.7122 28.5308 12.6991C31.8798 12.0145 34.497 9.39736 35.1815 6.04839Z" stroke="#E5E5E5" stroke-width="3"/>
</svg>
