<svg width="48" height="48" viewBox="0 0 48 48" fill="none" xmlns="http://www.w3.org/2000/svg">
<path d="M24 6H18.8C14.3196 6 12.0794 6 10.3681 6.87195C8.86278 7.63893 7.63893 8.86278 6.87195 10.3681C6 12.0794 6 14.3196 6 18.8V29.2C6 33.6804 6 35.9206 6.87195 37.6319C7.63893 39.1372 8.86278 40.3611 10.3681 41.1281C12.0794 42 14.3196 42 18.8 42H30.6675C33.7695 42 35.3205 42 36.5709 41.5756C38.9265 40.7762 40.7762 38.9265 41.5756 36.5709C42 35.3205 42 33.7695 42 30.6675C42 28.7134 42 27.7363 41.7097 27.1254C41.1588 25.9657 39.9309 25.2852 38.6555 25.4326C37.9836 25.5103 37.1551 26.0281 35.498 27.0638L29.7778 30.6389C27.5181 32.0512 24.6106 31.8711 22.5424 30.1907C19.9887 28.1158 16.262 28.3828 14.0302 30.8006L12 33" stroke="#E5E5E5" stroke-width="3" stroke-linecap="round"/>
<path d="M18 18V18.1" stroke="#E5E5E5" stroke-width="4" stroke-linecap="round"/>
<path d="M39.8633 14.631C41.034 13.8565 41.6193 13.4693 41.8537 12.9065C42.0484 12.4389 42.0484 11.8364 41.8537 11.3689C41.6193 10.806 41.034 10.4188 39.8633 9.64435C39.0431 9.10178 38.1936 8.56344 37.4473 8.13766C36.8255 7.78294 36.0928 7.40226 35.357 7.03662C34.113 6.41843 33.4911 6.10934 32.8888 6.18709C32.3896 6.25154 31.8675 6.55147 31.5603 6.95025C31.1898 7.43136 31.1436 8.12315 31.0511 9.50673C30.9903 10.4168 30.9473 11.3419 30.9473 12.1377C30.9473 12.9334 30.9903 13.8585 31.0511 14.7686C31.1436 16.1522 31.1898 16.844 31.5603 17.3251C31.8675 17.7239 32.3896 18.0238 32.8888 18.0883C33.4911 18.166 34.1131 17.8569 35.357 17.2387C36.0928 16.8731 36.8255 16.4924 37.4473 16.1377C38.1936 15.7119 39.0431 15.1736 39.8633 14.631Z" stroke="#E5E5E5" stroke-width="3" stroke-linecap="round"/>
</svg>
