<svg width="48" height="48" viewBox="0 0 48 48" fill="none" xmlns="http://www.w3.org/2000/svg">
<path d="M18 38H10C7.79086 38 6 36.2091 6 34V14C6 11.7909 7.79086 10 10 10L17.3431 10C18.404 10 19.4214 10.4214 20.1716 11.1716L23 14H38C40.2091 14 42 15.7909 42 18M26 38C26 34.6863 28.6863 32 32 32H36C39.3137 32 42 34.6863 42 38M34 32C31.7909 32 30 30.2091 30 28V26C30 23.7909 31.7909 22 34 22C36.2091 22 38 23.7909 38 26V28C38 30.2091 36.2091 32 34 32Z" stroke="#E5E5E5" stroke-width="3" stroke-linecap="round" stroke-linejoin="round"/>
</svg>
