<svg width="48" height="48" viewBox="0 0 48 48" fill="none" xmlns="http://www.w3.org/2000/svg">
<path d="M23.376 22.4023C23.7999 22.4024 24.2071 22.5714 24.5068 22.8711C24.8064 23.1708 24.9745 23.5772 24.9746 24.001C24.9746 24.425 24.8066 24.832 24.5068 25.1318C24.2071 25.4315 23.7999 25.6005 23.376 25.6006C21.509 25.6011 20.0001 27.1097 20 28.9736V37.6777C20 39.5449 21.5089 41.0542 23.376 41.0547H39.541C41.4052 41.0546 42.918 39.5451 42.918 37.6777V28.9736C42.9179 27.6722 42.1819 26.5374 41.0947 25.9746C40.7184 25.7795 40.4349 25.4421 40.3066 25.0381C40.1785 24.6342 40.2154 24.1956 40.4102 23.8193C40.6051 23.4429 40.9427 23.1587 41.3467 23.0303C41.7505 22.9021 42.1891 22.9401 42.5654 23.1348C43.6353 23.6892 44.5332 24.527 45.1592 25.5566C45.7851 26.5864 46.1155 27.7686 46.1152 28.9736V37.6777C46.1152 41.3103 43.1735 44.2528 39.541 44.2529H23.376C22.5129 44.2532 21.6578 44.083 20.8604 43.7529C20.0627 43.4227 19.337 42.9385 18.7266 42.3281C18.1161 41.7176 17.632 40.9921 17.3018 40.1943C16.9716 39.3965 16.8013 38.5412 16.8018 37.6777V28.9736C16.8018 25.3446 19.7438 22.4028 23.376 22.4023ZM8.50684 33.3457C8.75944 32.5847 10.0195 32.5848 10.2754 33.3457L11.0586 35.6992L13.415 36.4854L13.4121 36.4824C13.5978 36.5447 13.7598 36.6642 13.874 36.8232C13.9882 36.9823 14.0491 37.1734 14.0488 37.3691C14.0485 37.565 13.9868 37.7563 13.8721 37.915C13.7573 38.0736 13.595 38.1923 13.4092 38.2539L11.0586 39.0371L10.2725 41.3945C10.2106 41.5795 10.0918 41.7405 9.93359 41.8545C9.77532 41.9684 9.58464 42.0302 9.38965 42.0303C9.19466 42.0302 9.00394 41.9684 8.8457 41.8545C8.68754 41.7405 8.56867 41.5794 8.50684 41.3945L7.7207 39.0371L5.36719 38.2539C5.18149 38.1919 5.01877 38.0729 4.9043 37.9141C4.78997 37.7552 4.72852 37.5639 4.72852 37.3682C4.72855 37.1724 4.7899 36.9811 4.9043 36.8223C5.01877 36.6634 5.18149 36.5445 5.36719 36.4824L7.7207 35.6992L8.50684 33.3457ZM29.2529 28.3564C29.5181 28.3602 29.7784 28.4348 30.0059 28.5713L35.7178 32.0156C35.9393 32.1489 36.1227 32.3375 36.25 32.5625C36.3774 32.7877 36.4443 33.042 36.4443 33.3008C36.4443 33.5595 36.3774 33.8138 36.25 34.0391C36.1227 34.264 35.9393 34.4527 35.7178 34.5859L30.0059 38.0303C29.9467 38.0661 29.8844 38.0969 29.8213 38.124C29.791 38.1371 29.7591 38.1463 29.7285 38.1572C29.6977 38.1681 29.6672 38.1806 29.6357 38.1895C29.5817 38.2048 29.527 38.2166 29.4727 38.2256C29.4643 38.227 29.4556 38.2292 29.4473 38.2305C29.3913 38.2387 29.335 38.2424 29.2793 38.2441C29.2703 38.2445 29.2609 38.2469 29.252 38.2471C29.2505 38.2469 29.2485 38.2461 29.2471 38.2461C29.2076 38.2464 29.168 38.243 29.1289 38.2402C29.0991 38.2383 29.0687 38.2382 29.0391 38.2344C29.0271 38.2327 29.0149 38.2294 29.0029 38.2275C28.8244 38.2002 28.6507 38.1431 28.4922 38.0537C28.3576 37.9777 28.2372 37.88 28.1328 37.7676C27.8868 37.5064 27.7286 37.1542 27.7285 36.7451V29.8535C27.7296 29.5882 27.8012 29.3275 27.9355 29.0986C28.0362 28.9273 28.1695 28.7779 28.3271 28.6592C28.3802 28.6191 28.4368 28.5827 28.4951 28.5498C28.5916 28.4955 28.6946 28.4546 28.7998 28.4229C28.946 28.379 29.099 28.3543 29.2529 28.3564ZM5.96777 25.8662C6.46252 25.8662 6.93722 26.0633 7.28711 26.4131C7.63695 26.763 7.83398 27.2376 7.83398 27.7324C7.83388 28.2271 7.63694 28.7019 7.28711 29.0518C6.93724 29.4014 6.4624 29.5977 5.96777 29.5977C5.4732 29.5975 4.9982 29.4015 4.64844 29.0518C4.29876 28.702 4.10166 28.227 4.10156 27.7324C4.10156 27.2378 4.29883 26.763 4.64844 26.4131C4.99821 26.0633 5.47314 25.8664 5.96777 25.8662ZM15.9199 3.74707C16.1298 3.74708 16.3374 3.78887 16.5312 3.86914C16.7253 3.94948 16.9023 4.06637 17.0508 4.21484C17.1993 4.36331 17.3171 4.54038 17.3975 4.73438C17.4777 4.92817 17.5185 5.13596 17.5186 5.3457C17.5186 5.55568 17.4778 5.76401 17.3975 5.95801C17.3171 6.15191 17.1992 6.32814 17.0508 6.47656C16.9023 6.62503 16.7253 6.74291 16.5312 6.82324C16.3374 6.90346 16.1297 6.94433 15.9199 6.94434H11.2959V20.2725C11.2958 20.6965 11.127 21.1035 10.8271 21.4033C10.5273 21.703 10.1202 21.8711 9.69629 21.8711C9.27266 21.8709 8.86604 21.7028 8.56641 21.4033C8.26672 21.1036 8.09773 20.6963 8.09766 20.2725V6.94434H3.47754C3.0535 6.94434 2.64652 6.77641 2.34668 6.47656C2.04684 6.17672 1.87891 5.76974 1.87891 5.3457H1.88184C1.88189 4.92193 2.05007 4.51557 2.34961 4.21582C2.64944 3.91599 3.05644 3.74708 3.48047 3.74707H15.9199ZM26.4854 6.23535C28.5579 6.23536 30.5461 7.05894 32.0117 8.52441C33.4771 9.98993 34.3007 11.9774 34.3008 14.0498V15.3242L35.2178 14.2549C35.3541 14.0954 35.521 13.9643 35.708 13.8691C35.895 13.7741 36.0995 13.7166 36.3086 13.7002C36.5177 13.6839 36.7283 13.7086 36.9277 13.7734C37.1273 13.8384 37.3122 13.9427 37.4717 14.0791C37.6312 14.2155 37.7622 14.3823 37.8574 14.5693C37.9526 14.7565 38.01 14.9606 38.0264 15.1699C38.0427 15.3791 38.0181 15.5895 37.9531 15.7891C37.8881 15.9887 37.7839 16.1735 37.6475 16.333L33.916 20.6885C33.766 20.8638 33.5797 21.005 33.3701 21.1016C33.1605 21.198 32.9319 21.248 32.7012 21.248C32.4705 21.248 32.2418 21.1981 32.0322 21.1016C31.8226 21.0049 31.6354 20.8639 31.4854 20.6885L27.7607 16.3369C27.4849 16.0152 27.3476 15.5964 27.3799 15.1738C27.4123 14.7512 27.6119 14.3581 27.9336 14.082H27.9297C28.2514 13.8061 28.6702 13.669 29.0928 13.7012C29.5154 13.7335 29.9085 13.9332 30.1846 14.2549L31.1025 15.3252V14.0498C31.1023 11.4982 29.037 9.43263 26.4854 9.43262H24.6182C24.1944 9.43249 23.787 9.26443 23.4873 8.96484C23.1877 8.66506 23.0186 8.25785 23.0186 7.83398C23.0186 7.41006 23.1876 7.00295 23.4873 6.70312C23.787 6.40344 24.1943 6.23548 24.6182 6.23535H26.4854Z" fill="#E5E5E5"/>
</svg>
