<svg width="46" height="46" viewBox="0 0 46 46" fill="none" xmlns="http://www.w3.org/2000/svg">
<path d="M21.9082 19.3164C22.7521 19.3165 23.415 19.9803 23.415 20.8242C23.4149 21.6679 22.752 22.331 21.9082 22.3311C20.16 22.3311 18.7129 23.748 18.7129 25.5264V35.9697C18.7129 36.758 19.0031 37.4833 19.4824 38.0439L31.3086 26.2188C32.032 25.4953 32.9967 25.0732 34.0215 25.0732C35.0462 25.0733 36.011 25.4652 36.7344 26.2188L40.3545 29.8389V25.5264C40.3545 24.3207 39.6917 23.2349 38.6367 22.6924C38.4608 22.6034 38.3043 22.4804 38.1768 22.3301C38.0492 22.1796 37.9526 22.0046 37.8936 21.8164C37.8346 21.6282 37.8142 21.4297 37.833 21.2334C37.8519 21.0371 37.9102 20.8464 38.0039 20.6729C38.0929 20.497 38.2159 20.3403 38.3662 20.2129C38.5167 20.0853 38.6917 19.9897 38.8799 19.9307C39.0681 19.8717 39.2665 19.8513 39.4629 19.8701C39.6591 19.889 39.8499 19.9464 40.0234 20.04C42.0729 21.1251 43.369 23.235 43.3691 25.5557V36C43.369 39.4057 40.596 42.2087 37.1602 42.209V42.1787H21.9082C18.5023 42.1787 15.6993 39.4058 15.6992 35.9697V25.5264C15.6992 22.1204 18.472 19.3164 21.9082 19.3164ZM33.9609 28.1172C33.7501 28.1172 33.5392 28.2078 33.3584 28.3584L22.5527 39.1641H37.1602C38.9081 39.1638 40.3544 37.7478 40.3545 35.9697V34.1201L34.5635 28.3584C34.484 28.2805 34.3895 28.2191 34.2861 28.1777C34.1828 28.1365 34.0722 28.1156 33.9609 28.1172ZM7.88965 30.7402C8.13078 30.0168 9.30672 30.0168 9.54785 30.7402L10.3008 32.9707L12.5312 33.6934H12.5615C12.9232 33.8139 13.1641 34.1462 13.1641 34.5381C13.1639 34.9298 12.9231 35.2613 12.5615 35.3818L10.3311 36.1357L9.57812 38.3662C9.45749 38.7278 9.12516 38.9688 8.7334 38.9688C8.34181 38.9686 8.01028 38.7276 7.88965 38.3662L7.13574 36.1357L4.90527 35.3818C4.54386 35.2612 4.30285 34.9297 4.30273 34.5381C4.30273 34.1463 4.5437 33.814 4.90527 33.6934L7.13574 32.9707L7.88965 30.7402ZM5.50879 23.7168C5.97234 23.7169 6.41733 23.9007 6.74512 24.2285C7.0729 24.5563 7.25676 25.0013 7.25684 25.4648C7.25684 25.9284 7.07279 26.3733 6.74512 26.7012C6.41732 27.029 5.97235 27.2128 5.50879 27.2129C5.04513 27.2129 4.60032 27.029 4.27246 26.7012C3.94462 26.3733 3.76074 25.9285 3.76074 25.4648C3.76082 25.0013 3.94468 24.5563 4.27246 24.2285C4.60029 23.9008 5.04527 23.7168 5.50879 23.7168ZM25.4307 22.5117C26.5812 22.5118 27.5137 23.4442 27.5137 24.5947C27.5136 25.7452 26.5811 26.6777 25.4307 26.6777C24.2802 26.6777 23.3478 25.7452 23.3477 24.5947C23.3477 23.4442 24.2801 22.5117 25.4307 22.5117ZM9.05371 2.8291H14.8828C15.7267 2.82921 16.3896 3.49204 16.3896 4.33594C16.3896 5.17977 15.7266 5.84266 14.8828 5.84277H10.541V18.4121C10.5409 19.2558 9.8779 19.9188 9.03418 19.9189C8.19031 19.9189 7.52653 19.2559 7.52637 18.4121V5.84277H3.15723C2.34355 5.84264 1.65046 5.17976 1.65039 4.33594C1.65039 3.49206 2.34351 2.82924 3.15723 2.8291H9.01465C9.02105 2.82903 9.02776 2.82812 9.03418 2.82812C9.0407 2.82813 9.04721 2.82902 9.05371 2.8291ZM24.8613 5.20996C28.9305 5.20996 32.2158 8.52547 32.2158 12.5645V13.7324L33.0898 12.7158C33.6324 12.083 34.5966 12.0229 35.2295 12.5654C35.8623 13.108 35.9224 14.0722 35.3799 14.7051L31.8535 18.8047C31.7107 18.9672 31.5344 19.0972 31.3369 19.1855C31.1393 19.274 30.9245 19.3183 30.708 19.3164C30.4917 19.3183 30.2776 19.2738 30.0801 19.1855C29.8824 19.0971 29.7054 18.9673 29.5625 18.8047L26.0361 14.7051C25.7737 14.4007 25.6427 14.0044 25.6709 13.6035C25.6992 13.203 25.8843 12.8299 26.1865 12.5654C26.8195 12.0229 27.7545 12.0828 28.3271 12.7158L29.2021 13.7344V12.5645C29.2021 10.1531 27.2425 8.22363 24.8613 8.22363H23.1133C22.2694 8.22356 21.6064 7.56072 21.6064 6.7168C21.6065 5.8729 22.2694 5.21004 23.1133 5.20996H24.8613Z" fill="#E5E5E5"/>
</svg>
