<svg width="52" height="52" viewBox="0 0 52 52" fill="none" xmlns="http://www.w3.org/2000/svg">
<g clip-path="url(#clip0_299_5280)">
<path d="M0 26C0 11.6415 11.6415 0 26 0C40.3585 0 52 11.6415 52 26C52 40.3585 40.3585 52 26 52C11.6415 52 0 40.3585 0 26Z" fill="url(#paint0_linear_299_5280)"/>
<path d="M26 9.74951C34.9765 9.74951 42.25 17.023 42.25 25.9995C42.25 34.976 34.9765 42.2495 26 42.2495C17.0235 42.2495 9.75 34.976 9.75 25.9995C9.75 17.023 17.0235 9.74951 26 9.74951Z" fill="white"/>
<path d="M35.1387 22.1846C35.0449 21.9712 34.9099 21.7783 34.7415 21.617C34.5731 21.4557 34.3746 21.3292 34.1573 21.2447C33.94 21.1602 33.7081 21.1193 33.475 21.1245C33.2419 21.1296 33.0121 21.1806 32.7987 21.2746C32.6492 21.3396 32.5127 21.4241 32.3827 21.5281L24.8102 27.7551C24.1407 28.3076 23.1722 28.2946 22.5157 27.7226L19.7922 25.3631C19.5553 25.1587 19.2766 25.0084 18.9756 24.923C18.6745 24.8375 18.3584 24.8189 18.0495 24.8685C17.7405 24.918 17.4461 25.0345 17.1868 25.2098C16.9276 25.385 16.7098 25.6149 16.5487 25.8831C16.0482 26.7216 16.1782 27.7941 16.8672 28.4896L22.3922 34.0536C22.5568 34.2194 22.7525 34.3511 22.9681 34.4412C23.1837 34.5313 23.415 34.5779 23.6486 34.5785C23.8822 34.5791 24.1137 34.5337 24.3298 34.4447C24.5458 34.3558 24.7422 34.2251 24.9077 34.0601L24.9142 34.0536L34.7682 24.1476C35.2882 23.6341 35.4312 22.8541 35.1387 22.1846Z" fill="#5A91F7"/>
</g>
<defs>
<linearGradient id="paint0_linear_299_5280" x1="26" y1="0" x2="26" y2="52" gradientUnits="userSpaceOnUse">
<stop stop-color="#5A91F7"/>
<stop offset="1" stop-color="#7B5DFF"/>
</linearGradient>
<clipPath id="clip0_299_5280">
<rect width="52" height="52" fill="white"/>
</clipPath>
</defs>
</svg>
