<svg width="48" height="48" viewBox="0 0 48 48" fill="none" xmlns="http://www.w3.org/2000/svg">
<path d="M9.94124 31.2901C9.95443 31.2256 10.0466 31.2256 10.0598 31.2901C10.7443 34.6391 13.3615 37.2562 16.7105 37.9408C16.775 37.9539 16.775 38.0461 16.7105 38.0593C13.3615 38.7438 10.7443 41.361 10.0598 44.71C10.0466 44.7745 9.95443 44.7745 9.94124 44.71C9.25674 41.361 6.63955 38.7438 3.29058 38.0593C3.22606 38.0461 3.22606 37.9539 3.29058 37.9408C6.63955 37.2562 9.25674 34.6391 9.94124 31.2901Z" stroke="#E5E5E5" stroke-width="3"/>
<path d="M25 41H30.2C34.6804 41 36.9206 41 38.6319 40.1281C40.1372 39.3611 41.3611 38.1372 42.1281 36.6319C43 34.9206 43 32.6804 43 28.2V19.8C43 15.3196 43 13.0794 42.1281 11.3681C41.3611 9.86278 40.1372 8.63894 38.6319 7.87195C36.9206 7 34.6804 7 30.2 7H17.8C13.3196 7 11.0794 7 9.36808 7.87195C7.86278 8.63894 6.63894 9.86278 5.87195 11.3681C5 13.0794 5 15.3196 5 19.8V24M26 20C26.7463 20.4258 27.5958 20.9641 28.416 21.5067C29.5867 22.2811 30.1721 22.6683 30.4064 23.2312C30.6011 23.6987 30.6011 24.3013 30.4064 24.7688C30.1721 25.3316 29.5867 25.7189 28.416 26.4933C27.5958 27.0359 26.7463 27.5742 26 28C25.3782 28.3547 24.6455 28.7354 23.9098 29.101C22.6658 29.7192 22.0438 30.0283 21.4415 29.9506C20.9423 29.8861 20.4202 29.5862 20.1131 29.1874C19.7425 28.7063 19.6963 28.0145 19.6038 26.6309C19.543 25.7208 19.5 24.7957 19.5 24C19.5 23.2042 19.543 22.2791 19.6038 21.369C19.6963 19.9855 19.7425 19.2937 20.1131 18.8126C20.4202 18.4138 20.9423 18.1139 21.4415 18.0494C22.0438 17.9717 22.6658 18.2808 23.9098 18.8989C24.6455 19.2646 25.3782 19.6453 26 20Z" stroke="#E5E5E5" stroke-width="3" stroke-linecap="round"/>
</svg>
