<svg width="48" height="48" viewBox="0 0 48 48" fill="none" xmlns="http://www.w3.org/2000/svg">
<rect width="48" height="48" rx="8" fill="#367DBF" fill-opacity="0.33"/>
<path d="M35.5287 13.5247C35.1258 13.352 34.694 13.2656 34.2622 13.2656H13.9407C13.4802 13.2656 13.0484 13.352 12.6454 13.4959C11.2638 14.0428 10.2852 15.3381 10.2852 16.8924V34.9976C10.2852 36.5519 11.2638 37.8472 12.6742 38.3653C13.0772 38.5092 13.509 38.5956 13.9695 38.5956H34.2622C36.2771 38.5956 37.9178 36.9549 37.9178 34.94V16.8924C37.9178 15.3381 36.9391 14.0428 35.5287 13.5247ZM21.3382 21.4115C21.3382 22.9083 20.1005 24.1172 18.575 24.1172C17.0494 24.1172 15.8117 22.9083 15.8117 21.4115C15.8117 19.9147 17.0494 18.7058 18.575 18.7058C20.1005 18.7058 21.3382 19.9147 21.3382 21.4115ZM34.2622 36.7534H13.9407C13.0772 36.7534 12.3288 36.1489 12.1561 35.3142C12.1273 35.199 12.1273 35.0839 12.1273 34.9688V33.5871L17.5675 28.9817L19.5248 30.8527C20.5323 31.8313 22.1442 31.8889 23.238 30.9966L32.4201 23.3976C34.1759 25.2973 35.3848 26.5638 36.1332 27.2259V34.94C36.0756 35.9474 35.2697 36.7534 34.2622 36.7534Z" fill="url(#paint0_linear_368_8257)"/>
<mask id="path-3-outside-1_368_8257" maskUnits="userSpaceOnUse" x="28.8613" y="7.0957" width="14" height="14" fill="black">
<rect fill="white" x="28.8613" y="7.0957" width="14" height="14"/>
<path d="M31.9631 8.23178C31.9616 8.23444 31.9602 8.23714 31.9588 8.23988L31.3347 9.45521C31.3286 9.46753 31.3214 9.47925 31.3131 9.49021C31.3011 9.50694 31.2871 9.52213 31.2714 9.53544C31.2558 9.54884 31.2386 9.56038 31.2203 9.56983L30.0049 10.1942L29.9969 10.1984C29.9838 10.2059 29.9713 10.2144 29.9595 10.2238L29.9524 10.2296L29.9457 10.2357C29.9393 10.242 29.933 10.2485 29.9269 10.2551C29.923 10.2598 29.9192 10.2645 29.9155 10.2692C29.9117 10.2739 29.9082 10.2789 29.9049 10.284L29.9 10.2917L29.8954 10.2995L29.8912 10.3074C29.8883 10.3127 29.8857 10.3182 29.8834 10.3238L29.8798 10.3322C29.8776 10.3378 29.8756 10.3435 29.8739 10.3493C29.872 10.355 29.8703 10.3608 29.869 10.3667L29.8669 10.3756L29.8652 10.3844L29.8638 10.3933L29.8627 10.4025L29.862 10.4113L29.8615 10.4205L29.8614 10.4295C29.8613 10.4355 29.8615 10.4416 29.862 10.4476L29.8627 10.4567L29.8638 10.4656L29.8652 10.4746L29.8669 10.4835L29.869 10.4923C29.8714 10.5042 29.875 10.5158 29.8798 10.5269L29.8834 10.5353C29.8857 10.5409 29.8883 10.5463 29.8912 10.5516L29.8954 10.5596L29.9 10.5672L29.9049 10.5749C29.9082 10.58 29.9117 10.585 29.9155 10.5898L29.921 10.5969C29.9249 10.6015 29.9288 10.6061 29.9329 10.6106C29.9371 10.6149 29.9414 10.6191 29.9457 10.6233L29.9524 10.6294L29.9595 10.6352C29.9641 10.6391 29.969 10.6427 29.974 10.6461C29.9789 10.6496 29.9839 10.653 29.9891 10.656L29.9969 10.6606L30.0049 10.6649L31.22 11.2889C31.2384 11.2982 31.2556 11.3097 31.2712 11.3231C31.2868 11.3366 31.3008 11.3518 31.3131 11.3684C31.3212 11.3795 31.3284 11.3912 31.3347 11.4034L31.9591 12.6185C31.9618 12.624 31.9648 12.6293 31.968 12.6344C31.971 12.6397 31.9742 12.6448 31.9778 12.6497L31.9831 12.6569C31.9867 12.6618 31.9905 12.6665 31.9946 12.671C31.9985 12.6756 32.0026 12.68 32.007 12.6843L32.0134 12.6905L32.0201 12.6966C32.0246 12.7007 32.0293 12.7045 32.0342 12.7081C32.0415 12.7135 32.049 12.7186 32.0566 12.7234L32.0644 12.728L32.0724 12.7324L32.0805 12.7364L32.0887 12.7402L32.0971 12.7436C32.1055 12.7471 32.1142 12.75 32.123 12.7523C32.1317 12.7546 32.1405 12.7567 32.1494 12.7584C32.1584 12.76 32.1674 12.761 32.1765 12.7614C32.2036 12.7632 32.2309 12.7609 32.2573 12.7546L32.266 12.7523L32.2747 12.7497C32.2805 12.7479 32.2862 12.7459 32.2919 12.7436L32.3003 12.7402L32.3085 12.7364L32.3166 12.7324L32.3246 12.728C32.335 12.7219 32.3451 12.7153 32.3548 12.7081C32.3597 12.7045 32.3644 12.7007 32.3689 12.6966L32.3756 12.6905C32.3821 12.6842 32.3883 12.6777 32.3944 12.671C32.3985 12.6665 32.4023 12.6618 32.4059 12.6569L32.4112 12.6496C32.4146 12.6446 32.4178 12.6395 32.421 12.6344C32.4242 12.6293 32.4272 12.624 32.4299 12.6185L33.0543 11.4035C33.0604 11.3912 33.0676 11.3795 33.0759 11.3685C33.0879 11.3518 33.1019 11.3366 33.1176 11.3233C33.1333 11.3099 33.1504 11.2984 33.1687 11.2889L34.3841 10.6649L34.3921 10.6606L34.4 10.656L34.4077 10.6513L34.4152 10.6462C34.4226 10.6409 34.4297 10.6353 34.4367 10.6294L34.4434 10.6233L34.45 10.6172C34.4544 10.613 34.4585 10.6085 34.4624 10.6039C34.4663 10.5993 34.4701 10.5946 34.4739 10.5898C34.4774 10.5849 34.4809 10.58 34.4844 10.575C34.4878 10.57 34.491 10.5648 34.4939 10.5594L34.4982 10.5515C34.4997 10.5489 34.5009 10.5461 34.5023 10.5434C34.5064 10.5353 34.5099 10.5269 34.5127 10.5183C34.5149 10.5126 34.5167 10.5068 34.5183 10.5009L34.5206 10.4922L34.5226 10.4833C34.5239 10.4774 34.525 10.4714 34.5257 10.4654L34.5267 10.4564C34.5274 10.4504 34.5279 10.4444 34.528 10.4384L34.5281 10.4292L34.528 10.42C34.5279 10.414 34.5274 10.408 34.5267 10.402L34.5257 10.393C34.5247 10.387 34.5236 10.3811 34.5226 10.3751L34.5206 10.3662L34.5183 10.3575C34.5165 10.3518 34.5146 10.346 34.5127 10.3403C34.5099 10.3316 34.5064 10.3232 34.5023 10.315L34.4982 10.3069C34.4942 10.2988 34.4896 10.2909 34.4844 10.2834C34.4809 10.2785 34.4774 10.2736 34.4739 10.2687C34.4701 10.264 34.4663 10.2593 34.4624 10.2547C34.4585 10.25 34.4544 10.2456 34.45 10.2414L34.4434 10.2351L34.4367 10.229C34.4322 10.225 34.4274 10.2212 34.4225 10.2177C34.4201 10.2159 34.4176 10.2141 34.4152 10.2123C34.4127 10.2105 34.4101 10.2088 34.4077 10.2073L34.4 10.2024L34.3921 10.1978L34.3841 10.1935L33.169 9.56953C33.1506 9.56022 33.1334 9.54872 33.1178 9.53529C33.1022 9.52178 33.0882 9.50661 33.0759 9.49005C33.068 9.47888 33.0608 9.46725 33.0543 9.45521L32.4302 8.23988C32.4275 8.23443 32.4245 8.22913 32.4213 8.22398C32.4168 8.21612 32.4118 8.20861 32.4062 8.20152C32.4026 8.19657 32.3988 8.19183 32.3947 8.1873C32.3908 8.18265 32.3867 8.17821 32.3823 8.17401C32.3802 8.1719 32.3781 8.16981 32.3759 8.16774L32.3692 8.16163C32.3669 8.15959 32.3645 8.1576 32.3622 8.15567L32.3551 8.15001C32.3527 8.14821 32.3503 8.14642 32.3478 8.14466L32.3403 8.13962L32.3327 8.13473C32.3275 8.13146 32.3222 8.12845 32.3168 8.12571C32.3088 8.12133 32.3005 8.11755 32.292 8.1144C32.2695 8.10556 32.2458 8.09981 32.2217 8.09729C32.2097 8.09585 32.1976 8.09539 32.1855 8.09591C32.1398 8.09741 32.0953 8.11079 32.0563 8.13473L32.0487 8.13962L32.0412 8.14466C32.0387 8.14642 32.0363 8.14821 32.0339 8.15001L32.0268 8.15567C32.0245 8.15755 32.0221 8.15948 32.0198 8.16148L32.0131 8.16759C32.0066 8.17399 32.0004 8.18056 31.9943 8.1873L31.9885 8.19433C31.9866 8.19663 31.9847 8.19892 31.9828 8.20152L31.9776 8.2087C31.9758 8.2112 31.9741 8.21375 31.9724 8.21634L31.9677 8.22398L31.9631 8.23178ZM36.8619 11.3713L36.8536 11.3867L35.6554 13.72C35.6316 13.7671 35.6003 13.8101 35.5628 13.8473C35.535 13.8755 35.5039 13.9001 35.4702 13.9207C35.459 13.9276 35.4475 13.9341 35.4358 13.9401L33.1025 15.1389C33.0869 15.1467 33.0719 15.1554 33.0574 15.1651C33.0525 15.1682 33.0477 15.1715 33.0429 15.1748L33.0288 15.1851C33.0195 15.192 33.0105 15.1993 33.0018 15.2069C32.9932 15.2147 32.9847 15.2226 32.9764 15.2306C32.968 15.2387 32.9601 15.2472 32.9526 15.2561C32.9372 15.2736 32.9232 15.292 32.9105 15.3115C32.9042 15.3212 32.8981 15.331 32.8923 15.3411C32.8896 15.3462 32.8867 15.3512 32.8841 15.3564L32.8763 15.372C32.8689 15.3877 32.8622 15.4038 32.8563 15.4201L32.8508 15.4366C32.8489 15.4421 32.8474 15.4478 32.8457 15.4534C32.8427 15.4646 32.8399 15.4758 32.8375 15.4871L32.8343 15.5042C32.8315 15.5214 32.8294 15.5388 32.828 15.5562L32.8271 15.5734C32.8269 15.5792 32.8268 15.585 32.8268 15.5908L32.8271 15.6083L32.828 15.6255L32.8295 15.643C32.8301 15.6486 32.8307 15.6544 32.8317 15.6601L32.8343 15.6773L32.8375 15.6945C32.8399 15.7058 32.8427 15.7171 32.8457 15.7282C32.8474 15.7337 32.8489 15.7394 32.8508 15.7449L32.8563 15.7614C32.8622 15.7777 32.8689 15.7938 32.8763 15.8095L32.8841 15.8251C32.8867 15.8303 32.8896 15.8354 32.8923 15.8404C32.9039 15.8605 32.9166 15.8799 32.9305 15.8985C32.9588 15.9354 32.9918 15.9684 33.0288 15.9965L33.0429 16.0067C33.0524 16.0134 33.0621 16.0198 33.0721 16.0258C33.082 16.0318 33.0921 16.0374 33.1025 16.0426L35.4353 17.2408C35.4588 17.2527 35.4813 17.2665 35.5026 17.2821C35.5345 17.3054 35.5636 17.3324 35.5894 17.3623C35.6065 17.3824 35.6221 17.4037 35.636 17.4261C35.6429 17.4374 35.6494 17.4488 35.6554 17.4605L36.8542 19.7938C36.8622 19.8092 36.8709 19.8242 36.8804 19.8388C36.8899 19.8534 36.9001 19.8675 36.9111 19.881L36.9222 19.8945C36.9299 19.9032 36.9379 19.9116 36.9461 19.9198L36.9585 19.9321C36.9711 19.944 36.9844 19.9552 36.9984 19.9657C37.0121 19.9763 37.0265 19.9861 37.0415 19.995C37.0662 20.0103 37.0922 20.0233 37.1192 20.0339C37.1354 20.0401 37.1519 20.0457 37.1686 20.0505C37.1854 20.0551 37.2024 20.0589 37.2195 20.062C37.2711 20.0707 37.3237 20.0716 37.3755 20.0646C37.4505 20.0542 37.5223 20.0273 37.5855 19.9857L37.5999 19.9759C37.6046 19.9726 37.6092 19.9692 37.6138 19.9657L37.6276 19.955C37.6364 19.9475 37.6452 19.9399 37.6537 19.9321C37.675 19.9124 37.6945 19.8907 37.7118 19.8674C37.7293 19.8442 37.7448 19.8196 37.7581 19.7938L38.9568 17.4611C38.9747 17.4258 38.9968 17.3928 39.0226 17.3628C39.0395 17.3426 39.0581 17.3239 39.0783 17.3069C39.1084 17.2812 39.1413 17.2591 39.1764 17.2408L41.5098 16.0426L41.5251 16.0345L41.5402 16.0258C41.5603 16.0139 41.5794 16.0006 41.5974 15.9858C41.6063 15.9784 41.6151 15.9708 41.6237 15.963C41.645 15.9432 41.6646 15.9216 41.6822 15.8985L41.6926 15.8844C41.7094 15.8608 41.7241 15.8357 41.7366 15.8095L41.744 15.7937C41.7486 15.783 41.7529 15.7722 41.7568 15.7613L41.7623 15.7447C41.7661 15.7337 41.7692 15.7225 41.7718 15.7111C41.7745 15.6998 41.7769 15.6885 41.779 15.677L41.7816 15.6598L41.7837 15.6425C41.7848 15.6309 41.7855 15.6193 41.786 15.6077C41.7863 15.6018 41.7863 15.596 41.7863 15.5902C41.7863 15.5844 41.7863 15.5786 41.786 15.5728C41.7855 15.5612 41.7848 15.5497 41.7837 15.5381C41.7817 15.5208 41.779 15.5036 41.7756 15.4865L41.7718 15.4695C41.7689 15.4582 41.7658 15.447 41.7623 15.4359L41.7568 15.4194C41.7528 15.4084 41.7486 15.3976 41.744 15.387C41.7415 15.3816 41.7392 15.3763 41.7366 15.3711C41.7342 15.3658 41.7316 15.3606 41.7288 15.3555C41.7237 15.3451 41.718 15.335 41.7117 15.3252C41.7057 15.3153 41.6993 15.3057 41.6926 15.2962L41.6822 15.282C41.6432 15.2312 41.595 15.1881 41.5402 15.1548C41.5303 15.1488 41.5202 15.1432 41.5098 15.138L39.1768 13.9398C39.1535 13.9276 39.131 13.9138 39.1096 13.8984C39.0456 13.8515 38.9933 13.7904 38.9568 13.72L37.7585 11.3867C37.7559 11.3815 37.7532 11.3764 37.7503 11.3714C37.7449 11.3611 37.7389 11.3511 37.7324 11.3415C37.7229 11.3269 37.7126 11.3127 37.7017 11.2991L37.6905 11.2858C37.6829 11.2771 37.6749 11.2686 37.6667 11.2603L37.6543 11.2481C37.6416 11.2361 37.6283 11.2249 37.6144 11.2143L37.6004 11.2039L37.586 11.1941C37.5763 11.1876 37.5664 11.1815 37.5562 11.1758C37.536 11.1642 37.515 11.1542 37.4934 11.1458C37.4717 11.1374 37.4495 11.1304 37.4269 11.1248C37.41 11.1205 37.3928 11.1172 37.3755 11.115C37.3526 11.1116 37.3294 11.11 37.3062 11.1101C37.2244 11.1102 37.1438 11.1299 37.0713 11.1677C37.0505 11.1783 37.0307 11.1904 37.0118 11.2041C37.0071 11.2073 37.0025 11.2108 36.9977 11.2143C36.9839 11.2248 36.9706 11.2361 36.958 11.2481C36.9367 11.2679 36.9172 11.2896 36.8998 11.3129L36.8895 11.3271C36.8829 11.3366 36.8766 11.3464 36.8706 11.3563C36.8677 11.3612 36.8646 11.3662 36.8619 11.3713Z"/>
</mask>
<path d="M31.9631 8.23178C31.9616 8.23444 31.9602 8.23714 31.9588 8.23988L31.3347 9.45521C31.3286 9.46753 31.3214 9.47925 31.3131 9.49021C31.3011 9.50694 31.2871 9.52213 31.2714 9.53544C31.2558 9.54884 31.2386 9.56038 31.2203 9.56983L30.0049 10.1942L29.9969 10.1984C29.9838 10.2059 29.9713 10.2144 29.9595 10.2238L29.9524 10.2296L29.9457 10.2357C29.9393 10.242 29.933 10.2485 29.9269 10.2551C29.923 10.2598 29.9192 10.2645 29.9155 10.2692C29.9117 10.2739 29.9082 10.2789 29.9049 10.284L29.9 10.2917L29.8954 10.2995L29.8912 10.3074C29.8883 10.3127 29.8857 10.3182 29.8834 10.3238L29.8798 10.3322C29.8776 10.3378 29.8756 10.3435 29.8739 10.3493C29.872 10.355 29.8703 10.3608 29.869 10.3667L29.8669 10.3756L29.8652 10.3844L29.8638 10.3933L29.8627 10.4025L29.862 10.4113L29.8615 10.4205L29.8614 10.4295C29.8613 10.4355 29.8615 10.4416 29.862 10.4476L29.8627 10.4567L29.8638 10.4656L29.8652 10.4746L29.8669 10.4835L29.869 10.4923C29.8714 10.5042 29.875 10.5158 29.8798 10.5269L29.8834 10.5353C29.8857 10.5409 29.8883 10.5463 29.8912 10.5516L29.8954 10.5596L29.9 10.5672L29.9049 10.5749C29.9082 10.58 29.9117 10.585 29.9155 10.5898L29.921 10.5969C29.9249 10.6015 29.9288 10.6061 29.9329 10.6106C29.9371 10.6149 29.9414 10.6191 29.9457 10.6233L29.9524 10.6294L29.9595 10.6352C29.9641 10.6391 29.969 10.6427 29.974 10.6461C29.9789 10.6496 29.9839 10.653 29.9891 10.656L29.9969 10.6606L30.0049 10.6649L31.22 11.2889C31.2384 11.2982 31.2556 11.3097 31.2712 11.3231C31.2868 11.3366 31.3008 11.3518 31.3131 11.3684C31.3212 11.3795 31.3284 11.3912 31.3347 11.4034L31.9591 12.6185C31.9618 12.624 31.9648 12.6293 31.968 12.6344C31.971 12.6397 31.9742 12.6448 31.9778 12.6497L31.9831 12.6569C31.9867 12.6618 31.9905 12.6665 31.9946 12.671C31.9985 12.6756 32.0026 12.68 32.007 12.6843L32.0134 12.6905L32.0201 12.6966C32.0246 12.7007 32.0293 12.7045 32.0342 12.7081C32.0415 12.7135 32.049 12.7186 32.0566 12.7234L32.0644 12.728L32.0724 12.7324L32.0805 12.7364L32.0887 12.7402L32.0971 12.7436C32.1055 12.7471 32.1142 12.75 32.123 12.7523C32.1317 12.7546 32.1405 12.7567 32.1494 12.7584C32.1584 12.76 32.1674 12.761 32.1765 12.7614C32.2036 12.7632 32.2309 12.7609 32.2573 12.7546L32.266 12.7523L32.2747 12.7497C32.2805 12.7479 32.2862 12.7459 32.2919 12.7436L32.3003 12.7402L32.3085 12.7364L32.3166 12.7324L32.3246 12.728C32.335 12.7219 32.3451 12.7153 32.3548 12.7081C32.3597 12.7045 32.3644 12.7007 32.3689 12.6966L32.3756 12.6905C32.3821 12.6842 32.3883 12.6777 32.3944 12.671C32.3985 12.6665 32.4023 12.6618 32.4059 12.6569L32.4112 12.6496C32.4146 12.6446 32.4178 12.6395 32.421 12.6344C32.4242 12.6293 32.4272 12.624 32.4299 12.6185L33.0543 11.4035C33.0604 11.3912 33.0676 11.3795 33.0759 11.3685C33.0879 11.3518 33.1019 11.3366 33.1176 11.3233C33.1333 11.3099 33.1504 11.2984 33.1687 11.2889L34.3841 10.6649L34.3921 10.6606L34.4 10.656L34.4077 10.6513L34.4152 10.6462C34.4226 10.6409 34.4297 10.6353 34.4367 10.6294L34.4434 10.6233L34.45 10.6172C34.4544 10.613 34.4585 10.6085 34.4624 10.6039C34.4663 10.5993 34.4701 10.5946 34.4739 10.5898C34.4774 10.5849 34.4809 10.58 34.4844 10.575C34.4878 10.57 34.491 10.5648 34.4939 10.5594L34.4982 10.5515C34.4997 10.5489 34.5009 10.5461 34.5023 10.5434C34.5064 10.5353 34.5099 10.5269 34.5127 10.5183C34.5149 10.5126 34.5167 10.5068 34.5183 10.5009L34.5206 10.4922L34.5226 10.4833C34.5239 10.4774 34.525 10.4714 34.5257 10.4654L34.5267 10.4564C34.5274 10.4504 34.5279 10.4444 34.528 10.4384L34.5281 10.4292L34.528 10.42C34.5279 10.414 34.5274 10.408 34.5267 10.402L34.5257 10.393C34.5247 10.387 34.5236 10.3811 34.5226 10.3751L34.5206 10.3662L34.5183 10.3575C34.5165 10.3518 34.5146 10.346 34.5127 10.3403C34.5099 10.3316 34.5064 10.3232 34.5023 10.315L34.4982 10.3069C34.4942 10.2988 34.4896 10.2909 34.4844 10.2834C34.4809 10.2785 34.4774 10.2736 34.4739 10.2687C34.4701 10.264 34.4663 10.2593 34.4624 10.2547C34.4585 10.25 34.4544 10.2456 34.45 10.2414L34.4434 10.2351L34.4367 10.229C34.4322 10.225 34.4274 10.2212 34.4225 10.2177C34.4201 10.2159 34.4176 10.2141 34.4152 10.2123C34.4127 10.2105 34.4101 10.2088 34.4077 10.2073L34.4 10.2024L34.3921 10.1978L34.3841 10.1935L33.169 9.56953C33.1506 9.56022 33.1334 9.54872 33.1178 9.53529C33.1022 9.52178 33.0882 9.50661 33.0759 9.49005C33.068 9.47888 33.0608 9.46725 33.0543 9.45521L32.4302 8.23988C32.4275 8.23443 32.4245 8.22913 32.4213 8.22398C32.4168 8.21612 32.4118 8.20861 32.4062 8.20152C32.4026 8.19657 32.3988 8.19183 32.3947 8.1873C32.3908 8.18265 32.3867 8.17821 32.3823 8.17401C32.3802 8.1719 32.3781 8.16981 32.3759 8.16774L32.3692 8.16163C32.3669 8.15959 32.3645 8.1576 32.3622 8.15567L32.3551 8.15001C32.3527 8.14821 32.3503 8.14642 32.3478 8.14466L32.3403 8.13962L32.3327 8.13473C32.3275 8.13146 32.3222 8.12845 32.3168 8.12571C32.3088 8.12133 32.3005 8.11755 32.292 8.1144C32.2695 8.10556 32.2458 8.09981 32.2217 8.09729C32.2097 8.09585 32.1976 8.09539 32.1855 8.09591C32.1398 8.09741 32.0953 8.11079 32.0563 8.13473L32.0487 8.13962L32.0412 8.14466C32.0387 8.14642 32.0363 8.14821 32.0339 8.15001L32.0268 8.15567C32.0245 8.15755 32.0221 8.15948 32.0198 8.16148L32.0131 8.16759C32.0066 8.17399 32.0004 8.18056 31.9943 8.1873L31.9885 8.19433C31.9866 8.19663 31.9847 8.19892 31.9828 8.20152L31.9776 8.2087C31.9758 8.2112 31.9741 8.21375 31.9724 8.21634L31.9677 8.22398L31.9631 8.23178ZM36.8619 11.3713L36.8536 11.3867L35.6554 13.72C35.6316 13.7671 35.6003 13.8101 35.5628 13.8473C35.535 13.8755 35.5039 13.9001 35.4702 13.9207C35.459 13.9276 35.4475 13.9341 35.4358 13.9401L33.1025 15.1389C33.0869 15.1467 33.0719 15.1554 33.0574 15.1651C33.0525 15.1682 33.0477 15.1715 33.0429 15.1748L33.0288 15.1851C33.0195 15.192 33.0105 15.1993 33.0018 15.2069C32.9932 15.2147 32.9847 15.2226 32.9764 15.2306C32.968 15.2387 32.9601 15.2472 32.9526 15.2561C32.9372 15.2736 32.9232 15.292 32.9105 15.3115C32.9042 15.3212 32.8981 15.331 32.8923 15.3411C32.8896 15.3462 32.8867 15.3512 32.8841 15.3564L32.8763 15.372C32.8689 15.3877 32.8622 15.4038 32.8563 15.4201L32.8508 15.4366C32.8489 15.4421 32.8474 15.4478 32.8457 15.4534C32.8427 15.4646 32.8399 15.4758 32.8375 15.4871L32.8343 15.5042C32.8315 15.5214 32.8294 15.5388 32.828 15.5562L32.8271 15.5734C32.8269 15.5792 32.8268 15.585 32.8268 15.5908L32.8271 15.6083L32.828 15.6255L32.8295 15.643C32.8301 15.6486 32.8307 15.6544 32.8317 15.6601L32.8343 15.6773L32.8375 15.6945C32.8399 15.7058 32.8427 15.7171 32.8457 15.7282C32.8474 15.7337 32.8489 15.7394 32.8508 15.7449L32.8563 15.7614C32.8622 15.7777 32.8689 15.7938 32.8763 15.8095L32.8841 15.8251C32.8867 15.8303 32.8896 15.8354 32.8923 15.8404C32.9039 15.8605 32.9166 15.8799 32.9305 15.8985C32.9588 15.9354 32.9918 15.9684 33.0288 15.9965L33.0429 16.0067C33.0524 16.0134 33.0621 16.0198 33.0721 16.0258C33.082 16.0318 33.0921 16.0374 33.1025 16.0426L35.4353 17.2408C35.4588 17.2527 35.4813 17.2665 35.5026 17.2821C35.5345 17.3054 35.5636 17.3324 35.5894 17.3623C35.6065 17.3824 35.6221 17.4037 35.636 17.4261C35.6429 17.4374 35.6494 17.4488 35.6554 17.4605L36.8542 19.7938C36.8622 19.8092 36.8709 19.8242 36.8804 19.8388C36.8899 19.8534 36.9001 19.8675 36.9111 19.881L36.9222 19.8945C36.9299 19.9032 36.9379 19.9116 36.9461 19.9198L36.9585 19.9321C36.9711 19.944 36.9844 19.9552 36.9984 19.9657C37.0121 19.9763 37.0265 19.9861 37.0415 19.995C37.0662 20.0103 37.0922 20.0233 37.1192 20.0339C37.1354 20.0401 37.1519 20.0457 37.1686 20.0505C37.1854 20.0551 37.2024 20.0589 37.2195 20.062C37.2711 20.0707 37.3237 20.0716 37.3755 20.0646C37.4505 20.0542 37.5223 20.0273 37.5855 19.9857L37.5999 19.9759C37.6046 19.9726 37.6092 19.9692 37.6138 19.9657L37.6276 19.955C37.6364 19.9475 37.6452 19.9399 37.6537 19.9321C37.675 19.9124 37.6945 19.8907 37.7118 19.8674C37.7293 19.8442 37.7448 19.8196 37.7581 19.7938L38.9568 17.4611C38.9747 17.4258 38.9968 17.3928 39.0226 17.3628C39.0395 17.3426 39.0581 17.3239 39.0783 17.3069C39.1084 17.2812 39.1413 17.2591 39.1764 17.2408L41.5098 16.0426L41.5251 16.0345L41.5402 16.0258C41.5603 16.0139 41.5794 16.0006 41.5974 15.9858C41.6063 15.9784 41.6151 15.9708 41.6237 15.963C41.645 15.9432 41.6646 15.9216 41.6822 15.8985L41.6926 15.8844C41.7094 15.8608 41.7241 15.8357 41.7366 15.8095L41.744 15.7937C41.7486 15.783 41.7529 15.7722 41.7568 15.7613L41.7623 15.7447C41.7661 15.7337 41.7692 15.7225 41.7718 15.7111C41.7745 15.6998 41.7769 15.6885 41.779 15.677L41.7816 15.6598L41.7837 15.6425C41.7848 15.6309 41.7855 15.6193 41.786 15.6077C41.7863 15.6018 41.7863 15.596 41.7863 15.5902C41.7863 15.5844 41.7863 15.5786 41.786 15.5728C41.7855 15.5612 41.7848 15.5497 41.7837 15.5381C41.7817 15.5208 41.779 15.5036 41.7756 15.4865L41.7718 15.4695C41.7689 15.4582 41.7658 15.447 41.7623 15.4359L41.7568 15.4194C41.7528 15.4084 41.7486 15.3976 41.744 15.387C41.7415 15.3816 41.7392 15.3763 41.7366 15.3711C41.7342 15.3658 41.7316 15.3606 41.7288 15.3555C41.7237 15.3451 41.718 15.335 41.7117 15.3252C41.7057 15.3153 41.6993 15.3057 41.6926 15.2962L41.6822 15.282C41.6432 15.2312 41.595 15.1881 41.5402 15.1548C41.5303 15.1488 41.5202 15.1432 41.5098 15.138L39.1768 13.9398C39.1535 13.9276 39.131 13.9138 39.1096 13.8984C39.0456 13.8515 38.9933 13.7904 38.9568 13.72L37.7585 11.3867C37.7559 11.3815 37.7532 11.3764 37.7503 11.3714C37.7449 11.3611 37.7389 11.3511 37.7324 11.3415C37.7229 11.3269 37.7126 11.3127 37.7017 11.2991L37.6905 11.2858C37.6829 11.2771 37.6749 11.2686 37.6667 11.2603L37.6543 11.2481C37.6416 11.2361 37.6283 11.2249 37.6144 11.2143L37.6004 11.2039L37.586 11.1941C37.5763 11.1876 37.5664 11.1815 37.5562 11.1758C37.536 11.1642 37.515 11.1542 37.4934 11.1458C37.4717 11.1374 37.4495 11.1304 37.4269 11.1248C37.41 11.1205 37.3928 11.1172 37.3755 11.115C37.3526 11.1116 37.3294 11.11 37.3062 11.1101C37.2244 11.1102 37.1438 11.1299 37.0713 11.1677C37.0505 11.1783 37.0307 11.1904 37.0118 11.2041C37.0071 11.2073 37.0025 11.2108 36.9977 11.2143C36.9839 11.2248 36.9706 11.2361 36.958 11.2481C36.9367 11.2679 36.9172 11.2896 36.8998 11.3129L36.8895 11.3271C36.8829 11.3366 36.8766 11.3464 36.8706 11.3563C36.8677 11.3612 36.8646 11.3662 36.8619 11.3713Z" fill="black"/>
<path d="M31.9631 8.23178C31.9616 8.23444 31.9602 8.23714 31.9588 8.23988L31.3347 9.45521C31.3286 9.46753 31.3214 9.47925 31.3131 9.49021C31.3011 9.50694 31.2871 9.52213 31.2714 9.53544C31.2558 9.54884 31.2386 9.56038 31.2203 9.56983L30.0049 10.1942L29.9969 10.1984C29.9838 10.2059 29.9713 10.2144 29.9595 10.2238L29.9524 10.2296L29.9457 10.2357C29.9393 10.242 29.933 10.2485 29.9269 10.2551C29.923 10.2598 29.9192 10.2645 29.9155 10.2692C29.9117 10.2739 29.9082 10.2789 29.9049 10.284L29.9 10.2917L29.8954 10.2995L29.8912 10.3074C29.8883 10.3127 29.8857 10.3182 29.8834 10.3238L29.8798 10.3322C29.8776 10.3378 29.8756 10.3435 29.8739 10.3493C29.872 10.355 29.8703 10.3608 29.869 10.3667L29.8669 10.3756L29.8652 10.3844L29.8638 10.3933L29.8627 10.4025L29.862 10.4113L29.8615 10.4205L29.8614 10.4295C29.8613 10.4355 29.8615 10.4416 29.862 10.4476L29.8627 10.4567L29.8638 10.4656L29.8652 10.4746L29.8669 10.4835L29.869 10.4923C29.8714 10.5042 29.875 10.5158 29.8798 10.5269L29.8834 10.5353C29.8857 10.5409 29.8883 10.5463 29.8912 10.5516L29.8954 10.5596L29.9 10.5672L29.9049 10.5749C29.9082 10.58 29.9117 10.585 29.9155 10.5898L29.921 10.5969C29.9249 10.6015 29.9288 10.6061 29.9329 10.6106C29.9371 10.6149 29.9414 10.6191 29.9457 10.6233L29.9524 10.6294L29.9595 10.6352C29.9641 10.6391 29.969 10.6427 29.974 10.6461C29.9789 10.6496 29.9839 10.653 29.9891 10.656L29.9969 10.6606L30.0049 10.6649L31.22 11.2889C31.2384 11.2982 31.2556 11.3097 31.2712 11.3231C31.2868 11.3366 31.3008 11.3518 31.3131 11.3684C31.3212 11.3795 31.3284 11.3912 31.3347 11.4034L31.9591 12.6185C31.9618 12.624 31.9648 12.6293 31.968 12.6344C31.971 12.6397 31.9742 12.6448 31.9778 12.6497L31.9831 12.6569C31.9867 12.6618 31.9905 12.6665 31.9946 12.671C31.9985 12.6756 32.0026 12.68 32.007 12.6843L32.0134 12.6905L32.0201 12.6966C32.0246 12.7007 32.0293 12.7045 32.0342 12.7081C32.0415 12.7135 32.049 12.7186 32.0566 12.7234L32.0644 12.728L32.0724 12.7324L32.0805 12.7364L32.0887 12.7402L32.0971 12.7436C32.1055 12.7471 32.1142 12.75 32.123 12.7523C32.1317 12.7546 32.1405 12.7567 32.1494 12.7584C32.1584 12.76 32.1674 12.761 32.1765 12.7614C32.2036 12.7632 32.2309 12.7609 32.2573 12.7546L32.266 12.7523L32.2747 12.7497C32.2805 12.7479 32.2862 12.7459 32.2919 12.7436L32.3003 12.7402L32.3085 12.7364L32.3166 12.7324L32.3246 12.728C32.335 12.7219 32.3451 12.7153 32.3548 12.7081C32.3597 12.7045 32.3644 12.7007 32.3689 12.6966L32.3756 12.6905C32.3821 12.6842 32.3883 12.6777 32.3944 12.671C32.3985 12.6665 32.4023 12.6618 32.4059 12.6569L32.4112 12.6496C32.4146 12.6446 32.4178 12.6395 32.421 12.6344C32.4242 12.6293 32.4272 12.624 32.4299 12.6185L33.0543 11.4035C33.0604 11.3912 33.0676 11.3795 33.0759 11.3685C33.0879 11.3518 33.1019 11.3366 33.1176 11.3233C33.1333 11.3099 33.1504 11.2984 33.1687 11.2889L34.3841 10.6649L34.3921 10.6606L34.4 10.656L34.4077 10.6513L34.4152 10.6462C34.4226 10.6409 34.4297 10.6353 34.4367 10.6294L34.4434 10.6233L34.45 10.6172C34.4544 10.613 34.4585 10.6085 34.4624 10.6039C34.4663 10.5993 34.4701 10.5946 34.4739 10.5898C34.4774 10.5849 34.4809 10.58 34.4844 10.575C34.4878 10.57 34.491 10.5648 34.4939 10.5594L34.4982 10.5515C34.4997 10.5489 34.5009 10.5461 34.5023 10.5434C34.5064 10.5353 34.5099 10.5269 34.5127 10.5183C34.5149 10.5126 34.5167 10.5068 34.5183 10.5009L34.5206 10.4922L34.5226 10.4833C34.5239 10.4774 34.525 10.4714 34.5257 10.4654L34.5267 10.4564C34.5274 10.4504 34.5279 10.4444 34.528 10.4384L34.5281 10.4292L34.528 10.42C34.5279 10.414 34.5274 10.408 34.5267 10.402L34.5257 10.393C34.5247 10.387 34.5236 10.3811 34.5226 10.3751L34.5206 10.3662L34.5183 10.3575C34.5165 10.3518 34.5146 10.346 34.5127 10.3403C34.5099 10.3316 34.5064 10.3232 34.5023 10.315L34.4982 10.3069C34.4942 10.2988 34.4896 10.2909 34.4844 10.2834C34.4809 10.2785 34.4774 10.2736 34.4739 10.2687C34.4701 10.264 34.4663 10.2593 34.4624 10.2547C34.4585 10.25 34.4544 10.2456 34.45 10.2414L34.4434 10.2351L34.4367 10.229C34.4322 10.225 34.4274 10.2212 34.4225 10.2177C34.4201 10.2159 34.4176 10.2141 34.4152 10.2123C34.4127 10.2105 34.4101 10.2088 34.4077 10.2073L34.4 10.2024L34.3921 10.1978L34.3841 10.1935L33.169 9.56953C33.1506 9.56022 33.1334 9.54872 33.1178 9.53529C33.1022 9.52178 33.0882 9.50661 33.0759 9.49005C33.068 9.47888 33.0608 9.46725 33.0543 9.45521L32.4302 8.23988C32.4275 8.23443 32.4245 8.22913 32.4213 8.22398C32.4168 8.21612 32.4118 8.20861 32.4062 8.20152C32.4026 8.19657 32.3988 8.19183 32.3947 8.1873C32.3908 8.18265 32.3867 8.17821 32.3823 8.17401C32.3802 8.1719 32.3781 8.16981 32.3759 8.16774L32.3692 8.16163C32.3669 8.15959 32.3645 8.1576 32.3622 8.15567L32.3551 8.15001C32.3527 8.14821 32.3503 8.14642 32.3478 8.14466L32.3403 8.13962L32.3327 8.13473C32.3275 8.13146 32.3222 8.12845 32.3168 8.12571C32.3088 8.12133 32.3005 8.11755 32.292 8.1144C32.2695 8.10556 32.2458 8.09981 32.2217 8.09729C32.2097 8.09585 32.1976 8.09539 32.1855 8.09591C32.1398 8.09741 32.0953 8.11079 32.0563 8.13473L32.0487 8.13962L32.0412 8.14466C32.0387 8.14642 32.0363 8.14821 32.0339 8.15001L32.0268 8.15567C32.0245 8.15755 32.0221 8.15948 32.0198 8.16148L32.0131 8.16759C32.0066 8.17399 32.0004 8.18056 31.9943 8.1873L31.9885 8.19433C31.9866 8.19663 31.9847 8.19892 31.9828 8.20152L31.9776 8.2087C31.9758 8.2112 31.9741 8.21375 31.9724 8.21634L31.9677 8.22398L31.9631 8.23178ZM36.8619 11.3713L36.8536 11.3867L35.6554 13.72C35.6316 13.7671 35.6003 13.8101 35.5628 13.8473C35.535 13.8755 35.5039 13.9001 35.4702 13.9207C35.459 13.9276 35.4475 13.9341 35.4358 13.9401L33.1025 15.1389C33.0869 15.1467 33.0719 15.1554 33.0574 15.1651C33.0525 15.1682 33.0477 15.1715 33.0429 15.1748L33.0288 15.1851C33.0195 15.192 33.0105 15.1993 33.0018 15.2069C32.9932 15.2147 32.9847 15.2226 32.9764 15.2306C32.968 15.2387 32.9601 15.2472 32.9526 15.2561C32.9372 15.2736 32.9232 15.292 32.9105 15.3115C32.9042 15.3212 32.8981 15.331 32.8923 15.3411C32.8896 15.3462 32.8867 15.3512 32.8841 15.3564L32.8763 15.372C32.8689 15.3877 32.8622 15.4038 32.8563 15.4201L32.8508 15.4366C32.8489 15.4421 32.8474 15.4478 32.8457 15.4534C32.8427 15.4646 32.8399 15.4758 32.8375 15.4871L32.8343 15.5042C32.8315 15.5214 32.8294 15.5388 32.828 15.5562L32.8271 15.5734C32.8269 15.5792 32.8268 15.585 32.8268 15.5908L32.8271 15.6083L32.828 15.6255L32.8295 15.643C32.8301 15.6486 32.8307 15.6544 32.8317 15.6601L32.8343 15.6773L32.8375 15.6945C32.8399 15.7058 32.8427 15.7171 32.8457 15.7282C32.8474 15.7337 32.8489 15.7394 32.8508 15.7449L32.8563 15.7614C32.8622 15.7777 32.8689 15.7938 32.8763 15.8095L32.8841 15.8251C32.8867 15.8303 32.8896 15.8354 32.8923 15.8404C32.9039 15.8605 32.9166 15.8799 32.9305 15.8985C32.9588 15.9354 32.9918 15.9684 33.0288 15.9965L33.0429 16.0067C33.0524 16.0134 33.0621 16.0198 33.0721 16.0258C33.082 16.0318 33.0921 16.0374 33.1025 16.0426L35.4353 17.2408C35.4588 17.2527 35.4813 17.2665 35.5026 17.2821C35.5345 17.3054 35.5636 17.3324 35.5894 17.3623C35.6065 17.3824 35.6221 17.4037 35.636 17.4261C35.6429 17.4374 35.6494 17.4488 35.6554 17.4605L36.8542 19.7938C36.8622 19.8092 36.8709 19.8242 36.8804 19.8388C36.8899 19.8534 36.9001 19.8675 36.9111 19.881L36.9222 19.8945C36.9299 19.9032 36.9379 19.9116 36.9461 19.9198L36.9585 19.9321C36.9711 19.944 36.9844 19.9552 36.9984 19.9657C37.0121 19.9763 37.0265 19.9861 37.0415 19.995C37.0662 20.0103 37.0922 20.0233 37.1192 20.0339C37.1354 20.0401 37.1519 20.0457 37.1686 20.0505C37.1854 20.0551 37.2024 20.0589 37.2195 20.062C37.2711 20.0707 37.3237 20.0716 37.3755 20.0646C37.4505 20.0542 37.5223 20.0273 37.5855 19.9857L37.5999 19.9759C37.6046 19.9726 37.6092 19.9692 37.6138 19.9657L37.6276 19.955C37.6364 19.9475 37.6452 19.9399 37.6537 19.9321C37.675 19.9124 37.6945 19.8907 37.7118 19.8674C37.7293 19.8442 37.7448 19.8196 37.7581 19.7938L38.9568 17.4611C38.9747 17.4258 38.9968 17.3928 39.0226 17.3628C39.0395 17.3426 39.0581 17.3239 39.0783 17.3069C39.1084 17.2812 39.1413 17.2591 39.1764 17.2408L41.5098 16.0426L41.5251 16.0345L41.5402 16.0258C41.5603 16.0139 41.5794 16.0006 41.5974 15.9858C41.6063 15.9784 41.6151 15.9708 41.6237 15.963C41.645 15.9432 41.6646 15.9216 41.6822 15.8985L41.6926 15.8844C41.7094 15.8608 41.7241 15.8357 41.7366 15.8095L41.744 15.7937C41.7486 15.783 41.7529 15.7722 41.7568 15.7613L41.7623 15.7447C41.7661 15.7337 41.7692 15.7225 41.7718 15.7111C41.7745 15.6998 41.7769 15.6885 41.779 15.677L41.7816 15.6598L41.7837 15.6425C41.7848 15.6309 41.7855 15.6193 41.786 15.6077C41.7863 15.6018 41.7863 15.596 41.7863 15.5902C41.7863 15.5844 41.7863 15.5786 41.786 15.5728C41.7855 15.5612 41.7848 15.5497 41.7837 15.5381C41.7817 15.5208 41.779 15.5036 41.7756 15.4865L41.7718 15.4695C41.7689 15.4582 41.7658 15.447 41.7623 15.4359L41.7568 15.4194C41.7528 15.4084 41.7486 15.3976 41.744 15.387C41.7415 15.3816 41.7392 15.3763 41.7366 15.3711C41.7342 15.3658 41.7316 15.3606 41.7288 15.3555C41.7237 15.3451 41.718 15.335 41.7117 15.3252C41.7057 15.3153 41.6993 15.3057 41.6926 15.2962L41.6822 15.282C41.6432 15.2312 41.595 15.1881 41.5402 15.1548C41.5303 15.1488 41.5202 15.1432 41.5098 15.138L39.1768 13.9398C39.1535 13.9276 39.131 13.9138 39.1096 13.8984C39.0456 13.8515 38.9933 13.7904 38.9568 13.72L37.7585 11.3867C37.7559 11.3815 37.7532 11.3764 37.7503 11.3714C37.7449 11.3611 37.7389 11.3511 37.7324 11.3415C37.7229 11.3269 37.7126 11.3127 37.7017 11.2991L37.6905 11.2858C37.6829 11.2771 37.6749 11.2686 37.6667 11.2603L37.6543 11.2481C37.6416 11.2361 37.6283 11.2249 37.6144 11.2143L37.6004 11.2039L37.586 11.1941C37.5763 11.1876 37.5664 11.1815 37.5562 11.1758C37.536 11.1642 37.515 11.1542 37.4934 11.1458C37.4717 11.1374 37.4495 11.1304 37.4269 11.1248C37.41 11.1205 37.3928 11.1172 37.3755 11.115C37.3526 11.1116 37.3294 11.11 37.3062 11.1101C37.2244 11.1102 37.1438 11.1299 37.0713 11.1677C37.0505 11.1783 37.0307 11.1904 37.0118 11.2041C37.0071 11.2073 37.0025 11.2108 36.9977 11.2143C36.9839 11.2248 36.9706 11.2361 36.958 11.2481C36.9367 11.2679 36.9172 11.2896 36.8998 11.3129L36.8895 11.3271C36.8829 11.3366 36.8766 11.3464 36.8706 11.3563C36.8677 11.3612 36.8646 11.3662 36.8619 11.3713Z" fill="#4AF1EC"/>
<path d="M31.9631 8.23178C31.9616 8.23444 31.9602 8.23714 31.9588 8.23988L31.3347 9.45521C31.3286 9.46753 31.3214 9.47925 31.3131 9.49021C31.3011 9.50694 31.2871 9.52213 31.2714 9.53544C31.2558 9.54884 31.2386 9.56038 31.2203 9.56983L30.0049 10.1942L29.9969 10.1984C29.9838 10.2059 29.9713 10.2144 29.9595 10.2238L29.9524 10.2296L29.9457 10.2357C29.9393 10.242 29.933 10.2485 29.9269 10.2551C29.923 10.2598 29.9192 10.2645 29.9155 10.2692C29.9117 10.2739 29.9082 10.2789 29.9049 10.284L29.9 10.2917L29.8954 10.2995L29.8912 10.3074C29.8883 10.3127 29.8857 10.3182 29.8834 10.3238L29.8798 10.3322C29.8776 10.3378 29.8756 10.3435 29.8739 10.3493C29.872 10.355 29.8703 10.3608 29.869 10.3667L29.8669 10.3756L29.8652 10.3844L29.8638 10.3933L29.8627 10.4025L29.862 10.4113L29.8615 10.4205L29.8614 10.4295C29.8613 10.4355 29.8615 10.4416 29.862 10.4476L29.8627 10.4567L29.8638 10.4656L29.8652 10.4746L29.8669 10.4835L29.869 10.4923C29.8714 10.5042 29.875 10.5158 29.8798 10.5269L29.8834 10.5353C29.8857 10.5409 29.8883 10.5463 29.8912 10.5516L29.8954 10.5596L29.9 10.5672L29.9049 10.5749C29.9082 10.58 29.9117 10.585 29.9155 10.5898L29.921 10.5969C29.9249 10.6015 29.9288 10.6061 29.9329 10.6106C29.9371 10.6149 29.9414 10.6191 29.9457 10.6233L29.9524 10.6294L29.9595 10.6352C29.9641 10.6391 29.969 10.6427 29.974 10.6461C29.9789 10.6496 29.9839 10.653 29.9891 10.656L29.9969 10.6606L30.0049 10.6649L31.22 11.2889C31.2384 11.2982 31.2556 11.3097 31.2712 11.3231C31.2868 11.3366 31.3008 11.3518 31.3131 11.3684C31.3212 11.3795 31.3284 11.3912 31.3347 11.4034L31.9591 12.6185C31.9618 12.624 31.9648 12.6293 31.968 12.6344C31.971 12.6397 31.9742 12.6448 31.9778 12.6497L31.9831 12.6569C31.9867 12.6618 31.9905 12.6665 31.9946 12.671C31.9985 12.6756 32.0026 12.68 32.007 12.6843L32.0134 12.6905L32.0201 12.6966C32.0246 12.7007 32.0293 12.7045 32.0342 12.7081C32.0415 12.7135 32.049 12.7186 32.0566 12.7234L32.0644 12.728L32.0724 12.7324L32.0805 12.7364L32.0887 12.7402L32.0971 12.7436C32.1055 12.7471 32.1142 12.75 32.123 12.7523C32.1317 12.7546 32.1405 12.7567 32.1494 12.7584C32.1584 12.76 32.1674 12.761 32.1765 12.7614C32.2036 12.7632 32.2309 12.7609 32.2573 12.7546L32.266 12.7523L32.2747 12.7497C32.2805 12.7479 32.2862 12.7459 32.2919 12.7436L32.3003 12.7402L32.3085 12.7364L32.3166 12.7324L32.3246 12.728C32.335 12.7219 32.3451 12.7153 32.3548 12.7081C32.3597 12.7045 32.3644 12.7007 32.3689 12.6966L32.3756 12.6905C32.3821 12.6842 32.3883 12.6777 32.3944 12.671C32.3985 12.6665 32.4023 12.6618 32.4059 12.6569L32.4112 12.6496C32.4146 12.6446 32.4178 12.6395 32.421 12.6344C32.4242 12.6293 32.4272 12.624 32.4299 12.6185L33.0543 11.4035C33.0604 11.3912 33.0676 11.3795 33.0759 11.3685C33.0879 11.3518 33.1019 11.3366 33.1176 11.3233C33.1333 11.3099 33.1504 11.2984 33.1687 11.2889L34.3841 10.6649L34.3921 10.6606L34.4 10.656L34.4077 10.6513L34.4152 10.6462C34.4226 10.6409 34.4297 10.6353 34.4367 10.6294L34.4434 10.6233L34.45 10.6172C34.4544 10.613 34.4585 10.6085 34.4624 10.6039C34.4663 10.5993 34.4701 10.5946 34.4739 10.5898C34.4774 10.5849 34.4809 10.58 34.4844 10.575C34.4878 10.57 34.491 10.5648 34.4939 10.5594L34.4982 10.5515C34.4997 10.5489 34.5009 10.5461 34.5023 10.5434C34.5064 10.5353 34.5099 10.5269 34.5127 10.5183C34.5149 10.5126 34.5167 10.5068 34.5183 10.5009L34.5206 10.4922L34.5226 10.4833C34.5239 10.4774 34.525 10.4714 34.5257 10.4654L34.5267 10.4564C34.5274 10.4504 34.5279 10.4444 34.528 10.4384L34.5281 10.4292L34.528 10.42C34.5279 10.414 34.5274 10.408 34.5267 10.402L34.5257 10.393C34.5247 10.387 34.5236 10.3811 34.5226 10.3751L34.5206 10.3662L34.5183 10.3575C34.5165 10.3518 34.5146 10.346 34.5127 10.3403C34.5099 10.3316 34.5064 10.3232 34.5023 10.315L34.4982 10.3069C34.4942 10.2988 34.4896 10.2909 34.4844 10.2834C34.4809 10.2785 34.4774 10.2736 34.4739 10.2687C34.4701 10.264 34.4663 10.2593 34.4624 10.2547C34.4585 10.25 34.4544 10.2456 34.45 10.2414L34.4434 10.2351L34.4367 10.229C34.4322 10.225 34.4274 10.2212 34.4225 10.2177C34.4201 10.2159 34.4176 10.2141 34.4152 10.2123C34.4127 10.2105 34.4101 10.2088 34.4077 10.2073L34.4 10.2024L34.3921 10.1978L34.3841 10.1935L33.169 9.56953C33.1506 9.56022 33.1334 9.54872 33.1178 9.53529C33.1022 9.52178 33.0882 9.50661 33.0759 9.49005C33.068 9.47888 33.0608 9.46725 33.0543 9.45521L32.4302 8.23988C32.4275 8.23443 32.4245 8.22913 32.4213 8.22398C32.4168 8.21612 32.4118 8.20861 32.4062 8.20152C32.4026 8.19657 32.3988 8.19183 32.3947 8.1873C32.3908 8.18265 32.3867 8.17821 32.3823 8.17401C32.3802 8.1719 32.3781 8.16981 32.3759 8.16774L32.3692 8.16163C32.3669 8.15959 32.3645 8.1576 32.3622 8.15567L32.3551 8.15001C32.3527 8.14821 32.3503 8.14642 32.3478 8.14466L32.3403 8.13962L32.3327 8.13473C32.3275 8.13146 32.3222 8.12845 32.3168 8.12571C32.3088 8.12133 32.3005 8.11755 32.292 8.1144C32.2695 8.10556 32.2458 8.09981 32.2217 8.09729C32.2097 8.09585 32.1976 8.09539 32.1855 8.09591C32.1398 8.09741 32.0953 8.11079 32.0563 8.13473L32.0487 8.13962L32.0412 8.14466C32.0387 8.14642 32.0363 8.14821 32.0339 8.15001L32.0268 8.15567C32.0245 8.15755 32.0221 8.15948 32.0198 8.16148L32.0131 8.16759C32.0066 8.17399 32.0004 8.18056 31.9943 8.1873L31.9885 8.19433C31.9866 8.19663 31.9847 8.19892 31.9828 8.20152L31.9776 8.2087C31.9758 8.2112 31.9741 8.21375 31.9724 8.21634L31.9677 8.22398L31.9631 8.23178ZM36.8619 11.3713L36.8536 11.3867L35.6554 13.72C35.6316 13.7671 35.6003 13.8101 35.5628 13.8473C35.535 13.8755 35.5039 13.9001 35.4702 13.9207C35.459 13.9276 35.4475 13.9341 35.4358 13.9401L33.1025 15.1389C33.0869 15.1467 33.0719 15.1554 33.0574 15.1651C33.0525 15.1682 33.0477 15.1715 33.0429 15.1748L33.0288 15.1851C33.0195 15.192 33.0105 15.1993 33.0018 15.2069C32.9932 15.2147 32.9847 15.2226 32.9764 15.2306C32.968 15.2387 32.9601 15.2472 32.9526 15.2561C32.9372 15.2736 32.9232 15.292 32.9105 15.3115C32.9042 15.3212 32.8981 15.331 32.8923 15.3411C32.8896 15.3462 32.8867 15.3512 32.8841 15.3564L32.8763 15.372C32.8689 15.3877 32.8622 15.4038 32.8563 15.4201L32.8508 15.4366C32.8489 15.4421 32.8474 15.4478 32.8457 15.4534C32.8427 15.4646 32.8399 15.4758 32.8375 15.4871L32.8343 15.5042C32.8315 15.5214 32.8294 15.5388 32.828 15.5562L32.8271 15.5734C32.8269 15.5792 32.8268 15.585 32.8268 15.5908L32.8271 15.6083L32.828 15.6255L32.8295 15.643C32.8301 15.6486 32.8307 15.6544 32.8317 15.6601L32.8343 15.6773L32.8375 15.6945C32.8399 15.7058 32.8427 15.7171 32.8457 15.7282C32.8474 15.7337 32.8489 15.7394 32.8508 15.7449L32.8563 15.7614C32.8622 15.7777 32.8689 15.7938 32.8763 15.8095L32.8841 15.8251C32.8867 15.8303 32.8896 15.8354 32.8923 15.8404C32.9039 15.8605 32.9166 15.8799 32.9305 15.8985C32.9588 15.9354 32.9918 15.9684 33.0288 15.9965L33.0429 16.0067C33.0524 16.0134 33.0621 16.0198 33.0721 16.0258C33.082 16.0318 33.0921 16.0374 33.1025 16.0426L35.4353 17.2408C35.4588 17.2527 35.4813 17.2665 35.5026 17.2821C35.5345 17.3054 35.5636 17.3324 35.5894 17.3623C35.6065 17.3824 35.6221 17.4037 35.636 17.4261C35.6429 17.4374 35.6494 17.4488 35.6554 17.4605L36.8542 19.7938C36.8622 19.8092 36.8709 19.8242 36.8804 19.8388C36.8899 19.8534 36.9001 19.8675 36.9111 19.881L36.9222 19.8945C36.9299 19.9032 36.9379 19.9116 36.9461 19.9198L36.9585 19.9321C36.9711 19.944 36.9844 19.9552 36.9984 19.9657C37.0121 19.9763 37.0265 19.9861 37.0415 19.995C37.0662 20.0103 37.0922 20.0233 37.1192 20.0339C37.1354 20.0401 37.1519 20.0457 37.1686 20.0505C37.1854 20.0551 37.2024 20.0589 37.2195 20.062C37.2711 20.0707 37.3237 20.0716 37.3755 20.0646C37.4505 20.0542 37.5223 20.0273 37.5855 19.9857L37.5999 19.9759C37.6046 19.9726 37.6092 19.9692 37.6138 19.9657L37.6276 19.955C37.6364 19.9475 37.6452 19.9399 37.6537 19.9321C37.675 19.9124 37.6945 19.8907 37.7118 19.8674C37.7293 19.8442 37.7448 19.8196 37.7581 19.7938L38.9568 17.4611C38.9747 17.4258 38.9968 17.3928 39.0226 17.3628C39.0395 17.3426 39.0581 17.3239 39.0783 17.3069C39.1084 17.2812 39.1413 17.2591 39.1764 17.2408L41.5098 16.0426L41.5251 16.0345L41.5402 16.0258C41.5603 16.0139 41.5794 16.0006 41.5974 15.9858C41.6063 15.9784 41.6151 15.9708 41.6237 15.963C41.645 15.9432 41.6646 15.9216 41.6822 15.8985L41.6926 15.8844C41.7094 15.8608 41.7241 15.8357 41.7366 15.8095L41.744 15.7937C41.7486 15.783 41.7529 15.7722 41.7568 15.7613L41.7623 15.7447C41.7661 15.7337 41.7692 15.7225 41.7718 15.7111C41.7745 15.6998 41.7769 15.6885 41.779 15.677L41.7816 15.6598L41.7837 15.6425C41.7848 15.6309 41.7855 15.6193 41.786 15.6077C41.7863 15.6018 41.7863 15.596 41.7863 15.5902C41.7863 15.5844 41.7863 15.5786 41.786 15.5728C41.7855 15.5612 41.7848 15.5497 41.7837 15.5381C41.7817 15.5208 41.779 15.5036 41.7756 15.4865L41.7718 15.4695C41.7689 15.4582 41.7658 15.447 41.7623 15.4359L41.7568 15.4194C41.7528 15.4084 41.7486 15.3976 41.744 15.387C41.7415 15.3816 41.7392 15.3763 41.7366 15.3711C41.7342 15.3658 41.7316 15.3606 41.7288 15.3555C41.7237 15.3451 41.718 15.335 41.7117 15.3252C41.7057 15.3153 41.6993 15.3057 41.6926 15.2962L41.6822 15.282C41.6432 15.2312 41.595 15.1881 41.5402 15.1548C41.5303 15.1488 41.5202 15.1432 41.5098 15.138L39.1768 13.9398C39.1535 13.9276 39.131 13.9138 39.1096 13.8984C39.0456 13.8515 38.9933 13.7904 38.9568 13.72L37.7585 11.3867C37.7559 11.3815 37.7532 11.3764 37.7503 11.3714C37.7449 11.3611 37.7389 11.3511 37.7324 11.3415C37.7229 11.3269 37.7126 11.3127 37.7017 11.2991L37.6905 11.2858C37.6829 11.2771 37.6749 11.2686 37.6667 11.2603L37.6543 11.2481C37.6416 11.2361 37.6283 11.2249 37.6144 11.2143L37.6004 11.2039L37.586 11.1941C37.5763 11.1876 37.5664 11.1815 37.5562 11.1758C37.536 11.1642 37.515 11.1542 37.4934 11.1458C37.4717 11.1374 37.4495 11.1304 37.4269 11.1248C37.41 11.1205 37.3928 11.1172 37.3755 11.115C37.3526 11.1116 37.3294 11.11 37.3062 11.1101C37.2244 11.1102 37.1438 11.1299 37.0713 11.1677C37.0505 11.1783 37.0307 11.1904 37.0118 11.2041C37.0071 11.2073 37.0025 11.2108 36.9977 11.2143C36.9839 11.2248 36.9706 11.2361 36.958 11.2481C36.9367 11.2679 36.9172 11.2896 36.8998 11.3129L36.8895 11.3271C36.8829 11.3366 36.8766 11.3464 36.8706 11.3563C36.8677 11.3612 36.8646 11.3662 36.8619 11.3713Z" stroke="#12293F" stroke-width="2" mask="url(#path-3-outside-1_368_8257)"/>
<defs>
<linearGradient id="paint0_linear_368_8257" x1="34.793" y1="14.3332" x2="12.3115" y2="36.8147" gradientUnits="userSpaceOnUse">
<stop stop-color="#4CFFF0"/>
<stop offset="1" stop-color="#3C99D3"/>
</linearGradient>
</defs>
</svg>
