<svg width="48" height="48" viewBox="0 0 48 48" fill="none" xmlns="http://www.w3.org/2000/svg">
<rect width="48" height="48" rx="8" fill="#365EBF" fill-opacity="0.33"/>
<path d="M19.4356 29.1883H14.1155C13.4209 29.1883 12.9417 28.4931 13.1889 27.8444L18.4753 13.9685C18.5468 13.7808 18.6737 13.6192 18.8391 13.5052C19.0045 13.3912 19.2007 13.3301 19.4016 13.3301H28.3222C29.026 13.3301 29.5058 14.0432 29.2401 14.6951L26.1621 22.2504H31.9567C32.8089 22.2504 33.2636 23.2549 32.7015 23.8953L18.4945 40.0837C17.8039 40.8708 16.5234 40.1888 16.7914 39.1766L19.4356 29.1883Z" fill="url(#paint0_linear_347_8056)"/>
<path d="M32.2745 7.70504C32.2731 7.7076 32.2717 7.71019 32.2704 7.71282L31.6703 8.8812C31.6645 8.89305 31.6576 8.90432 31.6496 8.91485C31.6381 8.93093 31.6246 8.94554 31.6095 8.95834C31.5945 8.97122 31.578 8.98231 31.5604 8.9914L30.3919 9.5916L30.3843 9.59572C30.3716 9.60291 30.3596 9.61106 30.3483 9.62011L30.3415 9.62569L30.335 9.63157C30.3288 9.63762 30.3228 9.64384 30.317 9.65023C30.3132 9.65468 30.3096 9.65919 30.3059 9.66374C30.3023 9.66831 30.2989 9.67307 30.2958 9.678L30.2911 9.68534L30.2867 9.69284L30.2826 9.70048C30.2798 9.70558 30.2773 9.71083 30.2751 9.7162L30.2717 9.72428C30.2695 9.72966 30.2676 9.73515 30.266 9.74074C30.2641 9.74623 30.2626 9.75183 30.2613 9.75749L30.2592 9.76601L30.2576 9.77453L30.2563 9.78305L30.2553 9.79187L30.2545 9.80039L30.2541 9.8092L30.2539 9.81787C30.2538 9.82366 30.254 9.82944 30.2545 9.83521L30.2553 9.84403L30.2563 9.85255L30.2576 9.86122L30.2592 9.86974L30.2613 9.87826C30.2636 9.88966 30.2671 9.90079 30.2717 9.91147L30.2751 9.91955C30.2773 9.92491 30.2798 9.93016 30.2826 9.93527L30.2867 9.94291L30.2911 9.95026L30.2958 9.9576C30.2989 9.96258 30.3023 9.96738 30.3059 9.972L30.3112 9.97876C30.315 9.98322 30.3188 9.98763 30.3227 9.99198C30.3268 9.99611 30.3309 10.0002 30.335 10.0042L30.3415 10.0101L30.3483 10.0156C30.3527 10.0193 30.3574 10.0228 30.3622 10.0261C30.3669 10.0295 30.3718 10.0327 30.3768 10.0356L30.3843 10.04L30.3919 10.0441L31.5601 10.6441C31.5778 10.653 31.5943 10.6641 31.6093 10.677C31.6243 10.69 31.6378 10.7045 31.6496 10.7205C31.6574 10.7311 31.6643 10.7424 31.6703 10.7541L32.2707 11.9223C32.2732 11.9276 32.2761 11.9327 32.2792 11.9376C32.2821 11.9427 32.2852 11.9476 32.2886 11.9523L32.2937 11.9592C32.2972 11.9639 32.3008 11.9684 32.3048 11.9727C32.3085 11.9772 32.3125 11.9815 32.3167 11.9855L32.3228 11.9915L32.3293 11.9974C32.3336 12.0013 32.3381 12.005 32.3428 12.0084C32.3498 12.0136 32.357 12.0185 32.3644 12.0231L32.3719 12.0275L32.3795 12.0318L32.3873 12.0356L32.3953 12.0393L32.4034 12.0425C32.4114 12.0459 32.4197 12.0487 32.4282 12.0509C32.4366 12.0532 32.4451 12.0551 32.4536 12.0568C32.4622 12.0583 32.4709 12.0593 32.4796 12.0597C32.5057 12.0614 32.5319 12.0592 32.5573 12.0531L32.5657 12.0509L32.5741 12.0484C32.5797 12.0467 32.5851 12.0447 32.5905 12.0425L32.5986 12.0393L32.6066 12.0356L32.6143 12.0318L32.622 12.0275C32.632 12.0217 32.6417 12.0153 32.6511 12.0084C32.6558 12.005 32.6603 12.0013 32.6646 11.9974L32.6711 11.9915C32.6773 11.9854 32.6833 11.9792 32.6891 11.9727C32.693 11.9684 32.6967 11.9639 32.7001 11.9592L32.7053 11.9522C32.7085 11.9474 32.7116 11.9425 32.7147 11.9376C32.7178 11.9327 32.7207 11.9276 32.7232 11.9223L33.3236 10.7542C33.3294 10.7424 33.3363 10.7311 33.3443 10.7206C33.3558 10.7045 33.3693 10.6899 33.3844 10.6771C33.3995 10.6643 33.4159 10.6532 33.4335 10.6441L34.602 10.0441L34.6096 10.04L34.6173 10.0356L34.6246 10.0311L34.6318 10.0262C34.6389 10.0211 34.6458 10.0157 34.6525 10.0101L34.659 10.0042L34.6653 9.9983C34.6695 9.99424 34.6735 9.98998 34.6772 9.98552C34.681 9.98106 34.6846 9.97655 34.6882 9.972C34.6917 9.96729 34.6951 9.96254 34.6984 9.95775C34.7017 9.95292 34.7047 9.94792 34.7075 9.94276L34.7116 9.93512C34.7131 9.93262 34.7142 9.92998 34.7156 9.92733C34.7195 9.91957 34.7229 9.91152 34.7256 9.90324C34.7277 9.89775 34.7295 9.89216 34.731 9.88649L34.7332 9.87811L34.7351 9.86959C34.7364 9.86392 34.7374 9.85818 34.738 9.8524L34.7391 9.84373C34.7398 9.83798 34.7402 9.83219 34.7403 9.82639L34.7404 9.81758L34.7403 9.80876C34.7402 9.80297 34.7398 9.79718 34.7391 9.79143L34.738 9.78276C34.7371 9.77703 34.7361 9.7713 34.7351 9.76557L34.7332 9.75704L34.731 9.74867C34.7292 9.74313 34.7274 9.7376 34.7256 9.73207C34.7229 9.72373 34.7195 9.71563 34.7156 9.70782L34.7116 9.70004C34.7078 9.69216 34.7034 9.6846 34.6984 9.67741C34.6951 9.67267 34.6917 9.66797 34.6882 9.6633C34.6846 9.65875 34.681 9.65425 34.6772 9.64979C34.6735 9.64531 34.6695 9.64105 34.6653 9.637L34.659 9.63098L34.6525 9.6251C34.6482 9.62125 34.6436 9.61762 34.6389 9.61423C34.6365 9.61249 34.6342 9.61078 34.6318 9.60909C34.6295 9.60732 34.627 9.60571 34.6246 9.60424L34.6173 9.59954L34.6096 9.59513L34.602 9.59101L33.4338 8.9911C33.4161 8.98216 33.3996 8.97111 33.3845 8.95819C33.3696 8.94521 33.3561 8.93062 33.3443 8.9147C33.3367 8.90396 33.3298 8.89278 33.3236 8.8812L32.7235 7.71282C32.7209 7.70759 32.7181 7.70249 32.715 7.69754C32.7107 7.68998 32.7058 7.68276 32.7004 7.67595C32.697 7.67119 32.6933 7.66663 32.6894 7.66228C32.6857 7.65781 32.6817 7.65354 32.6775 7.6495C32.6755 7.64747 32.6734 7.64546 32.6713 7.64347L32.6649 7.6376C32.6627 7.63563 32.6604 7.63372 32.6581 7.63187L32.6514 7.62643C32.649 7.62469 32.6467 7.62298 32.6443 7.62129L32.6371 7.61644L32.6298 7.61174C32.6248 7.60859 32.6197 7.6057 32.6145 7.60307C32.6068 7.59886 32.5989 7.59522 32.5907 7.5922C32.569 7.5837 32.5463 7.57816 32.5231 7.57574C32.5115 7.57436 32.4999 7.57392 32.4883 7.57442C32.4444 7.57586 32.4016 7.58872 32.3641 7.61174L32.3568 7.61644L32.3496 7.62129C32.3472 7.62298 32.3449 7.62469 32.3425 7.62643L32.3358 7.63187C32.3335 7.63367 32.3312 7.63554 32.329 7.63745L32.3225 7.64333C32.3163 7.64948 32.3103 7.6558 32.3045 7.66228L32.2989 7.66904C32.2971 7.67124 32.2952 7.67345 32.2934 7.67595L32.2885 7.68285C32.2867 7.68526 32.2851 7.6877 32.2835 7.6902L32.2789 7.69754L32.2745 7.70504ZM36.984 10.7232L36.9761 10.7381L35.8241 12.9812C35.8012 13.0266 35.7712 13.0679 35.7351 13.1036C35.7084 13.1307 35.6785 13.1544 35.6461 13.1742C35.6353 13.1808 35.6243 13.1871 35.613 13.1928L33.3698 14.3453C33.3549 14.3528 33.3404 14.3612 33.3265 14.3705C33.3218 14.3735 33.3171 14.3766 33.3125 14.3799L33.299 14.3897C33.2901 14.3963 33.2814 14.4034 33.273 14.4107C33.2648 14.4182 33.2566 14.4258 33.2486 14.4335C33.2406 14.4413 33.2329 14.4495 33.2257 14.458C33.211 14.4748 33.1975 14.4926 33.1853 14.5112C33.1792 14.5205 33.1734 14.53 33.1678 14.5397C33.1652 14.5446 33.1624 14.5494 33.1599 14.5544L33.1524 14.5694C33.1453 14.5845 33.1389 14.6 33.1331 14.6157L33.1279 14.6316C33.1261 14.6368 33.1246 14.6423 33.123 14.6477C33.1201 14.6584 33.1174 14.6692 33.1151 14.68L33.112 14.6965C33.1093 14.7131 33.1073 14.7297 33.106 14.7465L33.1051 14.7631C33.1049 14.7686 33.1048 14.7742 33.1048 14.7798L33.1051 14.7966L33.106 14.8132L33.1074 14.8299C33.108 14.8353 33.1086 14.8409 33.1095 14.8464L33.112 14.863L33.1151 14.8794C33.1174 14.8903 33.1201 14.9011 33.123 14.9119C33.1246 14.9172 33.1261 14.9226 33.1279 14.9279L33.1331 14.9438C33.1389 14.9595 33.1453 14.9749 33.1524 14.9901L33.1599 15.005C33.1624 15.01 33.1652 15.0149 33.1678 15.0197C33.1789 15.0391 33.1912 15.0577 33.2046 15.0756C33.2317 15.1111 33.2635 15.1427 33.299 15.1698L33.3125 15.1796C33.3217 15.1861 33.331 15.1922 33.3406 15.198C33.3502 15.2037 33.3599 15.2091 33.3698 15.2141L35.6126 16.366C35.6352 16.3775 35.6568 16.3908 35.6772 16.4057C35.7079 16.4282 35.7359 16.454 35.7607 16.4829C35.7771 16.5021 35.7921 16.5226 35.8055 16.5441C35.8121 16.555 35.8184 16.566 35.8241 16.5772L36.9767 18.8203C36.9843 18.8352 36.9927 18.8497 37.0018 18.8637C37.0109 18.8777 37.0208 18.8912 37.0313 18.9042L37.042 18.9172C37.0494 18.9256 37.0571 18.9337 37.065 18.9416L37.0769 18.9533C37.089 18.9648 37.1018 18.9756 37.1152 18.9856C37.1285 18.9958 37.1423 19.0053 37.1566 19.0139C37.1804 19.0285 37.2054 19.041 37.2314 19.0512C37.247 19.0572 37.2628 19.0626 37.2789 19.0672C37.295 19.0716 37.3113 19.0753 37.3278 19.0782C37.3774 19.0866 37.428 19.0874 37.4778 19.0807C37.5499 19.0707 37.6189 19.0448 37.6797 19.0049L37.6935 18.9955C37.698 18.9923 37.7025 18.989 37.7069 18.9856L37.7201 18.9754C37.7287 18.9682 37.737 18.9608 37.7452 18.9533C37.7657 18.9344 37.7844 18.9136 37.8011 18.8912C37.8179 18.8689 37.8328 18.8452 37.8456 18.8203L38.998 16.5778C39.0152 16.5439 39.0365 16.5122 39.0613 16.4833C39.0775 16.4639 39.0954 16.4459 39.1148 16.4295C39.1437 16.4049 39.1754 16.3836 39.2091 16.366L41.4524 15.2141L41.4671 15.2063L41.4816 15.198C41.5009 15.1866 41.5193 15.1737 41.5366 15.1595C41.5452 15.1523 41.5536 15.145 41.5619 15.1376C41.5823 15.1185 41.6011 15.0978 41.6181 15.0756L41.6281 15.0621C41.6442 15.0393 41.6584 15.0152 41.6704 14.9901L41.6775 14.9748C41.6819 14.9645 41.686 14.9541 41.6898 14.9436L41.6951 14.9278C41.6987 14.9172 41.7018 14.9064 41.7042 14.8954C41.7068 14.8846 41.7091 14.8737 41.7111 14.8627L41.7136 14.8461L41.7157 14.8295C41.7167 14.8183 41.7175 14.8072 41.7179 14.796C41.7182 14.7904 41.7182 14.7848 41.7182 14.7792C41.7182 14.7736 41.7182 14.768 41.7179 14.7625C41.7175 14.7513 41.7167 14.7402 41.7157 14.7291C41.7138 14.7125 41.7112 14.6959 41.7079 14.6795L41.7042 14.6631C41.7015 14.6523 41.6985 14.6415 41.6951 14.6308L41.6898 14.6149C41.686 14.6044 41.6819 14.5941 41.6775 14.5838C41.6751 14.5787 41.6729 14.5735 41.6704 14.5685C41.6681 14.5635 41.6656 14.5585 41.663 14.5535C41.658 14.5435 41.6525 14.5338 41.6465 14.5244C41.6407 14.515 41.6345 14.5056 41.6281 14.4965L41.6181 14.4829C41.5806 14.434 41.5343 14.3926 41.4816 14.3606C41.4721 14.3549 41.4623 14.3495 41.4524 14.3445L39.2095 13.1925C39.1871 13.1808 39.1655 13.1675 39.1449 13.1527C39.0834 13.1076 39.0331 13.0489 38.998 12.9812L37.846 10.7381C37.8435 10.7331 37.8409 10.7282 37.8381 10.7234C37.8329 10.7135 37.8272 10.7039 37.8209 10.6946C37.8118 10.6805 37.8019 10.667 37.7914 10.6539L37.7807 10.6411C37.7733 10.6327 37.7656 10.6245 37.7577 10.6166L37.7458 10.6048C37.7336 10.5933 37.7208 10.5825 37.7075 10.5724L37.694 10.5624L37.6802 10.553C37.6708 10.5467 37.6613 10.5408 37.6515 10.5353C37.6321 10.5242 37.6119 10.5146 37.5911 10.5065C37.5703 10.4984 37.5489 10.4916 37.5272 10.4863C37.5109 10.4821 37.4945 10.479 37.4778 10.4768C37.4557 10.4736 37.4334 10.4721 37.4111 10.4721C37.3325 10.4722 37.255 10.4912 37.1853 10.5275C37.1654 10.5377 37.1463 10.5494 37.1281 10.5625C37.1236 10.5656 37.1192 10.569 37.1146 10.5724C37.1013 10.5825 37.0885 10.5933 37.0764 10.6048C37.056 10.6239 37.0372 10.6448 37.0204 10.6671L37.0106 10.6808C37.0042 10.6899 36.9982 10.6993 36.9924 10.7088C36.9896 10.7136 36.9866 10.7184 36.984 10.7232Z" fill="black"/>
<path d="M32.2745 7.70504C32.2731 7.7076 32.2717 7.71019 32.2704 7.71282L31.6703 8.8812C31.6645 8.89305 31.6576 8.90432 31.6496 8.91485C31.6381 8.93093 31.6246 8.94554 31.6095 8.95834C31.5945 8.97122 31.578 8.98231 31.5604 8.9914L30.3919 9.5916L30.3843 9.59572C30.3716 9.60291 30.3596 9.61106 30.3483 9.62011L30.3415 9.62569L30.335 9.63157C30.3288 9.63762 30.3228 9.64384 30.317 9.65023C30.3132 9.65468 30.3096 9.65919 30.3059 9.66374C30.3023 9.66831 30.2989 9.67307 30.2958 9.678L30.2911 9.68534L30.2867 9.69284L30.2826 9.70048C30.2798 9.70558 30.2773 9.71083 30.2751 9.7162L30.2717 9.72428C30.2695 9.72966 30.2676 9.73515 30.266 9.74074C30.2641 9.74623 30.2626 9.75183 30.2613 9.75749L30.2592 9.76601L30.2576 9.77453L30.2563 9.78305L30.2553 9.79187L30.2545 9.80039L30.2541 9.8092L30.2539 9.81787C30.2538 9.82366 30.254 9.82944 30.2545 9.83521L30.2553 9.84403L30.2563 9.85255L30.2576 9.86122L30.2592 9.86974L30.2613 9.87826C30.2636 9.88966 30.2671 9.90079 30.2717 9.91147L30.2751 9.91955C30.2773 9.92491 30.2798 9.93016 30.2826 9.93527L30.2867 9.94291L30.2911 9.95026L30.2958 9.9576C30.2989 9.96258 30.3023 9.96738 30.3059 9.972L30.3112 9.97876C30.315 9.98322 30.3188 9.98763 30.3227 9.99198C30.3268 9.99611 30.3309 10.0002 30.335 10.0042L30.3415 10.0101L30.3483 10.0156C30.3527 10.0193 30.3574 10.0228 30.3622 10.0261C30.3669 10.0295 30.3718 10.0327 30.3768 10.0356L30.3843 10.04L30.3919 10.0441L31.5601 10.6441C31.5778 10.653 31.5943 10.6641 31.6093 10.677C31.6243 10.69 31.6378 10.7045 31.6496 10.7205C31.6574 10.7311 31.6643 10.7424 31.6703 10.7541L32.2707 11.9223C32.2732 11.9276 32.2761 11.9327 32.2792 11.9376C32.2821 11.9427 32.2852 11.9476 32.2886 11.9523L32.2937 11.9592C32.2972 11.9639 32.3008 11.9684 32.3048 11.9727C32.3085 11.9772 32.3125 11.9815 32.3167 11.9855L32.3228 11.9915L32.3293 11.9974C32.3336 12.0013 32.3381 12.005 32.3428 12.0084C32.3498 12.0136 32.357 12.0185 32.3644 12.0231L32.3719 12.0275L32.3795 12.0318L32.3873 12.0356L32.3953 12.0393L32.4034 12.0425C32.4114 12.0459 32.4197 12.0487 32.4282 12.0509C32.4366 12.0532 32.4451 12.0551 32.4536 12.0568C32.4622 12.0583 32.4709 12.0593 32.4796 12.0597C32.5057 12.0614 32.5319 12.0592 32.5573 12.0531L32.5657 12.0509L32.5741 12.0484C32.5797 12.0467 32.5851 12.0447 32.5905 12.0425L32.5986 12.0393L32.6066 12.0356L32.6143 12.0318L32.622 12.0275C32.632 12.0217 32.6417 12.0153 32.6511 12.0084C32.6558 12.005 32.6603 12.0013 32.6646 11.9974L32.6711 11.9915C32.6773 11.9854 32.6833 11.9792 32.6891 11.9727C32.693 11.9684 32.6967 11.9639 32.7001 11.9592L32.7053 11.9522C32.7085 11.9474 32.7116 11.9425 32.7147 11.9376C32.7178 11.9327 32.7207 11.9276 32.7232 11.9223L33.3236 10.7542C33.3294 10.7424 33.3363 10.7311 33.3443 10.7206C33.3558 10.7045 33.3693 10.6899 33.3844 10.6771C33.3995 10.6643 33.4159 10.6532 33.4335 10.6441L34.602 10.0441L34.6096 10.04L34.6173 10.0356L34.6246 10.0311L34.6318 10.0262C34.6389 10.0211 34.6458 10.0157 34.6525 10.0101L34.659 10.0042L34.6653 9.9983C34.6695 9.99424 34.6735 9.98998 34.6772 9.98552C34.681 9.98106 34.6846 9.97655 34.6882 9.972C34.6917 9.96729 34.6951 9.96254 34.6984 9.95775C34.7017 9.95292 34.7047 9.94792 34.7075 9.94276L34.7116 9.93512C34.7131 9.93262 34.7142 9.92998 34.7156 9.92733C34.7195 9.91957 34.7229 9.91152 34.7256 9.90324C34.7277 9.89775 34.7295 9.89216 34.731 9.88649L34.7332 9.87811L34.7351 9.86959C34.7364 9.86392 34.7374 9.85818 34.738 9.8524L34.7391 9.84373C34.7398 9.83798 34.7402 9.83219 34.7403 9.82639L34.7404 9.81758L34.7403 9.80876C34.7402 9.80297 34.7398 9.79718 34.7391 9.79143L34.738 9.78276C34.7371 9.77703 34.7361 9.7713 34.7351 9.76557L34.7332 9.75704L34.731 9.74867C34.7292 9.74313 34.7274 9.7376 34.7256 9.73207C34.7229 9.72373 34.7195 9.71563 34.7156 9.70782L34.7116 9.70004C34.7078 9.69216 34.7034 9.6846 34.6984 9.67741C34.6951 9.67267 34.6917 9.66797 34.6882 9.6633C34.6846 9.65875 34.681 9.65425 34.6772 9.64979C34.6735 9.64531 34.6695 9.64105 34.6653 9.637L34.659 9.63098L34.6525 9.6251C34.6482 9.62125 34.6436 9.61762 34.6389 9.61423C34.6365 9.61249 34.6342 9.61078 34.6318 9.60909C34.6295 9.60732 34.627 9.60571 34.6246 9.60424L34.6173 9.59954L34.6096 9.59513L34.602 9.59101L33.4338 8.9911C33.4161 8.98216 33.3996 8.97111 33.3845 8.95819C33.3696 8.94521 33.3561 8.93062 33.3443 8.9147C33.3367 8.90396 33.3298 8.89278 33.3236 8.8812L32.7235 7.71282C32.7209 7.70759 32.7181 7.70249 32.715 7.69754C32.7107 7.68998 32.7058 7.68276 32.7004 7.67595C32.697 7.67119 32.6933 7.66663 32.6894 7.66228C32.6857 7.65781 32.6817 7.65354 32.6775 7.6495C32.6755 7.64747 32.6734 7.64546 32.6713 7.64347L32.6649 7.6376C32.6627 7.63563 32.6604 7.63372 32.6581 7.63187L32.6514 7.62643C32.649 7.62469 32.6467 7.62298 32.6443 7.62129L32.6371 7.61644L32.6298 7.61174C32.6248 7.60859 32.6197 7.6057 32.6145 7.60307C32.6068 7.59886 32.5989 7.59522 32.5907 7.5922C32.569 7.5837 32.5463 7.57816 32.5231 7.57574C32.5115 7.57436 32.4999 7.57392 32.4883 7.57442C32.4444 7.57586 32.4016 7.58872 32.3641 7.61174L32.3568 7.61644L32.3496 7.62129C32.3472 7.62298 32.3449 7.62469 32.3425 7.62643L32.3358 7.63187C32.3335 7.63367 32.3312 7.63554 32.329 7.63745L32.3225 7.64333C32.3163 7.64948 32.3103 7.6558 32.3045 7.66228L32.2989 7.66904C32.2971 7.67124 32.2952 7.67345 32.2934 7.67595L32.2885 7.68285C32.2867 7.68526 32.2851 7.6877 32.2835 7.6902L32.2789 7.69754L32.2745 7.70504ZM36.984 10.7232L36.9761 10.7381L35.8241 12.9812C35.8012 13.0266 35.7712 13.0679 35.7351 13.1036C35.7084 13.1307 35.6785 13.1544 35.6461 13.1742C35.6353 13.1808 35.6243 13.1871 35.613 13.1928L33.3698 14.3453C33.3549 14.3528 33.3404 14.3612 33.3265 14.3705C33.3218 14.3735 33.3171 14.3766 33.3125 14.3799L33.299 14.3897C33.2901 14.3963 33.2814 14.4034 33.273 14.4107C33.2648 14.4182 33.2566 14.4258 33.2486 14.4335C33.2406 14.4413 33.2329 14.4495 33.2257 14.458C33.211 14.4748 33.1975 14.4926 33.1853 14.5112C33.1792 14.5205 33.1734 14.53 33.1678 14.5397C33.1652 14.5446 33.1624 14.5494 33.1599 14.5544L33.1524 14.5694C33.1453 14.5845 33.1389 14.6 33.1331 14.6157L33.1279 14.6316C33.1261 14.6368 33.1246 14.6423 33.123 14.6477C33.1201 14.6584 33.1174 14.6692 33.1151 14.68L33.112 14.6965C33.1093 14.7131 33.1073 14.7297 33.106 14.7465L33.1051 14.7631C33.1049 14.7686 33.1048 14.7742 33.1048 14.7798L33.1051 14.7966L33.106 14.8132L33.1074 14.8299C33.108 14.8353 33.1086 14.8409 33.1095 14.8464L33.112 14.863L33.1151 14.8794C33.1174 14.8903 33.1201 14.9011 33.123 14.9119C33.1246 14.9172 33.1261 14.9226 33.1279 14.9279L33.1331 14.9438C33.1389 14.9595 33.1453 14.9749 33.1524 14.9901L33.1599 15.005C33.1624 15.01 33.1652 15.0149 33.1678 15.0197C33.1789 15.0391 33.1912 15.0577 33.2046 15.0756C33.2317 15.1111 33.2635 15.1427 33.299 15.1698L33.3125 15.1796C33.3217 15.1861 33.331 15.1922 33.3406 15.198C33.3502 15.2037 33.3599 15.2091 33.3698 15.2141L35.6126 16.366C35.6352 16.3775 35.6568 16.3908 35.6772 16.4057C35.7079 16.4282 35.7359 16.454 35.7607 16.4829C35.7771 16.5021 35.7921 16.5226 35.8055 16.5441C35.8121 16.555 35.8184 16.566 35.8241 16.5772L36.9767 18.8203C36.9843 18.8352 36.9927 18.8497 37.0018 18.8637C37.0109 18.8777 37.0208 18.8912 37.0313 18.9042L37.042 18.9172C37.0494 18.9256 37.0571 18.9337 37.065 18.9416L37.0769 18.9533C37.089 18.9648 37.1018 18.9756 37.1152 18.9856C37.1285 18.9958 37.1423 19.0053 37.1566 19.0139C37.1804 19.0285 37.2054 19.041 37.2314 19.0512C37.247 19.0572 37.2628 19.0626 37.2789 19.0672C37.295 19.0716 37.3113 19.0753 37.3278 19.0782C37.3774 19.0866 37.428 19.0874 37.4778 19.0807C37.5499 19.0707 37.6189 19.0448 37.6797 19.0049L37.6935 18.9955C37.698 18.9923 37.7025 18.989 37.7069 18.9856L37.7201 18.9754C37.7287 18.9682 37.737 18.9608 37.7452 18.9533C37.7657 18.9344 37.7844 18.9136 37.8011 18.8912C37.8179 18.8689 37.8328 18.8452 37.8456 18.8203L38.998 16.5778C39.0152 16.5439 39.0365 16.5122 39.0613 16.4833C39.0775 16.4639 39.0954 16.4459 39.1148 16.4295C39.1437 16.4049 39.1754 16.3836 39.2091 16.366L41.4524 15.2141L41.4671 15.2063L41.4816 15.198C41.5009 15.1866 41.5193 15.1737 41.5366 15.1595C41.5452 15.1523 41.5536 15.145 41.5619 15.1376C41.5823 15.1185 41.6011 15.0978 41.6181 15.0756L41.6281 15.0621C41.6442 15.0393 41.6584 15.0152 41.6704 14.9901L41.6775 14.9748C41.6819 14.9645 41.686 14.9541 41.6898 14.9436L41.6951 14.9278C41.6987 14.9172 41.7018 14.9064 41.7042 14.8954C41.7068 14.8846 41.7091 14.8737 41.7111 14.8627L41.7136 14.8461L41.7157 14.8295C41.7167 14.8183 41.7175 14.8072 41.7179 14.796C41.7182 14.7904 41.7182 14.7848 41.7182 14.7792C41.7182 14.7736 41.7182 14.768 41.7179 14.7625C41.7175 14.7513 41.7167 14.7402 41.7157 14.7291C41.7138 14.7125 41.7112 14.6959 41.7079 14.6795L41.7042 14.6631C41.7015 14.6523 41.6985 14.6415 41.6951 14.6308L41.6898 14.6149C41.686 14.6044 41.6819 14.5941 41.6775 14.5838C41.6751 14.5787 41.6729 14.5735 41.6704 14.5685C41.6681 14.5635 41.6656 14.5585 41.663 14.5535C41.658 14.5435 41.6525 14.5338 41.6465 14.5244C41.6407 14.515 41.6345 14.5056 41.6281 14.4965L41.6181 14.4829C41.5806 14.434 41.5343 14.3926 41.4816 14.3606C41.4721 14.3549 41.4623 14.3495 41.4524 14.3445L39.2095 13.1925C39.1871 13.1808 39.1655 13.1675 39.1449 13.1527C39.0834 13.1076 39.0331 13.0489 38.998 12.9812L37.846 10.7381C37.8435 10.7331 37.8409 10.7282 37.8381 10.7234C37.8329 10.7135 37.8272 10.7039 37.8209 10.6946C37.8118 10.6805 37.8019 10.667 37.7914 10.6539L37.7807 10.6411C37.7733 10.6327 37.7656 10.6245 37.7577 10.6166L37.7458 10.6048C37.7336 10.5933 37.7208 10.5825 37.7075 10.5724L37.694 10.5624L37.6802 10.553C37.6708 10.5467 37.6613 10.5408 37.6515 10.5353C37.6321 10.5242 37.6119 10.5146 37.5911 10.5065C37.5703 10.4984 37.5489 10.4916 37.5272 10.4863C37.5109 10.4821 37.4945 10.479 37.4778 10.4768C37.4557 10.4736 37.4334 10.4721 37.4111 10.4721C37.3325 10.4722 37.255 10.4912 37.1853 10.5275C37.1654 10.5377 37.1463 10.5494 37.1281 10.5625C37.1236 10.5656 37.1192 10.569 37.1146 10.5724C37.1013 10.5825 37.0885 10.5933 37.0764 10.6048C37.056 10.6239 37.0372 10.6448 37.0204 10.6671L37.0106 10.6808C37.0042 10.6899 36.9982 10.6993 36.9924 10.7088C36.9896 10.7136 36.9866 10.7184 36.984 10.7232Z" fill="#63B9FF"/>
<defs>
<linearGradient id="paint0_linear_347_8056" x1="23.0363" y1="13.3301" x2="23.0363" y2="40.4262" gradientUnits="userSpaceOnUse">
<stop stop-color="#63B9FF"/>
<stop offset="1" stop-color="#363FBF"/>
</linearGradient>
</defs>
</svg>
