<svg width="48" height="48" viewBox="0 0 48 48" fill="none" xmlns="http://www.w3.org/2000/svg">
<rect width="48" height="48" rx="8" fill="#7836BF" fill-opacity="0.33"/>
<path d="M35.676 12.9406C35.3652 12.6663 34.9925 12.4717 34.5898 12.3735C34.1871 12.2754 33.7666 12.2766 33.3645 12.3771C27.1415 13.9328 20.5631 13.9328 14.3402 12.3771C13.9381 12.2766 13.5175 12.2753 13.1148 12.3735C12.7121 12.4717 12.3393 12.6663 12.0286 12.9406C11.7178 13.2149 11.4784 13.5607 11.3311 13.9481C11.1837 14.3355 11.1328 14.7529 11.1826 15.1644L12.8453 28.8813C13.0062 30.2091 13.4341 31.4907 14.1033 32.6488C14.7724 33.8069 15.669 34.8176 16.739 35.6201L20.5062 38.4452C21.4715 39.1692 22.6456 39.5605 23.8523 39.5605C25.059 39.5605 26.2331 39.1692 27.1985 38.4452L30.9656 35.6199C32.0356 34.8174 32.9322 33.8067 33.6014 32.6486C34.2705 31.4905 34.6985 30.2089 34.8594 28.8811L36.522 15.1642C36.5718 14.7528 36.5208 14.3354 36.3735 13.948C36.2261 13.5606 35.9867 13.2149 35.676 12.9406ZM16.5204 21.3145C16.4753 21.2468 16.4439 21.1709 16.4281 21.091C16.4123 21.0112 16.4124 20.929 16.4284 20.8492C16.4443 20.7694 16.4759 20.6935 16.5212 20.6259C16.5665 20.5583 16.6246 20.5003 16.6924 20.4551C17.3447 20.0203 18.1111 19.7882 18.8951 19.7882C19.679 19.7882 20.4454 20.0203 21.0977 20.4551C21.2345 20.5463 21.3295 20.6881 21.3617 20.8492C21.394 21.0104 21.3609 21.1778 21.2697 21.3145C21.1785 21.4513 21.0368 21.5462 20.8756 21.5785C20.7144 21.6107 20.5471 21.5776 20.4103 21.4865C19.9619 21.1864 19.4346 21.0263 18.8951 21.0263C18.3555 21.0263 17.8282 21.1864 17.3798 21.4865C17.3121 21.5316 17.2361 21.563 17.1563 21.5788C17.0765 21.5946 16.9943 21.5945 16.9145 21.5785C16.8347 21.5625 16.7588 21.531 16.6912 21.4857C16.6236 21.4404 16.5655 21.3822 16.5204 21.3145ZM28.4341 32.1092C26.9863 32.7296 25.4275 33.0495 23.8523 33.0495C22.2771 33.0495 20.7184 32.7296 19.2705 32.1092C19.1195 32.0444 19.0003 31.9223 18.9393 31.7697C18.8782 31.617 18.8803 31.4464 18.9451 31.2954C19.0099 31.1443 19.132 31.0252 19.2846 30.9641C19.4372 30.9031 19.6078 30.9052 19.7589 30.97C22.3603 32.085 25.3443 32.085 27.9457 30.97C28.0968 30.9052 28.2674 30.9031 28.42 30.9641C28.5726 31.0252 28.6948 31.1443 28.7595 31.2954C28.8243 31.4464 28.8264 31.617 28.7654 31.7697C28.7043 31.9223 28.5852 32.0444 28.4341 32.1092ZM31.1838 21.3145C31.1387 21.3822 31.0807 21.4404 31.0131 21.4857C30.9454 21.531 30.8696 21.5625 30.7898 21.5785C30.71 21.5945 30.6278 21.5946 30.548 21.5788C30.4681 21.563 30.3922 21.5316 30.3244 21.4865C29.8761 21.1864 29.3487 21.0263 28.8092 21.0263C28.2697 21.0263 27.7423 21.1864 27.2939 21.4865C27.1572 21.5776 26.9898 21.6107 26.8286 21.5785C26.6675 21.5462 26.5257 21.4513 26.4345 21.3145C26.3434 21.1778 26.3103 21.0104 26.3425 20.8492C26.3748 20.6881 26.4697 20.5463 26.6065 20.4551C27.2588 20.0203 28.0252 19.7882 28.8092 19.7882C29.5932 19.7882 30.3596 20.0203 31.0119 20.4551C31.0796 20.5002 31.1378 20.5582 31.1832 20.6258C31.2285 20.6935 31.2601 20.7693 31.2761 20.8491C31.2921 20.9289 31.2922 21.0111 31.2765 21.091C31.2607 21.1708 31.2294 21.2468 31.1842 21.3145H31.1838Z" fill="url(#paint0_linear_368_8270)"/>
<mask id="path-3-outside-1_368_8270" maskUnits="userSpaceOnUse" x="29.4941" y="7.43945" width="13" height="13" fill="black">
<rect fill="white" x="29.4941" y="7.43945" width="13" height="13"/>
<path d="M32.366 8.56065C32.3647 8.56302 32.3634 8.56542 32.3622 8.56786L31.8063 9.65027C31.8009 9.66124 31.7945 9.67168 31.7871 9.68144C31.7765 9.69634 31.764 9.70987 31.75 9.72173C31.7361 9.73366 31.7208 9.74393 31.7045 9.75235L30.622 10.3084L30.6149 10.3122C30.6032 10.3189 30.5921 10.3264 30.5816 10.3348L30.5753 10.34L30.5693 10.3454C30.5636 10.351 30.558 10.3568 30.5526 10.3627C30.5491 10.3668 30.5457 10.371 30.5423 10.3752C30.539 10.3795 30.5358 10.3839 30.533 10.3884L30.5286 10.3952L30.5245 10.4022L30.5207 10.4093C30.5181 10.414 30.5158 10.4188 30.5138 10.4238L30.5106 10.4313C30.5086 10.4363 30.5068 10.4414 30.5053 10.4466C30.5036 10.4516 30.5022 10.4568 30.501 10.4621L30.4991 10.47L30.4976 10.4779L30.4963 10.4858L30.4954 10.4939L30.4947 10.5018L30.4943 10.51L30.4942 10.518C30.4941 10.5234 30.4943 10.5287 30.4947 10.5341L30.4954 10.5422L30.4963 10.5501L30.4976 10.5582L30.4991 10.5661L30.501 10.574C30.5031 10.5845 30.5064 10.5948 30.5106 10.6047L30.5138 10.6122C30.5158 10.6172 30.5181 10.622 30.5207 10.6268L30.5245 10.6339L30.5286 10.6407L30.533 10.6475C30.5358 10.6521 30.539 10.6565 30.5423 10.6608L30.5472 10.6671C30.5507 10.6712 30.5543 10.6753 30.5579 10.6793C30.5616 10.6831 30.5654 10.6869 30.5693 10.6906L30.5753 10.6961L30.5816 10.7012C30.5857 10.7047 30.59 10.7079 30.5945 10.7109C30.5988 10.7141 30.6033 10.717 30.608 10.7197L30.6149 10.7238L30.622 10.7276L31.7042 11.2834C31.7206 11.2917 31.7359 11.3019 31.7498 11.3139C31.7637 11.3259 31.7762 11.3394 31.7871 11.3542C31.7944 11.3641 31.8008 11.3745 31.8063 11.3854L32.3625 12.4676C32.3649 12.4725 32.3675 12.4772 32.3704 12.4818C32.3731 12.4865 32.376 12.491 32.3791 12.4954L32.3839 12.5018C32.3871 12.5061 32.3905 12.5103 32.3941 12.5143C32.3976 12.5184 32.4012 12.5224 32.4051 12.5262L32.4108 12.5317L32.4168 12.5372C32.4208 12.5408 32.425 12.5442 32.4293 12.5474C32.4358 12.5522 32.4425 12.5567 32.4494 12.561L32.4563 12.5651L32.4634 12.569L32.4706 12.5726L32.4779 12.576L32.4854 12.579C32.4929 12.5821 32.5006 12.5847 32.5084 12.5867C32.5162 12.5888 32.5241 12.5906 32.532 12.5922C32.5399 12.5936 32.548 12.5945 32.5561 12.5949C32.5802 12.5964 32.6045 12.5944 32.6281 12.5888L32.6358 12.5867L32.6436 12.5844C32.6488 12.5828 32.6538 12.581 32.6588 12.579L32.6663 12.576L32.6737 12.5726L32.6809 12.569L32.688 12.5651C32.6973 12.5597 32.7063 12.5538 32.7149 12.5474C32.7193 12.5442 32.7234 12.5408 32.7274 12.5372L32.7334 12.5317C32.7392 12.5261 32.7448 12.5203 32.7502 12.5143C32.7538 12.5103 32.7572 12.5061 32.7604 12.5018L32.7651 12.4953C32.7681 12.4908 32.771 12.4863 32.7739 12.4818C32.7767 12.4772 32.7794 12.4725 32.7818 12.4676L33.3379 11.3855C33.3433 11.3745 33.3497 11.3641 33.3571 11.3543C33.3678 11.3394 33.3803 11.3259 33.3943 11.314C33.4082 11.3021 33.4235 11.2919 33.4397 11.2834L34.5223 10.7276L34.5294 10.7238L34.5364 10.7197L34.5432 10.7155L34.5499 10.711C34.5565 10.7063 34.5629 10.7013 34.5691 10.6961L34.5751 10.6906L34.581 10.6852C34.5848 10.6814 34.5885 10.6775 34.592 10.6733C34.5954 10.6692 34.5988 10.665 34.6022 10.6608C34.6054 10.6564 34.6085 10.652 34.6116 10.6476C34.6146 10.6431 34.6175 10.6385 34.62 10.6337L34.6238 10.6266C34.6252 10.6243 34.6263 10.6219 34.6275 10.6194C34.6312 10.6122 34.6343 10.6048 34.6368 10.5971C34.6387 10.592 34.6404 10.5868 34.6418 10.5816L34.6438 10.5738L34.6456 10.5659C34.6468 10.5607 34.6477 10.5554 34.6483 10.55L34.6493 10.542C34.6499 10.5366 34.6503 10.5313 34.6504 10.5259L34.6505 10.5177L34.6504 10.5096C34.6503 10.5042 34.6499 10.4988 34.6493 10.4935L34.6483 10.4855C34.6474 10.4802 34.6465 10.4749 34.6456 10.4696L34.6438 10.4617L34.6418 10.4539C34.6401 10.4488 34.6385 10.4436 34.6368 10.4385C34.6343 10.4308 34.6312 10.4233 34.6275 10.4161L34.6238 10.4088C34.6203 10.4016 34.6162 10.3945 34.6116 10.3879C34.6085 10.3835 34.6054 10.3791 34.6022 10.3748C34.5988 10.3706 34.5954 10.3664 34.592 10.3623C34.5885 10.3582 34.5848 10.3542 34.581 10.3505L34.5751 10.3449L34.5691 10.3394C34.5651 10.3359 34.5608 10.3325 34.5565 10.3294C34.5543 10.3277 34.5521 10.3262 34.5499 10.3246C34.5477 10.323 34.5454 10.3215 34.5432 10.3201L34.5364 10.3157L34.5294 10.3117L34.5223 10.3078L33.44 9.75208C33.4236 9.74379 33.4083 9.73355 33.3944 9.72159C33.3806 9.70956 33.368 9.69605 33.3571 9.6813C33.3501 9.67135 33.3437 9.66099 33.3379 9.65027L32.782 8.56786C32.7796 8.56301 32.777 8.55828 32.7741 8.5537C32.7702 8.5467 32.7657 8.54001 32.7607 8.53369C32.7575 8.52929 32.7541 8.52506 32.7504 8.52104C32.747 8.51689 32.7433 8.51294 32.7394 8.50919C32.7375 8.50732 32.7356 8.50546 32.7337 8.50361L32.7277 8.49817C32.7257 8.49635 32.7236 8.49458 32.7215 8.49286L32.7152 8.48782C32.713 8.48621 32.7109 8.48462 32.7087 8.48306L32.702 8.47857L32.6952 8.47421C32.6906 8.4713 32.6859 8.46862 32.681 8.46618C32.6739 8.46228 32.6666 8.45891 32.659 8.45611C32.6389 8.44824 32.6178 8.44311 32.5964 8.44086C32.5857 8.43958 32.5749 8.43917 32.5641 8.43964C32.5234 8.44097 32.4838 8.45289 32.4491 8.47421L32.4423 8.47857L32.4356 8.48306C32.4334 8.48462 32.4312 8.48621 32.4291 8.48782L32.4228 8.49286C32.4207 8.49453 32.4186 8.49626 32.4165 8.49803L32.4106 8.50348C32.4048 8.50918 32.3992 8.51503 32.3938 8.52104L32.3886 8.5273C32.387 8.52934 32.3852 8.53138 32.3836 8.53369L32.379 8.54009C32.3774 8.54232 32.3758 8.54459 32.3744 8.5469L32.3701 8.5537L32.366 8.56065ZM36.729 11.3568L36.7217 11.3705L35.6545 13.4486C35.6333 13.4906 35.6054 13.5289 35.572 13.562C35.5473 13.5871 35.5196 13.609 35.4895 13.6273C35.4796 13.6335 35.4694 13.6393 35.4589 13.6446L33.3808 14.7123C33.367 14.7193 33.3536 14.7271 33.3407 14.7356C33.3363 14.7384 33.332 14.7413 33.3277 14.7443L33.3152 14.7534C33.3069 14.7596 33.2989 14.7661 33.2911 14.7729C33.2834 14.7798 33.2759 14.7868 33.2685 14.794C33.261 14.8012 33.254 14.8088 33.2473 14.8167C33.2336 14.8323 33.2211 14.8487 33.2098 14.866C33.2042 14.8746 33.1988 14.8835 33.1936 14.8924C33.1912 14.8969 33.1886 14.9014 33.1863 14.906L33.1793 14.9199C33.1728 14.9339 33.1668 14.9482 33.1615 14.9628L33.1566 14.9775C33.155 14.9824 33.1536 14.9874 33.1521 14.9925C33.1494 15.0024 33.1469 15.0124 33.1448 15.0224L33.1419 15.0377C33.1394 15.053 33.1376 15.0684 33.1363 15.0839L33.1355 15.0993C33.1354 15.1045 33.1353 15.1097 33.1352 15.1148L33.1355 15.1304L33.1363 15.1457L33.1377 15.1613C33.1382 15.1663 33.1388 15.1715 33.1396 15.1765L33.1419 15.1919L33.1448 15.2071C33.147 15.2172 33.1494 15.2272 33.1521 15.2372C33.1536 15.2421 33.155 15.2471 33.1566 15.252L33.1615 15.2667C33.1668 15.2813 33.1728 15.2956 33.1793 15.3096L33.1863 15.3235C33.1886 15.3281 33.1912 15.3326 33.1936 15.3371C33.2039 15.355 33.2153 15.3723 33.2277 15.3888C33.2528 15.4217 33.2822 15.4511 33.3152 15.4761L33.3277 15.4852C33.3362 15.4912 33.3448 15.4969 33.3537 15.5022C33.3626 15.5075 33.3716 15.5125 33.3808 15.5172L35.4585 16.5844C35.4794 16.595 35.4995 16.6073 35.5184 16.6211C35.5468 16.6419 35.5727 16.6659 35.5957 16.6926C35.611 16.7104 35.6248 16.7294 35.6372 16.7493C35.6433 16.7594 35.6492 16.7696 35.6545 16.78L36.7222 18.8581C36.7293 18.8718 36.7371 18.8852 36.7455 18.8982C36.754 18.9112 36.7631 18.9237 36.7729 18.9358L36.7828 18.9478C36.7896 18.9555 36.7967 18.9631 36.804 18.9704L36.815 18.9813C36.8263 18.9919 36.8382 19.0019 36.8506 19.0112C36.8629 19.0206 36.8757 19.0294 36.889 19.0373C36.911 19.0509 36.9342 19.0625 36.9582 19.0719C36.9727 19.0775 36.9873 19.0825 37.0022 19.0867C37.0172 19.0908 37.0323 19.0942 37.0475 19.097C37.0935 19.1047 37.1403 19.1055 37.1865 19.0993C37.2533 19.09 37.3172 19.066 37.3735 19.029L37.3863 19.0203C37.3905 19.0174 37.3947 19.0143 37.3987 19.0112L37.411 19.0017C37.4189 18.995 37.4266 18.9882 37.4342 18.9813C37.4532 18.9637 37.4706 18.9444 37.486 18.9237C37.5015 18.903 37.5153 18.8811 37.5272 18.8581L38.5948 16.7805C38.6108 16.7491 38.6305 16.7197 38.6535 16.693C38.6685 16.675 38.6851 16.6583 38.703 16.6432C38.7298 16.6203 38.7591 16.6006 38.7904 16.5844L40.8686 15.5172L40.8822 15.51L40.8957 15.5022C40.9136 15.4917 40.9306 15.4797 40.9466 15.4666C40.9546 15.46 40.9624 15.4532 40.97 15.4463C40.989 15.4286 41.0064 15.4094 41.0222 15.3888L41.0314 15.3763C41.0463 15.3552 41.0595 15.3329 41.0706 15.3096L41.0772 15.2955C41.0813 15.286 41.0851 15.2763 41.0886 15.2666L41.0935 15.2519C41.0968 15.2421 41.0997 15.2321 41.1019 15.222C41.1043 15.2119 41.1065 15.2018 41.1083 15.1916L41.1106 15.1762L41.1125 15.1608C41.1135 15.1505 41.1142 15.1402 41.1146 15.1298C41.1149 15.1246 41.1149 15.1195 41.1149 15.1143C41.1149 15.1091 41.1149 15.1039 41.1146 15.0988C41.1142 15.0885 41.1135 15.0782 41.1125 15.0679C41.1108 15.0524 41.1084 15.0371 41.1053 15.0219L41.1019 15.0068C41.0994 14.9967 41.0966 14.9867 41.0935 14.9768L41.0886 14.9621C41.0851 14.9524 41.0812 14.9428 41.0772 14.9333C41.075 14.9285 41.0729 14.9237 41.0706 14.9191C41.0684 14.9144 41.0661 14.9098 41.0637 14.9052C41.0591 14.896 41.054 14.887 41.0484 14.8783C41.043 14.8695 41.0374 14.8608 41.0314 14.8524L41.0222 14.8397C40.9874 14.7945 40.9445 14.7561 40.8957 14.7265C40.8869 14.7212 40.8778 14.7162 40.8686 14.7115L38.7908 13.6444C38.77 13.6335 38.75 13.6212 38.7309 13.6075C38.6739 13.5657 38.6273 13.5113 38.5948 13.4486L37.5276 11.3705C37.5253 11.3659 37.5228 11.3614 37.5203 11.3569C37.5154 11.3477 37.5101 11.3388 37.5043 11.3302C37.4959 11.3172 37.4867 11.3046 37.477 11.2925L37.4671 11.2807C37.4602 11.2729 37.4531 11.2653 37.4458 11.2579L37.4348 11.2471C37.4235 11.2364 37.4116 11.2264 37.3993 11.217L37.3867 11.2077L37.3739 11.199C37.3653 11.1932 37.3565 11.1878 37.3474 11.1827C37.3295 11.1724 37.3108 11.1635 37.2915 11.156C37.2721 11.1485 37.2524 11.1422 37.2322 11.1372C37.2172 11.1334 37.2019 11.1305 37.1865 11.1285C37.1661 11.1255 37.1454 11.1241 37.1247 11.1241C37.0519 11.1242 36.9801 11.1418 36.9155 11.1755C36.897 11.1849 36.8793 11.1957 36.8626 11.2079C36.8583 11.2107 36.8543 11.2138 36.85 11.217C36.8377 11.2263 36.8259 11.2364 36.8146 11.2471C36.7957 11.2647 36.7783 11.284 36.7628 11.3048L36.7537 11.3174C36.7478 11.3259 36.7421 11.3346 36.7368 11.3434C36.7342 11.3478 36.7315 11.3523 36.729 11.3568Z"/>
</mask>
<path d="M32.366 8.56065C32.3647 8.56302 32.3634 8.56542 32.3622 8.56786L31.8063 9.65027C31.8009 9.66124 31.7945 9.67168 31.7871 9.68144C31.7765 9.69634 31.764 9.70987 31.75 9.72173C31.7361 9.73366 31.7208 9.74393 31.7045 9.75235L30.622 10.3084L30.6149 10.3122C30.6032 10.3189 30.5921 10.3264 30.5816 10.3348L30.5753 10.34L30.5693 10.3454C30.5636 10.351 30.558 10.3568 30.5526 10.3627C30.5491 10.3668 30.5457 10.371 30.5423 10.3752C30.539 10.3795 30.5358 10.3839 30.533 10.3884L30.5286 10.3952L30.5245 10.4022L30.5207 10.4093C30.5181 10.414 30.5158 10.4188 30.5138 10.4238L30.5106 10.4313C30.5086 10.4363 30.5068 10.4414 30.5053 10.4466C30.5036 10.4516 30.5022 10.4568 30.501 10.4621L30.4991 10.47L30.4976 10.4779L30.4963 10.4858L30.4954 10.4939L30.4947 10.5018L30.4943 10.51L30.4942 10.518C30.4941 10.5234 30.4943 10.5287 30.4947 10.5341L30.4954 10.5422L30.4963 10.5501L30.4976 10.5582L30.4991 10.5661L30.501 10.574C30.5031 10.5845 30.5064 10.5948 30.5106 10.6047L30.5138 10.6122C30.5158 10.6172 30.5181 10.622 30.5207 10.6268L30.5245 10.6339L30.5286 10.6407L30.533 10.6475C30.5358 10.6521 30.539 10.6565 30.5423 10.6608L30.5472 10.6671C30.5507 10.6712 30.5543 10.6753 30.5579 10.6793C30.5616 10.6831 30.5654 10.6869 30.5693 10.6906L30.5753 10.6961L30.5816 10.7012C30.5857 10.7047 30.59 10.7079 30.5945 10.7109C30.5988 10.7141 30.6033 10.717 30.608 10.7197L30.6149 10.7238L30.622 10.7276L31.7042 11.2834C31.7206 11.2917 31.7359 11.3019 31.7498 11.3139C31.7637 11.3259 31.7762 11.3394 31.7871 11.3542C31.7944 11.3641 31.8008 11.3745 31.8063 11.3854L32.3625 12.4676C32.3649 12.4725 32.3675 12.4772 32.3704 12.4818C32.3731 12.4865 32.376 12.491 32.3791 12.4954L32.3839 12.5018C32.3871 12.5061 32.3905 12.5103 32.3941 12.5143C32.3976 12.5184 32.4012 12.5224 32.4051 12.5262L32.4108 12.5317L32.4168 12.5372C32.4208 12.5408 32.425 12.5442 32.4293 12.5474C32.4358 12.5522 32.4425 12.5567 32.4494 12.561L32.4563 12.5651L32.4634 12.569L32.4706 12.5726L32.4779 12.576L32.4854 12.579C32.4929 12.5821 32.5006 12.5847 32.5084 12.5867C32.5162 12.5888 32.5241 12.5906 32.532 12.5922C32.5399 12.5936 32.548 12.5945 32.5561 12.5949C32.5802 12.5964 32.6045 12.5944 32.6281 12.5888L32.6358 12.5867L32.6436 12.5844C32.6488 12.5828 32.6538 12.581 32.6588 12.579L32.6663 12.576L32.6737 12.5726L32.6809 12.569L32.688 12.5651C32.6973 12.5597 32.7063 12.5538 32.7149 12.5474C32.7193 12.5442 32.7234 12.5408 32.7274 12.5372L32.7334 12.5317C32.7392 12.5261 32.7448 12.5203 32.7502 12.5143C32.7538 12.5103 32.7572 12.5061 32.7604 12.5018L32.7651 12.4953C32.7681 12.4908 32.771 12.4863 32.7739 12.4818C32.7767 12.4772 32.7794 12.4725 32.7818 12.4676L33.3379 11.3855C33.3433 11.3745 33.3497 11.3641 33.3571 11.3543C33.3678 11.3394 33.3803 11.3259 33.3943 11.314C33.4082 11.3021 33.4235 11.2919 33.4397 11.2834L34.5223 10.7276L34.5294 10.7238L34.5364 10.7197L34.5432 10.7155L34.5499 10.711C34.5565 10.7063 34.5629 10.7013 34.5691 10.6961L34.5751 10.6906L34.581 10.6852C34.5848 10.6814 34.5885 10.6775 34.592 10.6733C34.5954 10.6692 34.5988 10.665 34.6022 10.6608C34.6054 10.6564 34.6085 10.652 34.6116 10.6476C34.6146 10.6431 34.6175 10.6385 34.62 10.6337L34.6238 10.6266C34.6252 10.6243 34.6263 10.6219 34.6275 10.6194C34.6312 10.6122 34.6343 10.6048 34.6368 10.5971C34.6387 10.592 34.6404 10.5868 34.6418 10.5816L34.6438 10.5738L34.6456 10.5659C34.6468 10.5607 34.6477 10.5554 34.6483 10.55L34.6493 10.542C34.6499 10.5366 34.6503 10.5313 34.6504 10.5259L34.6505 10.5177L34.6504 10.5096C34.6503 10.5042 34.6499 10.4988 34.6493 10.4935L34.6483 10.4855C34.6474 10.4802 34.6465 10.4749 34.6456 10.4696L34.6438 10.4617L34.6418 10.4539C34.6401 10.4488 34.6385 10.4436 34.6368 10.4385C34.6343 10.4308 34.6312 10.4233 34.6275 10.4161L34.6238 10.4088C34.6203 10.4016 34.6162 10.3945 34.6116 10.3879C34.6085 10.3835 34.6054 10.3791 34.6022 10.3748C34.5988 10.3706 34.5954 10.3664 34.592 10.3623C34.5885 10.3582 34.5848 10.3542 34.581 10.3505L34.5751 10.3449L34.5691 10.3394C34.5651 10.3359 34.5608 10.3325 34.5565 10.3294C34.5543 10.3277 34.5521 10.3262 34.5499 10.3246C34.5477 10.323 34.5454 10.3215 34.5432 10.3201L34.5364 10.3157L34.5294 10.3117L34.5223 10.3078L33.44 9.75208C33.4236 9.74379 33.4083 9.73355 33.3944 9.72159C33.3806 9.70956 33.368 9.69605 33.3571 9.6813C33.3501 9.67135 33.3437 9.66099 33.3379 9.65027L32.782 8.56786C32.7796 8.56301 32.777 8.55828 32.7741 8.5537C32.7702 8.5467 32.7657 8.54001 32.7607 8.53369C32.7575 8.52929 32.7541 8.52506 32.7504 8.52104C32.747 8.51689 32.7433 8.51294 32.7394 8.50919C32.7375 8.50732 32.7356 8.50546 32.7337 8.50361L32.7277 8.49817C32.7257 8.49635 32.7236 8.49458 32.7215 8.49286L32.7152 8.48782C32.713 8.48621 32.7109 8.48462 32.7087 8.48306L32.702 8.47857L32.6952 8.47421C32.6906 8.4713 32.6859 8.46862 32.681 8.46618C32.6739 8.46228 32.6666 8.45891 32.659 8.45611C32.6389 8.44824 32.6178 8.44311 32.5964 8.44086C32.5857 8.43958 32.5749 8.43917 32.5641 8.43964C32.5234 8.44097 32.4838 8.45289 32.4491 8.47421L32.4423 8.47857L32.4356 8.48306C32.4334 8.48462 32.4312 8.48621 32.4291 8.48782L32.4228 8.49286C32.4207 8.49453 32.4186 8.49626 32.4165 8.49803L32.4106 8.50348C32.4048 8.50918 32.3992 8.51503 32.3938 8.52104L32.3886 8.5273C32.387 8.52934 32.3852 8.53138 32.3836 8.53369L32.379 8.54009C32.3774 8.54232 32.3758 8.54459 32.3744 8.5469L32.3701 8.5537L32.366 8.56065ZM36.729 11.3568L36.7217 11.3705L35.6545 13.4486C35.6333 13.4906 35.6054 13.5289 35.572 13.562C35.5473 13.5871 35.5196 13.609 35.4895 13.6273C35.4796 13.6335 35.4694 13.6393 35.4589 13.6446L33.3808 14.7123C33.367 14.7193 33.3536 14.7271 33.3407 14.7356C33.3363 14.7384 33.332 14.7413 33.3277 14.7443L33.3152 14.7534C33.3069 14.7596 33.2989 14.7661 33.2911 14.7729C33.2834 14.7798 33.2759 14.7868 33.2685 14.794C33.261 14.8012 33.254 14.8088 33.2473 14.8167C33.2336 14.8323 33.2211 14.8487 33.2098 14.866C33.2042 14.8746 33.1988 14.8835 33.1936 14.8924C33.1912 14.8969 33.1886 14.9014 33.1863 14.906L33.1793 14.9199C33.1728 14.9339 33.1668 14.9482 33.1615 14.9628L33.1566 14.9775C33.155 14.9824 33.1536 14.9874 33.1521 14.9925C33.1494 15.0024 33.1469 15.0124 33.1448 15.0224L33.1419 15.0377C33.1394 15.053 33.1376 15.0684 33.1363 15.0839L33.1355 15.0993C33.1354 15.1045 33.1353 15.1097 33.1352 15.1148L33.1355 15.1304L33.1363 15.1457L33.1377 15.1613C33.1382 15.1663 33.1388 15.1715 33.1396 15.1765L33.1419 15.1919L33.1448 15.2071C33.147 15.2172 33.1494 15.2272 33.1521 15.2372C33.1536 15.2421 33.155 15.2471 33.1566 15.252L33.1615 15.2667C33.1668 15.2813 33.1728 15.2956 33.1793 15.3096L33.1863 15.3235C33.1886 15.3281 33.1912 15.3326 33.1936 15.3371C33.2039 15.355 33.2153 15.3723 33.2277 15.3888C33.2528 15.4217 33.2822 15.4511 33.3152 15.4761L33.3277 15.4852C33.3362 15.4912 33.3448 15.4969 33.3537 15.5022C33.3626 15.5075 33.3716 15.5125 33.3808 15.5172L35.4585 16.5844C35.4794 16.595 35.4995 16.6073 35.5184 16.6211C35.5468 16.6419 35.5727 16.6659 35.5957 16.6926C35.611 16.7104 35.6248 16.7294 35.6372 16.7493C35.6433 16.7594 35.6492 16.7696 35.6545 16.78L36.7222 18.8581C36.7293 18.8718 36.7371 18.8852 36.7455 18.8982C36.754 18.9112 36.7631 18.9237 36.7729 18.9358L36.7828 18.9478C36.7896 18.9555 36.7967 18.9631 36.804 18.9704L36.815 18.9813C36.8263 18.9919 36.8382 19.0019 36.8506 19.0112C36.8629 19.0206 36.8757 19.0294 36.889 19.0373C36.911 19.0509 36.9342 19.0625 36.9582 19.0719C36.9727 19.0775 36.9873 19.0825 37.0022 19.0867C37.0172 19.0908 37.0323 19.0942 37.0475 19.097C37.0935 19.1047 37.1403 19.1055 37.1865 19.0993C37.2533 19.09 37.3172 19.066 37.3735 19.029L37.3863 19.0203C37.3905 19.0174 37.3947 19.0143 37.3987 19.0112L37.411 19.0017C37.4189 18.995 37.4266 18.9882 37.4342 18.9813C37.4532 18.9637 37.4706 18.9444 37.486 18.9237C37.5015 18.903 37.5153 18.8811 37.5272 18.8581L38.5948 16.7805C38.6108 16.7491 38.6305 16.7197 38.6535 16.693C38.6685 16.675 38.6851 16.6583 38.703 16.6432C38.7298 16.6203 38.7591 16.6006 38.7904 16.5844L40.8686 15.5172L40.8822 15.51L40.8957 15.5022C40.9136 15.4917 40.9306 15.4797 40.9466 15.4666C40.9546 15.46 40.9624 15.4532 40.97 15.4463C40.989 15.4286 41.0064 15.4094 41.0222 15.3888L41.0314 15.3763C41.0463 15.3552 41.0595 15.3329 41.0706 15.3096L41.0772 15.2955C41.0813 15.286 41.0851 15.2763 41.0886 15.2666L41.0935 15.2519C41.0968 15.2421 41.0997 15.2321 41.1019 15.222C41.1043 15.2119 41.1065 15.2018 41.1083 15.1916L41.1106 15.1762L41.1125 15.1608C41.1135 15.1505 41.1142 15.1402 41.1146 15.1298C41.1149 15.1246 41.1149 15.1195 41.1149 15.1143C41.1149 15.1091 41.1149 15.1039 41.1146 15.0988C41.1142 15.0885 41.1135 15.0782 41.1125 15.0679C41.1108 15.0524 41.1084 15.0371 41.1053 15.0219L41.1019 15.0068C41.0994 14.9967 41.0966 14.9867 41.0935 14.9768L41.0886 14.9621C41.0851 14.9524 41.0812 14.9428 41.0772 14.9333C41.075 14.9285 41.0729 14.9237 41.0706 14.9191C41.0684 14.9144 41.0661 14.9098 41.0637 14.9052C41.0591 14.896 41.054 14.887 41.0484 14.8783C41.043 14.8695 41.0374 14.8608 41.0314 14.8524L41.0222 14.8397C40.9874 14.7945 40.9445 14.7561 40.8957 14.7265C40.8869 14.7212 40.8778 14.7162 40.8686 14.7115L38.7908 13.6444C38.77 13.6335 38.75 13.6212 38.7309 13.6075C38.6739 13.5657 38.6273 13.5113 38.5948 13.4486L37.5276 11.3705C37.5253 11.3659 37.5228 11.3614 37.5203 11.3569C37.5154 11.3477 37.5101 11.3388 37.5043 11.3302C37.4959 11.3172 37.4867 11.3046 37.477 11.2925L37.4671 11.2807C37.4602 11.2729 37.4531 11.2653 37.4458 11.2579L37.4348 11.2471C37.4235 11.2364 37.4116 11.2264 37.3993 11.217L37.3867 11.2077L37.3739 11.199C37.3653 11.1932 37.3565 11.1878 37.3474 11.1827C37.3295 11.1724 37.3108 11.1635 37.2915 11.156C37.2721 11.1485 37.2524 11.1422 37.2322 11.1372C37.2172 11.1334 37.2019 11.1305 37.1865 11.1285C37.1661 11.1255 37.1454 11.1241 37.1247 11.1241C37.0519 11.1242 36.9801 11.1418 36.9155 11.1755C36.897 11.1849 36.8793 11.1957 36.8626 11.2079C36.8583 11.2107 36.8543 11.2138 36.85 11.217C36.8377 11.2263 36.8259 11.2364 36.8146 11.2471C36.7957 11.2647 36.7783 11.284 36.7628 11.3048L36.7537 11.3174C36.7478 11.3259 36.7421 11.3346 36.7368 11.3434C36.7342 11.3478 36.7315 11.3523 36.729 11.3568Z" fill="black"/>
<path d="M32.366 8.56065C32.3647 8.56302 32.3634 8.56542 32.3622 8.56786L31.8063 9.65027C31.8009 9.66124 31.7945 9.67168 31.7871 9.68144C31.7765 9.69634 31.764 9.70987 31.75 9.72173C31.7361 9.73366 31.7208 9.74393 31.7045 9.75235L30.622 10.3084L30.6149 10.3122C30.6032 10.3189 30.5921 10.3264 30.5816 10.3348L30.5753 10.34L30.5693 10.3454C30.5636 10.351 30.558 10.3568 30.5526 10.3627C30.5491 10.3668 30.5457 10.371 30.5423 10.3752C30.539 10.3795 30.5358 10.3839 30.533 10.3884L30.5286 10.3952L30.5245 10.4022L30.5207 10.4093C30.5181 10.414 30.5158 10.4188 30.5138 10.4238L30.5106 10.4313C30.5086 10.4363 30.5068 10.4414 30.5053 10.4466C30.5036 10.4516 30.5022 10.4568 30.501 10.4621L30.4991 10.47L30.4976 10.4779L30.4963 10.4858L30.4954 10.4939L30.4947 10.5018L30.4943 10.51L30.4942 10.518C30.4941 10.5234 30.4943 10.5287 30.4947 10.5341L30.4954 10.5422L30.4963 10.5501L30.4976 10.5582L30.4991 10.5661L30.501 10.574C30.5031 10.5845 30.5064 10.5948 30.5106 10.6047L30.5138 10.6122C30.5158 10.6172 30.5181 10.622 30.5207 10.6268L30.5245 10.6339L30.5286 10.6407L30.533 10.6475C30.5358 10.6521 30.539 10.6565 30.5423 10.6608L30.5472 10.6671C30.5507 10.6712 30.5543 10.6753 30.5579 10.6793C30.5616 10.6831 30.5654 10.6869 30.5693 10.6906L30.5753 10.6961L30.5816 10.7012C30.5857 10.7047 30.59 10.7079 30.5945 10.7109C30.5988 10.7141 30.6033 10.717 30.608 10.7197L30.6149 10.7238L30.622 10.7276L31.7042 11.2834C31.7206 11.2917 31.7359 11.3019 31.7498 11.3139C31.7637 11.3259 31.7762 11.3394 31.7871 11.3542C31.7944 11.3641 31.8008 11.3745 31.8063 11.3854L32.3625 12.4676C32.3649 12.4725 32.3675 12.4772 32.3704 12.4818C32.3731 12.4865 32.376 12.491 32.3791 12.4954L32.3839 12.5018C32.3871 12.5061 32.3905 12.5103 32.3941 12.5143C32.3976 12.5184 32.4012 12.5224 32.4051 12.5262L32.4108 12.5317L32.4168 12.5372C32.4208 12.5408 32.425 12.5442 32.4293 12.5474C32.4358 12.5522 32.4425 12.5567 32.4494 12.561L32.4563 12.5651L32.4634 12.569L32.4706 12.5726L32.4779 12.576L32.4854 12.579C32.4929 12.5821 32.5006 12.5847 32.5084 12.5867C32.5162 12.5888 32.5241 12.5906 32.532 12.5922C32.5399 12.5936 32.548 12.5945 32.5561 12.5949C32.5802 12.5964 32.6045 12.5944 32.6281 12.5888L32.6358 12.5867L32.6436 12.5844C32.6488 12.5828 32.6538 12.581 32.6588 12.579L32.6663 12.576L32.6737 12.5726L32.6809 12.569L32.688 12.5651C32.6973 12.5597 32.7063 12.5538 32.7149 12.5474C32.7193 12.5442 32.7234 12.5408 32.7274 12.5372L32.7334 12.5317C32.7392 12.5261 32.7448 12.5203 32.7502 12.5143C32.7538 12.5103 32.7572 12.5061 32.7604 12.5018L32.7651 12.4953C32.7681 12.4908 32.771 12.4863 32.7739 12.4818C32.7767 12.4772 32.7794 12.4725 32.7818 12.4676L33.3379 11.3855C33.3433 11.3745 33.3497 11.3641 33.3571 11.3543C33.3678 11.3394 33.3803 11.3259 33.3943 11.314C33.4082 11.3021 33.4235 11.2919 33.4397 11.2834L34.5223 10.7276L34.5294 10.7238L34.5364 10.7197L34.5432 10.7155L34.5499 10.711C34.5565 10.7063 34.5629 10.7013 34.5691 10.6961L34.5751 10.6906L34.581 10.6852C34.5848 10.6814 34.5885 10.6775 34.592 10.6733C34.5954 10.6692 34.5988 10.665 34.6022 10.6608C34.6054 10.6564 34.6085 10.652 34.6116 10.6476C34.6146 10.6431 34.6175 10.6385 34.62 10.6337L34.6238 10.6266C34.6252 10.6243 34.6263 10.6219 34.6275 10.6194C34.6312 10.6122 34.6343 10.6048 34.6368 10.5971C34.6387 10.592 34.6404 10.5868 34.6418 10.5816L34.6438 10.5738L34.6456 10.5659C34.6468 10.5607 34.6477 10.5554 34.6483 10.55L34.6493 10.542C34.6499 10.5366 34.6503 10.5313 34.6504 10.5259L34.6505 10.5177L34.6504 10.5096C34.6503 10.5042 34.6499 10.4988 34.6493 10.4935L34.6483 10.4855C34.6474 10.4802 34.6465 10.4749 34.6456 10.4696L34.6438 10.4617L34.6418 10.4539C34.6401 10.4488 34.6385 10.4436 34.6368 10.4385C34.6343 10.4308 34.6312 10.4233 34.6275 10.4161L34.6238 10.4088C34.6203 10.4016 34.6162 10.3945 34.6116 10.3879C34.6085 10.3835 34.6054 10.3791 34.6022 10.3748C34.5988 10.3706 34.5954 10.3664 34.592 10.3623C34.5885 10.3582 34.5848 10.3542 34.581 10.3505L34.5751 10.3449L34.5691 10.3394C34.5651 10.3359 34.5608 10.3325 34.5565 10.3294C34.5543 10.3277 34.5521 10.3262 34.5499 10.3246C34.5477 10.323 34.5454 10.3215 34.5432 10.3201L34.5364 10.3157L34.5294 10.3117L34.5223 10.3078L33.44 9.75208C33.4236 9.74379 33.4083 9.73355 33.3944 9.72159C33.3806 9.70956 33.368 9.69605 33.3571 9.6813C33.3501 9.67135 33.3437 9.66099 33.3379 9.65027L32.782 8.56786C32.7796 8.56301 32.777 8.55828 32.7741 8.5537C32.7702 8.5467 32.7657 8.54001 32.7607 8.53369C32.7575 8.52929 32.7541 8.52506 32.7504 8.52104C32.747 8.51689 32.7433 8.51294 32.7394 8.50919C32.7375 8.50732 32.7356 8.50546 32.7337 8.50361L32.7277 8.49817C32.7257 8.49635 32.7236 8.49458 32.7215 8.49286L32.7152 8.48782C32.713 8.48621 32.7109 8.48462 32.7087 8.48306L32.702 8.47857L32.6952 8.47421C32.6906 8.4713 32.6859 8.46862 32.681 8.46618C32.6739 8.46228 32.6666 8.45891 32.659 8.45611C32.6389 8.44824 32.6178 8.44311 32.5964 8.44086C32.5857 8.43958 32.5749 8.43917 32.5641 8.43964C32.5234 8.44097 32.4838 8.45289 32.4491 8.47421L32.4423 8.47857L32.4356 8.48306C32.4334 8.48462 32.4312 8.48621 32.4291 8.48782L32.4228 8.49286C32.4207 8.49453 32.4186 8.49626 32.4165 8.49803L32.4106 8.50348C32.4048 8.50918 32.3992 8.51503 32.3938 8.52104L32.3886 8.5273C32.387 8.52934 32.3852 8.53138 32.3836 8.53369L32.379 8.54009C32.3774 8.54232 32.3758 8.54459 32.3744 8.5469L32.3701 8.5537L32.366 8.56065ZM36.729 11.3568L36.7217 11.3705L35.6545 13.4486C35.6333 13.4906 35.6054 13.5289 35.572 13.562C35.5473 13.5871 35.5196 13.609 35.4895 13.6273C35.4796 13.6335 35.4694 13.6393 35.4589 13.6446L33.3808 14.7123C33.367 14.7193 33.3536 14.7271 33.3407 14.7356C33.3363 14.7384 33.332 14.7413 33.3277 14.7443L33.3152 14.7534C33.3069 14.7596 33.2989 14.7661 33.2911 14.7729C33.2834 14.7798 33.2759 14.7868 33.2685 14.794C33.261 14.8012 33.254 14.8088 33.2473 14.8167C33.2336 14.8323 33.2211 14.8487 33.2098 14.866C33.2042 14.8746 33.1988 14.8835 33.1936 14.8924C33.1912 14.8969 33.1886 14.9014 33.1863 14.906L33.1793 14.9199C33.1728 14.9339 33.1668 14.9482 33.1615 14.9628L33.1566 14.9775C33.155 14.9824 33.1536 14.9874 33.1521 14.9925C33.1494 15.0024 33.1469 15.0124 33.1448 15.0224L33.1419 15.0377C33.1394 15.053 33.1376 15.0684 33.1363 15.0839L33.1355 15.0993C33.1354 15.1045 33.1353 15.1097 33.1352 15.1148L33.1355 15.1304L33.1363 15.1457L33.1377 15.1613C33.1382 15.1663 33.1388 15.1715 33.1396 15.1765L33.1419 15.1919L33.1448 15.2071C33.147 15.2172 33.1494 15.2272 33.1521 15.2372C33.1536 15.2421 33.155 15.2471 33.1566 15.252L33.1615 15.2667C33.1668 15.2813 33.1728 15.2956 33.1793 15.3096L33.1863 15.3235C33.1886 15.3281 33.1912 15.3326 33.1936 15.3371C33.2039 15.355 33.2153 15.3723 33.2277 15.3888C33.2528 15.4217 33.2822 15.4511 33.3152 15.4761L33.3277 15.4852C33.3362 15.4912 33.3448 15.4969 33.3537 15.5022C33.3626 15.5075 33.3716 15.5125 33.3808 15.5172L35.4585 16.5844C35.4794 16.595 35.4995 16.6073 35.5184 16.6211C35.5468 16.6419 35.5727 16.6659 35.5957 16.6926C35.611 16.7104 35.6248 16.7294 35.6372 16.7493C35.6433 16.7594 35.6492 16.7696 35.6545 16.78L36.7222 18.8581C36.7293 18.8718 36.7371 18.8852 36.7455 18.8982C36.754 18.9112 36.7631 18.9237 36.7729 18.9358L36.7828 18.9478C36.7896 18.9555 36.7967 18.9631 36.804 18.9704L36.815 18.9813C36.8263 18.9919 36.8382 19.0019 36.8506 19.0112C36.8629 19.0206 36.8757 19.0294 36.889 19.0373C36.911 19.0509 36.9342 19.0625 36.9582 19.0719C36.9727 19.0775 36.9873 19.0825 37.0022 19.0867C37.0172 19.0908 37.0323 19.0942 37.0475 19.097C37.0935 19.1047 37.1403 19.1055 37.1865 19.0993C37.2533 19.09 37.3172 19.066 37.3735 19.029L37.3863 19.0203C37.3905 19.0174 37.3947 19.0143 37.3987 19.0112L37.411 19.0017C37.4189 18.995 37.4266 18.9882 37.4342 18.9813C37.4532 18.9637 37.4706 18.9444 37.486 18.9237C37.5015 18.903 37.5153 18.8811 37.5272 18.8581L38.5948 16.7805C38.6108 16.7491 38.6305 16.7197 38.6535 16.693C38.6685 16.675 38.6851 16.6583 38.703 16.6432C38.7298 16.6203 38.7591 16.6006 38.7904 16.5844L40.8686 15.5172L40.8822 15.51L40.8957 15.5022C40.9136 15.4917 40.9306 15.4797 40.9466 15.4666C40.9546 15.46 40.9624 15.4532 40.97 15.4463C40.989 15.4286 41.0064 15.4094 41.0222 15.3888L41.0314 15.3763C41.0463 15.3552 41.0595 15.3329 41.0706 15.3096L41.0772 15.2955C41.0813 15.286 41.0851 15.2763 41.0886 15.2666L41.0935 15.2519C41.0968 15.2421 41.0997 15.2321 41.1019 15.222C41.1043 15.2119 41.1065 15.2018 41.1083 15.1916L41.1106 15.1762L41.1125 15.1608C41.1135 15.1505 41.1142 15.1402 41.1146 15.1298C41.1149 15.1246 41.1149 15.1195 41.1149 15.1143C41.1149 15.1091 41.1149 15.1039 41.1146 15.0988C41.1142 15.0885 41.1135 15.0782 41.1125 15.0679C41.1108 15.0524 41.1084 15.0371 41.1053 15.0219L41.1019 15.0068C41.0994 14.9967 41.0966 14.9867 41.0935 14.9768L41.0886 14.9621C41.0851 14.9524 41.0812 14.9428 41.0772 14.9333C41.075 14.9285 41.0729 14.9237 41.0706 14.9191C41.0684 14.9144 41.0661 14.9098 41.0637 14.9052C41.0591 14.896 41.054 14.887 41.0484 14.8783C41.043 14.8695 41.0374 14.8608 41.0314 14.8524L41.0222 14.8397C40.9874 14.7945 40.9445 14.7561 40.8957 14.7265C40.8869 14.7212 40.8778 14.7162 40.8686 14.7115L38.7908 13.6444C38.77 13.6335 38.75 13.6212 38.7309 13.6075C38.6739 13.5657 38.6273 13.5113 38.5948 13.4486L37.5276 11.3705C37.5253 11.3659 37.5228 11.3614 37.5203 11.3569C37.5154 11.3477 37.5101 11.3388 37.5043 11.3302C37.4959 11.3172 37.4867 11.3046 37.477 11.2925L37.4671 11.2807C37.4602 11.2729 37.4531 11.2653 37.4458 11.2579L37.4348 11.2471C37.4235 11.2364 37.4116 11.2264 37.3993 11.217L37.3867 11.2077L37.3739 11.199C37.3653 11.1932 37.3565 11.1878 37.3474 11.1827C37.3295 11.1724 37.3108 11.1635 37.2915 11.156C37.2721 11.1485 37.2524 11.1422 37.2322 11.1372C37.2172 11.1334 37.2019 11.1305 37.1865 11.1285C37.1661 11.1255 37.1454 11.1241 37.1247 11.1241C37.0519 11.1242 36.9801 11.1418 36.9155 11.1755C36.897 11.1849 36.8793 11.1957 36.8626 11.2079C36.8583 11.2107 36.8543 11.2138 36.85 11.217C36.8377 11.2263 36.8259 11.2364 36.8146 11.2471C36.7957 11.2647 36.7783 11.284 36.7628 11.3048L36.7537 11.3174C36.7478 11.3259 36.7421 11.3346 36.7368 11.3434C36.7342 11.3478 36.7315 11.3523 36.729 11.3568Z" fill="#CC63FE"/>
<path d="M32.366 8.56065C32.3647 8.56302 32.3634 8.56542 32.3622 8.56786L31.8063 9.65027C31.8009 9.66124 31.7945 9.67168 31.7871 9.68144C31.7765 9.69634 31.764 9.70987 31.75 9.72173C31.7361 9.73366 31.7208 9.74393 31.7045 9.75235L30.622 10.3084L30.6149 10.3122C30.6032 10.3189 30.5921 10.3264 30.5816 10.3348L30.5753 10.34L30.5693 10.3454C30.5636 10.351 30.558 10.3568 30.5526 10.3627C30.5491 10.3668 30.5457 10.371 30.5423 10.3752C30.539 10.3795 30.5358 10.3839 30.533 10.3884L30.5286 10.3952L30.5245 10.4022L30.5207 10.4093C30.5181 10.414 30.5158 10.4188 30.5138 10.4238L30.5106 10.4313C30.5086 10.4363 30.5068 10.4414 30.5053 10.4466C30.5036 10.4516 30.5022 10.4568 30.501 10.4621L30.4991 10.47L30.4976 10.4779L30.4963 10.4858L30.4954 10.4939L30.4947 10.5018L30.4943 10.51L30.4942 10.518C30.4941 10.5234 30.4943 10.5287 30.4947 10.5341L30.4954 10.5422L30.4963 10.5501L30.4976 10.5582L30.4991 10.5661L30.501 10.574C30.5031 10.5845 30.5064 10.5948 30.5106 10.6047L30.5138 10.6122C30.5158 10.6172 30.5181 10.622 30.5207 10.6268L30.5245 10.6339L30.5286 10.6407L30.533 10.6475C30.5358 10.6521 30.539 10.6565 30.5423 10.6608L30.5472 10.6671C30.5507 10.6712 30.5543 10.6753 30.5579 10.6793C30.5616 10.6831 30.5654 10.6869 30.5693 10.6906L30.5753 10.6961L30.5816 10.7012C30.5857 10.7047 30.59 10.7079 30.5945 10.7109C30.5988 10.7141 30.6033 10.717 30.608 10.7197L30.6149 10.7238L30.622 10.7276L31.7042 11.2834C31.7206 11.2917 31.7359 11.3019 31.7498 11.3139C31.7637 11.3259 31.7762 11.3394 31.7871 11.3542C31.7944 11.3641 31.8008 11.3745 31.8063 11.3854L32.3625 12.4676C32.3649 12.4725 32.3675 12.4772 32.3704 12.4818C32.3731 12.4865 32.376 12.491 32.3791 12.4954L32.3839 12.5018C32.3871 12.5061 32.3905 12.5103 32.3941 12.5143C32.3976 12.5184 32.4012 12.5224 32.4051 12.5262L32.4108 12.5317L32.4168 12.5372C32.4208 12.5408 32.425 12.5442 32.4293 12.5474C32.4358 12.5522 32.4425 12.5567 32.4494 12.561L32.4563 12.5651L32.4634 12.569L32.4706 12.5726L32.4779 12.576L32.4854 12.579C32.4929 12.5821 32.5006 12.5847 32.5084 12.5867C32.5162 12.5888 32.5241 12.5906 32.532 12.5922C32.5399 12.5936 32.548 12.5945 32.5561 12.5949C32.5802 12.5964 32.6045 12.5944 32.6281 12.5888L32.6358 12.5867L32.6436 12.5844C32.6488 12.5828 32.6538 12.581 32.6588 12.579L32.6663 12.576L32.6737 12.5726L32.6809 12.569L32.688 12.5651C32.6973 12.5597 32.7063 12.5538 32.7149 12.5474C32.7193 12.5442 32.7234 12.5408 32.7274 12.5372L32.7334 12.5317C32.7392 12.5261 32.7448 12.5203 32.7502 12.5143C32.7538 12.5103 32.7572 12.5061 32.7604 12.5018L32.7651 12.4953C32.7681 12.4908 32.771 12.4863 32.7739 12.4818C32.7767 12.4772 32.7794 12.4725 32.7818 12.4676L33.3379 11.3855C33.3433 11.3745 33.3497 11.3641 33.3571 11.3543C33.3678 11.3394 33.3803 11.3259 33.3943 11.314C33.4082 11.3021 33.4235 11.2919 33.4397 11.2834L34.5223 10.7276L34.5294 10.7238L34.5364 10.7197L34.5432 10.7155L34.5499 10.711C34.5565 10.7063 34.5629 10.7013 34.5691 10.6961L34.5751 10.6906L34.581 10.6852C34.5848 10.6814 34.5885 10.6775 34.592 10.6733C34.5954 10.6692 34.5988 10.665 34.6022 10.6608C34.6054 10.6564 34.6085 10.652 34.6116 10.6476C34.6146 10.6431 34.6175 10.6385 34.62 10.6337L34.6238 10.6266C34.6252 10.6243 34.6263 10.6219 34.6275 10.6194C34.6312 10.6122 34.6343 10.6048 34.6368 10.5971C34.6387 10.592 34.6404 10.5868 34.6418 10.5816L34.6438 10.5738L34.6456 10.5659C34.6468 10.5607 34.6477 10.5554 34.6483 10.55L34.6493 10.542C34.6499 10.5366 34.6503 10.5313 34.6504 10.5259L34.6505 10.5177L34.6504 10.5096C34.6503 10.5042 34.6499 10.4988 34.6493 10.4935L34.6483 10.4855C34.6474 10.4802 34.6465 10.4749 34.6456 10.4696L34.6438 10.4617L34.6418 10.4539C34.6401 10.4488 34.6385 10.4436 34.6368 10.4385C34.6343 10.4308 34.6312 10.4233 34.6275 10.4161L34.6238 10.4088C34.6203 10.4016 34.6162 10.3945 34.6116 10.3879C34.6085 10.3835 34.6054 10.3791 34.6022 10.3748C34.5988 10.3706 34.5954 10.3664 34.592 10.3623C34.5885 10.3582 34.5848 10.3542 34.581 10.3505L34.5751 10.3449L34.5691 10.3394C34.5651 10.3359 34.5608 10.3325 34.5565 10.3294C34.5543 10.3277 34.5521 10.3262 34.5499 10.3246C34.5477 10.323 34.5454 10.3215 34.5432 10.3201L34.5364 10.3157L34.5294 10.3117L34.5223 10.3078L33.44 9.75208C33.4236 9.74379 33.4083 9.73355 33.3944 9.72159C33.3806 9.70956 33.368 9.69605 33.3571 9.6813C33.3501 9.67135 33.3437 9.66099 33.3379 9.65027L32.782 8.56786C32.7796 8.56301 32.777 8.55828 32.7741 8.5537C32.7702 8.5467 32.7657 8.54001 32.7607 8.53369C32.7575 8.52929 32.7541 8.52506 32.7504 8.52104C32.747 8.51689 32.7433 8.51294 32.7394 8.50919C32.7375 8.50732 32.7356 8.50546 32.7337 8.50361L32.7277 8.49817C32.7257 8.49635 32.7236 8.49458 32.7215 8.49286L32.7152 8.48782C32.713 8.48621 32.7109 8.48462 32.7087 8.48306L32.702 8.47857L32.6952 8.47421C32.6906 8.4713 32.6859 8.46862 32.681 8.46618C32.6739 8.46228 32.6666 8.45891 32.659 8.45611C32.6389 8.44824 32.6178 8.44311 32.5964 8.44086C32.5857 8.43958 32.5749 8.43917 32.5641 8.43964C32.5234 8.44097 32.4838 8.45289 32.4491 8.47421L32.4423 8.47857L32.4356 8.48306C32.4334 8.48462 32.4312 8.48621 32.4291 8.48782L32.4228 8.49286C32.4207 8.49453 32.4186 8.49626 32.4165 8.49803L32.4106 8.50348C32.4048 8.50918 32.3992 8.51503 32.3938 8.52104L32.3886 8.5273C32.387 8.52934 32.3852 8.53138 32.3836 8.53369L32.379 8.54009C32.3774 8.54232 32.3758 8.54459 32.3744 8.5469L32.3701 8.5537L32.366 8.56065ZM36.729 11.3568L36.7217 11.3705L35.6545 13.4486C35.6333 13.4906 35.6054 13.5289 35.572 13.562C35.5473 13.5871 35.5196 13.609 35.4895 13.6273C35.4796 13.6335 35.4694 13.6393 35.4589 13.6446L33.3808 14.7123C33.367 14.7193 33.3536 14.7271 33.3407 14.7356C33.3363 14.7384 33.332 14.7413 33.3277 14.7443L33.3152 14.7534C33.3069 14.7596 33.2989 14.7661 33.2911 14.7729C33.2834 14.7798 33.2759 14.7868 33.2685 14.794C33.261 14.8012 33.254 14.8088 33.2473 14.8167C33.2336 14.8323 33.2211 14.8487 33.2098 14.866C33.2042 14.8746 33.1988 14.8835 33.1936 14.8924C33.1912 14.8969 33.1886 14.9014 33.1863 14.906L33.1793 14.9199C33.1728 14.9339 33.1668 14.9482 33.1615 14.9628L33.1566 14.9775C33.155 14.9824 33.1536 14.9874 33.1521 14.9925C33.1494 15.0024 33.1469 15.0124 33.1448 15.0224L33.1419 15.0377C33.1394 15.053 33.1376 15.0684 33.1363 15.0839L33.1355 15.0993C33.1354 15.1045 33.1353 15.1097 33.1352 15.1148L33.1355 15.1304L33.1363 15.1457L33.1377 15.1613C33.1382 15.1663 33.1388 15.1715 33.1396 15.1765L33.1419 15.1919L33.1448 15.2071C33.147 15.2172 33.1494 15.2272 33.1521 15.2372C33.1536 15.2421 33.155 15.2471 33.1566 15.252L33.1615 15.2667C33.1668 15.2813 33.1728 15.2956 33.1793 15.3096L33.1863 15.3235C33.1886 15.3281 33.1912 15.3326 33.1936 15.3371C33.2039 15.355 33.2153 15.3723 33.2277 15.3888C33.2528 15.4217 33.2822 15.4511 33.3152 15.4761L33.3277 15.4852C33.3362 15.4912 33.3448 15.4969 33.3537 15.5022C33.3626 15.5075 33.3716 15.5125 33.3808 15.5172L35.4585 16.5844C35.4794 16.595 35.4995 16.6073 35.5184 16.6211C35.5468 16.6419 35.5727 16.6659 35.5957 16.6926C35.611 16.7104 35.6248 16.7294 35.6372 16.7493C35.6433 16.7594 35.6492 16.7696 35.6545 16.78L36.7222 18.8581C36.7293 18.8718 36.7371 18.8852 36.7455 18.8982C36.754 18.9112 36.7631 18.9237 36.7729 18.9358L36.7828 18.9478C36.7896 18.9555 36.7967 18.9631 36.804 18.9704L36.815 18.9813C36.8263 18.9919 36.8382 19.0019 36.8506 19.0112C36.8629 19.0206 36.8757 19.0294 36.889 19.0373C36.911 19.0509 36.9342 19.0625 36.9582 19.0719C36.9727 19.0775 36.9873 19.0825 37.0022 19.0867C37.0172 19.0908 37.0323 19.0942 37.0475 19.097C37.0935 19.1047 37.1403 19.1055 37.1865 19.0993C37.2533 19.09 37.3172 19.066 37.3735 19.029L37.3863 19.0203C37.3905 19.0174 37.3947 19.0143 37.3987 19.0112L37.411 19.0017C37.4189 18.995 37.4266 18.9882 37.4342 18.9813C37.4532 18.9637 37.4706 18.9444 37.486 18.9237C37.5015 18.903 37.5153 18.8811 37.5272 18.8581L38.5948 16.7805C38.6108 16.7491 38.6305 16.7197 38.6535 16.693C38.6685 16.675 38.6851 16.6583 38.703 16.6432C38.7298 16.6203 38.7591 16.6006 38.7904 16.5844L40.8686 15.5172L40.8822 15.51L40.8957 15.5022C40.9136 15.4917 40.9306 15.4797 40.9466 15.4666C40.9546 15.46 40.9624 15.4532 40.97 15.4463C40.989 15.4286 41.0064 15.4094 41.0222 15.3888L41.0314 15.3763C41.0463 15.3552 41.0595 15.3329 41.0706 15.3096L41.0772 15.2955C41.0813 15.286 41.0851 15.2763 41.0886 15.2666L41.0935 15.2519C41.0968 15.2421 41.0997 15.2321 41.1019 15.222C41.1043 15.2119 41.1065 15.2018 41.1083 15.1916L41.1106 15.1762L41.1125 15.1608C41.1135 15.1505 41.1142 15.1402 41.1146 15.1298C41.1149 15.1246 41.1149 15.1195 41.1149 15.1143C41.1149 15.1091 41.1149 15.1039 41.1146 15.0988C41.1142 15.0885 41.1135 15.0782 41.1125 15.0679C41.1108 15.0524 41.1084 15.0371 41.1053 15.0219L41.1019 15.0068C41.0994 14.9967 41.0966 14.9867 41.0935 14.9768L41.0886 14.9621C41.0851 14.9524 41.0812 14.9428 41.0772 14.9333C41.075 14.9285 41.0729 14.9237 41.0706 14.9191C41.0684 14.9144 41.0661 14.9098 41.0637 14.9052C41.0591 14.896 41.054 14.887 41.0484 14.8783C41.043 14.8695 41.0374 14.8608 41.0314 14.8524L41.0222 14.8397C40.9874 14.7945 40.9445 14.7561 40.8957 14.7265C40.8869 14.7212 40.8778 14.7162 40.8686 14.7115L38.7908 13.6444C38.77 13.6335 38.75 13.6212 38.7309 13.6075C38.6739 13.5657 38.6273 13.5113 38.5948 13.4486L37.5276 11.3705C37.5253 11.3659 37.5228 11.3614 37.5203 11.3569C37.5154 11.3477 37.5101 11.3388 37.5043 11.3302C37.4959 11.3172 37.4867 11.3046 37.477 11.2925L37.4671 11.2807C37.4602 11.2729 37.4531 11.2653 37.4458 11.2579L37.4348 11.2471C37.4235 11.2364 37.4116 11.2264 37.3993 11.217L37.3867 11.2077L37.3739 11.199C37.3653 11.1932 37.3565 11.1878 37.3474 11.1827C37.3295 11.1724 37.3108 11.1635 37.2915 11.156C37.2721 11.1485 37.2524 11.1422 37.2322 11.1372C37.2172 11.1334 37.2019 11.1305 37.1865 11.1285C37.1661 11.1255 37.1454 11.1241 37.1247 11.1241C37.0519 11.1242 36.9801 11.1418 36.9155 11.1755C36.897 11.1849 36.8793 11.1957 36.8626 11.2079C36.8583 11.2107 36.8543 11.2138 36.85 11.217C36.8377 11.2263 36.8259 11.2364 36.8146 11.2471C36.7957 11.2647 36.7783 11.284 36.7628 11.3048L36.7537 11.3174C36.7478 11.3259 36.7421 11.3346 36.7368 11.3434C36.7342 11.3478 36.7315 11.3523 36.729 11.3568Z" stroke="#28123F" stroke-width="2" mask="url(#path-3-outside-1_368_8270)"/>
<defs>
<linearGradient id="paint0_linear_368_8270" x1="33.9496" y1="12.3008" x2="13.4187" y2="39.5605" gradientUnits="userSpaceOnUse">
<stop stop-color="#D467FF"/>
<stop offset="1" stop-color="#7F43F4"/>
</linearGradient>
</defs>
</svg>
