<svg width="44" height="44" viewBox="0 0 44 44" fill="none" xmlns="http://www.w3.org/2000/svg">
<foreignObject x="-8" y="-8" width="60" height="60"><div xmlns="http://www.w3.org/1999/xhtml" style="backdrop-filter:blur(2px);clip-path:url(#bgblur_0_671_481_clip_path);height:100%;width:100%"></div></foreignObject><g data-figma-bg-blur-radius="4">
<rect width="44" height="44" rx="4" fill="#060606" fill-opacity="0.3"/>
<path d="M21.9999 29.8509C21.8695 29.8509 21.6074 29.8509 21.4769 29.7217C21.3453 29.7217 21.2148 29.5936 21.0844 29.4644L14.5415 23.023C14.4175 22.9077 14.3186 22.7681 14.251 22.6128C14.1833 22.4576 14.1484 22.2901 14.1484 22.1208C14.1484 21.9514 14.1833 21.7839 14.251 21.6287C14.3186 21.4734 14.4175 21.3338 14.5415 21.2185C14.6607 21.0962 14.8032 20.999 14.9605 20.9326C15.1179 20.8662 15.2869 20.832 15.4577 20.832C15.6285 20.832 15.7975 20.8662 15.9548 20.9326C16.1122 20.999 16.2547 21.0962 16.3738 21.2185L20.6918 25.4701V11.8143C20.6918 11.0413 21.2148 10.5255 21.9999 10.5255C22.785 10.5255 23.308 11.0413 23.308 11.8143V25.4701L27.626 21.2185C27.7452 21.0962 27.8877 20.999 28.045 20.9326C28.2024 20.8662 28.3714 20.832 28.5422 20.832C28.713 20.832 28.882 20.8662 29.0393 20.9326C29.1967 20.999 29.3392 21.0962 29.4583 21.2185C29.5823 21.3338 29.6813 21.4734 29.7489 21.6287C29.8165 21.7839 29.8514 21.9514 29.8514 22.1208C29.8514 22.2901 29.8165 22.4576 29.7489 22.6128C29.6813 22.7681 29.5823 22.9077 29.4583 23.023L22.9155 29.4644C22.785 29.5936 22.6546 29.7217 22.5229 29.7217C22.3925 29.8509 22.1304 29.8509 21.9999 29.8509Z" fill="white" fill-opacity="0.7"/>
<path d="M29.7654 33.4745H14.2338C13.4608 33.4745 12.9414 32.9913 12.9414 32.2666C12.9414 31.5419 13.4596 31.0588 14.235 31.0588H29.7666C30.542 31.0588 31.0602 31.5419 31.0602 32.2666C31.0602 32.9913 30.542 33.4745 29.7666 33.4745H29.7654Z" fill="white" fill-opacity="0.7"/>
</g>
<defs>
<clipPath id="bgblur_0_671_481_clip_path" transform="translate(8 8)"><rect width="44" height="44" rx="4"/>
</clipPath></defs>
</svg>
