<svg width="44" height="44" viewBox="0 0 44 44" fill="none" xmlns="http://www.w3.org/2000/svg">
<foreignObject x="-8" y="-8" width="60" height="60"><div xmlns="http://www.w3.org/1999/xhtml" style="backdrop-filter:blur(2px);clip-path:url(#bgblur_0_671_487_clip_path);height:100%;width:100%"></div></foreignObject><g data-figma-bg-blur-radius="4">
<rect width="44" height="44" rx="4" fill="#060606" fill-opacity="0.3"/>
<g opacity="0.7">
<path d="M21.999 36.0811C14.2328 36.0811 7.91797 29.7663 7.91797 22C7.91797 14.2337 14.2328 7.91895 21.999 7.91895C29.7653 7.91895 36.0801 14.2337 36.0801 22C36.0801 29.7663 29.7653 36.0811 21.999 36.0811ZM21.999 10.0614C15.4164 10.0614 10.0604 15.4174 10.0604 22C10.0604 28.5826 15.4164 33.9386 21.999 33.9386C28.5816 33.9386 33.9377 28.5826 33.9377 22C33.9377 15.4174 28.5816 10.0614 21.999 10.0614Z" fill="white"/>
<path d="M20.5024 27.1418C20.1649 27.1418 19.8275 27.0615 19.5168 26.8955C19.175 26.7148 18.8891 26.4442 18.6899 26.1129C18.4907 25.7816 18.3859 25.4021 18.3867 25.0155V18.9846C18.3867 18.1972 18.8206 17.4742 19.5168 17.1046C20.2131 16.735 21.054 16.7832 21.7075 17.2278L25.8852 20.254C26.4583 20.6503 26.8011 21.3037 26.8011 22C26.8011 22.7017 26.4529 23.3605 25.8691 23.7568L21.7289 26.7562C21.3486 27.0133 20.9255 27.1418 20.5024 27.1418ZM20.4702 18.9792L20.5238 25.0155L24.6372 22.0054L24.6265 21.9947H24.6372L20.4702 18.9792Z" fill="white"/>
</g>
</g>
<defs>
<clipPath id="bgblur_0_671_487_clip_path" transform="translate(8 8)"><rect width="44" height="44" rx="4"/>
</clipPath></defs>
</svg>
