<svg width="44" height="44" viewBox="0 0 44 44" fill="none" xmlns="http://www.w3.org/2000/svg">
<foreignObject x="-8" y="-8" width="60" height="60"><div xmlns="http://www.w3.org/1999/xhtml" style="backdrop-filter:blur(2px);clip-path:url(#bgblur_0_671_485_clip_path);height:100%;width:100%"></div></foreignObject><g data-figma-bg-blur-radius="4">
<rect width="44" height="44" rx="4" fill="#060606" fill-opacity="0.3"/>
<g opacity="0.7">
<path d="M14.2481 14.2519C12.536 15.9624 11.4479 18.1837 11.1351 20.5613C11.0488 21.2175 10.5137 21.7473 9.8518 21.7441C9.17504 21.7409 8.62627 21.1831 8.70147 20.5105C8.96121 18.1877 9.82622 15.9656 11.2196 14.0712C12.8569 11.8453 15.1433 10.181 17.7647 9.30711C20.3862 8.43322 23.2139 8.3926 25.8593 9.19083C28.5047 9.98906 30.838 11.587 32.5385 13.7649L34.3326 12.36C34.3702 12.3307 34.4151 12.3126 34.4625 12.3077C34.5098 12.3028 34.5575 12.3112 34.6003 12.3321C34.643 12.353 34.679 12.3855 34.7042 12.4258C34.7294 12.4662 34.7427 12.5128 34.7427 12.5603L34.7194 18.3224C34.7191 18.3611 34.7101 18.3991 34.693 18.4338C34.6759 18.4684 34.6512 18.4988 34.6207 18.5225C34.5902 18.5463 34.5548 18.5628 34.517 18.5709C34.4792 18.5791 34.4401 18.5785 34.4025 18.5694L28.8059 17.1994C28.7595 17.1876 28.7174 17.1631 28.6842 17.1286C28.6511 17.0941 28.6283 17.051 28.6183 17.0042C28.6084 16.9574 28.6117 16.9088 28.628 16.8638C28.6443 16.8188 28.6728 16.7793 28.7104 16.7497L30.6279 15.2538C30.3553 14.902 30.0594 14.5665 29.7425 14.2519C28.7283 13.2308 27.5215 12.4213 26.192 11.8701C24.8625 11.319 23.4368 11.0372 21.9976 11.0412C20.5579 11.0381 19.1318 11.3203 17.8017 11.8714C16.4716 12.4225 15.2638 13.2315 14.2481 14.2519Z" fill="white"/>
<path d="M29.7565 29.7464C31.4714 28.0376 32.5603 25.8153 32.8708 23.4368C32.9564 22.7811 33.4912 22.2515 34.1524 22.2554C34.827 22.2593 35.3737 22.8154 35.2989 23.4858C35.0397 25.8099 34.1746 28.0331 32.7806 29.9284C31.1436 32.1541 28.8576 33.8183 26.2367 34.6924C23.6157 35.5665 20.7885 35.6075 18.1432 34.8099C15.498 34.0124 13.1646 32.4152 11.4637 30.238L9.66963 31.6407C9.5042 31.7758 9.25722 31.6547 9.25722 31.4403L9.28052 25.6759C9.28092 25.6375 9.28993 25.5997 9.30689 25.5653C9.32385 25.5308 9.34833 25.5006 9.37853 25.4769C9.40872 25.4532 9.44386 25.4366 9.48134 25.4283C9.51882 25.42 9.55769 25.4202 9.59507 25.4289L15.1941 26.7989C15.2402 26.811 15.2821 26.8358 15.315 26.8704C15.3479 26.905 15.3704 26.9481 15.3801 26.9949C15.3898 27.0416 15.3863 27.0902 15.3699 27.135C15.3534 27.1798 15.3248 27.2192 15.2873 27.2486L13.3697 28.7468C14.3916 30.0612 15.701 31.124 17.1973 31.8539C18.6937 32.5837 20.3374 32.9611 22.0023 32.9571C23.4428 32.9604 24.8696 32.6784 26.2005 32.1273C27.5314 31.5762 28.74 30.767 29.7565 29.7464Z" fill="white"/>
</g>
</g>
<defs>
<clipPath id="bgblur_0_671_485_clip_path" transform="translate(8 8)"><rect width="44" height="44" rx="4"/>
</clipPath></defs>
</svg>
