<svg width="44" height="44" viewBox="0 0 44 44" fill="none" xmlns="http://www.w3.org/2000/svg">
<foreignObject x="-8" y="-8" width="60" height="60"><div xmlns="http://www.w3.org/1999/xhtml" style="backdrop-filter:blur(2px);clip-path:url(#bgblur_0_627_388_clip_path);height:100%;width:100%"></div></foreignObject><g data-figma-bg-blur-radius="4">
<path opacity="0.3" d="M17.2515 8.40266H18.9766C21.4708 8.40266 23.4569 8.40266 25.0141 8.61246C26.6249 8.82925 27.9513 9.28848 29.0003 10.3375C30.0493 11.3865 30.5085 12.7129 30.7253 14.3237C30.7486 14.4938 30.7696 14.6687 30.7883 14.8505C31.7137 14.1045 32.5203 13.4891 33.2266 13.0625C34.2896 12.4192 35.5111 11.9623 36.7372 12.573C37.9471 13.1721 38.3527 14.4099 38.5299 15.6547C38.707 16.9042 38.707 18.5989 38.707 20.6853V23.3147C38.707 25.4011 38.707 27.0981 38.5299 28.3453C38.3527 29.5901 37.9471 30.8302 36.7349 31.4293C35.5111 32.0354 34.2896 31.5808 33.2266 30.9398C32.5203 30.5109 31.7137 29.8978 30.7883 29.1495C30.7702 29.3262 30.7492 29.5026 30.7253 29.6787C30.5085 31.2871 30.0493 32.6159 29.0003 33.6648C27.9513 34.7138 26.6249 35.1731 25.0141 35.3899C23.4569 35.5997 21.4708 35.5997 18.9766 35.5997H17.2515C14.7596 35.5997 12.7735 35.5997 11.214 35.3899C9.60551 35.1731 8.27678 34.7138 7.22779 33.6648C6.17879 32.6159 5.71956 31.2871 5.50277 29.6787C5.29297 28.1192 5.29297 26.1307 5.29297 23.6411V20.3589C5.29297 17.8693 5.29297 15.8832 5.50277 14.3213C5.71956 12.7129 6.17879 11.3841 7.22779 10.3351C8.27678 9.28615 9.60551 8.82925 11.214 8.61013C12.7735 8.40033 14.7596 8.40033 17.2515 8.40033V8.40266ZM30.9235 26.2496C32.4853 27.5364 33.5763 28.4245 34.4318 28.942C35.3432 29.4922 35.6067 29.3873 35.7022 29.3383C35.8118 29.2847 36.0659 29.1099 36.2221 28.0189C36.3713 26.9536 36.3759 25.4244 36.3759 23.2168V20.7832C36.3759 18.5733 36.3713 17.0441 36.2221 15.9788C36.0659 14.8878 35.8118 14.713 35.7022 14.657C35.609 14.6104 35.3432 14.5055 34.4318 15.0533C33.5763 15.5731 32.483 16.4636 30.9235 17.7481C30.9351 18.5476 30.9351 19.4171 30.9351 20.3589V23.6388C30.9351 24.5782 30.9351 25.4477 30.9235 26.2496ZM11.524 10.9226C10.172 11.1044 9.42136 11.4401 8.87588 11.9856C8.33273 12.5287 7.99472 13.2817 7.81289 14.6337C7.62641 16.0184 7.62641 17.8506 7.62641 20.4452V23.5548C7.62641 26.1517 7.62641 27.9839 7.81289 29.3663C7.99472 30.7183 8.33273 31.4713 8.87588 32.0144C9.42136 32.5599 10.172 32.8979 11.524 33.0774C12.911 33.2639 14.7409 33.2662 17.3378 33.2662H18.8926C21.4895 33.2662 23.3194 33.2662 24.7041 33.0797C26.0561 32.8956 26.8091 32.5599 27.3522 32.0144C27.8977 31.4713 28.2334 30.7183 28.4152 29.3663C28.6017 27.9816 28.604 26.1494 28.604 23.5548V20.4452C28.604 17.8483 28.604 16.0184 28.4175 14.6337C28.2334 13.2817 27.8977 12.5287 27.3522 11.9856C26.8091 11.4401 26.0561 11.1044 24.7041 10.9226C23.3194 10.7361 21.4872 10.7338 18.8926 10.7338H17.3378C14.7409 10.7338 12.9087 10.7338 11.524 10.9203V10.9226Z" fill="white"/>
</g>
<defs>
<clipPath id="bgblur_0_627_388_clip_path" transform="translate(8 8)"><rect width="44" height="44" rx="4"/>
</clipPath></defs>
</svg>
